<svg width="502" height="400" viewBox="0 0 502 400" fill="none" xmlns="http://www.w3.org/2000/svg">
    <path d="M2 107.5C2 90.5 16.5 61.5 22 37C76 7.5 117.7 21.6 126.5 24C137.5 27 126.5 66 126.5 73.5C126.5 79.5 120.167 92.6666 116.5 97.5C124.5 93.3333 138.5 89.25 144.5 92C156.5 97.5 173.333 104.667 182 105C187.333 111.333 192.5 111.5 198 107.5C210.118 98.6872 208 96.5 224.5 100C232.326 101.66 247.333 92.6666 254 88C255.833 89.8333 260.8 93.9 266 95.5C271.2 97.1 274.833 87.8333 276 83C277.333 78.6667 280.9 69.2 284.5 66C289 62 317 64.5 330 66C343 67.5 361.5 95.5 364 107.5C366 117.1 356.167 128.833 351 133.5L344.5 149C346.167 152.667 348.218 148.646 355.5 155.5C364 163.5 389 172.5 396.5 171.5C404 170.5 509 160 514 160C519 160 512.5 393.5 509 399C505.5 404.5 369.5 376.5 364 372.5C358.5 368.5 325 336.5 317 327C310.6 319.4 307.333 297.833 306.5 288C285.167 291.5 239.9 298.5 229.5 298.5C216.5 298.5 154.5 236.5 147 234C141 232 110.5 215.833 96 208C101.167 202 99.8568 197.939 96 199C76 204.5 61.5 213.929 33 199C22.5 193.5 2 124.5 2 107.5Z" fill="#FFE5E5"/>
    <path d="M407 55.5C418 55 413.677 55.5 422.5 50C431.323 44.5 460 43.5 460 43.5L507 94C498.167 101.167 492 121 484.5 135C477 149 449.5 160 445 163C440.5 166 403 154.5 395 150.5C387 146.5 351.5 135 348.5 135C345.5 135 340 117.5 337.5 113C335 108.5 297.5 67 307 61.5C316.5 56 396 56 407 55.5Z" fill="#FFE5E5"/>
    <path d="M17.6257 55.714C16.5257 73.314 -20.3744 91.714 23.2256 185.914C41.2256 224.814 100.126 200.714 98.7256 195.914" stroke="#280274" stroke-width="3.2" stroke-miterlimit="10"/>
    <path d="M60.5256 135.014C70.9256 124.014 86.4257 118.214 101.426 119.614C99.4257 112.014 102.126 103.014 108.926 99.014C110.826 97.914 112.926 97.314 114.926 96.614C117.926 95.714 120.926 94.714 123.926 93.814C132.326 91.214 141.826 88.614 149.626 92.814C155.126 95.714 161.326 103.014 167.526 103.914" stroke="#280274" stroke-width="3.2" stroke-miterlimit="10"/>
    <path d="M139.426 100.214C148.026 104.514 156.626 108.714 165.226 113.014C171.626 116.214 180.226 118.614 181.326 126.714C181.526 128.214 181.326 130.114 179.926 130.814C179.126 131.214 178.126 131.114 177.226 131.014C175.426 130.814 173.726 130.614 171.926 130.314C152.826 127.914 135.226 124.614 119.526 112.914" stroke="#280274" stroke-width="3.2" stroke-miterlimit="10"/>
    <path d="M112.026 128.714C114.426 132.314 119.026 132.714 122.126 135.314C125.826 138.314 126.226 143.114 126.026 147.614C125.826 152.014 125.126 156.614 127.026 160.514C128.926 164.414 133.026 166.914 135.326 170.614C138.126 175.114 138.226 186.214 131.726 188.014C128.826 188.814 125.926 186.814 124.126 184.414C117.926 176.114 111.426 167.114 107.526 157.414C105.626 152.714 104.826 147.914 101.726 143.714" stroke="#280274" stroke-width="3.2" stroke-miterlimit="10"/>
    <path d="M161.126 128.414C163.226 129.314 168.026 132.614 170.126 133.514C172.726 134.614 175.326 135.814 177.226 137.814C179.126 139.914 180.026 143.114 178.526 145.514C177.326 147.514 174.926 149.614 172.726 149.014C153.226 144.114 132.026 144.714 120.026 133.814" stroke="#280274" stroke-width="3.2" stroke-miterlimit="10"/>
    <path d="M100.426 148.614C102.726 155.614 103.626 161.614 102.326 168.914C100.426 179.014 98.8256 188.214 98.6256 198.514C98.6256 200.914 98.4256 203.414 97.2256 205.414C96.6256 206.514 95.6256 207.814 96.3256 208.814C96.7256 209.314 97.4256 209.514 98.1256 209.514C103.226 209.814 107.326 205.114 109.126 200.314C112.326 191.614 114.326 182.014 116.926 173.014" stroke="#280274" stroke-width="3.2" stroke-miterlimit="10"/>
    <path d="M163.926 110.114C166.126 102.814 175.126 101.814 180.126 103.814C185.126 105.814 190.126 112.814 197.126 108.814C200.126 106.814 202.126 102.814 205.126 99.814C213.126 93.814 223.626 110.314 251.326 87.414C254.026 85.114 257.126 88.114 259.426 90.514C261.226 92.414 263.826 96.114 267.026 94.714C270.226 93.314 271.226 88.314 273.726 86.114C277.526 82.914 282.626 82.514 287.226 84.214C287.526 82.314 287.226 80.414 287.226 78.514" stroke="#280274" stroke-width="3.2" stroke-miterlimit="10"/>
    <path d="M143.426 166.314C146.726 163.114 151.026 161.014 155.526 160.314" stroke="#280274" stroke-width="3.2" stroke-miterlimit="10"/>
    <path d="M156.326 155.614C155.326 159.414 157.626 163.214 159.926 166.314C160.326 166.814 160.726 167.314 161.226 167.814C161.526 168.114 161.926 168.414 162.126 168.714C162.326 169.114 162.426 169.614 162.426 170.014C162.626 172.114 162.926 174.314 163.126 176.414" stroke="#280274" stroke-width="3.2" stroke-miterlimit="10"/>
    <path d="M132.726 189.914C132.726 192.214 134.326 194.214 136.026 195.814C139.526 198.914 143.926 201.114 148.626 202.114" stroke="#280274" stroke-width="3.2" stroke-miterlimit="10"/>
    <path d="M183.126 112.414C182.426 114.114 183.326 116.114 184.326 117.514C185.426 119.014 186.726 120.414 187.026 122.314" stroke="#280274" stroke-width="3.2" stroke-miterlimit="10"/>
    <path d="M184.626 132.714C186.626 132.914 188.726 132.214 190.026 130.714C191.326 129.214 192.026 127.114 191.726 125.214" stroke="#280274" stroke-width="3.2" stroke-miterlimit="10"/>
    <path d="M252.926 90.614C251.126 101.414 243.826 114.314 232.626 117.414C223.026 120.114 210.026 116.714 203.826 108.714" stroke="#280274" stroke-width="3.2" stroke-miterlimit="10"/>
    <path d="M347.026 105.314C337.126 116.814 332.126 130.814 326.126 144.814C326.126 146.814 325.126 150.814 327.126 152.814C329.126 154.814 332.126 154.814 335.126 152.814C341.126 149.814 345.126 143.814 348.126 137.814C352.126 126.814 361.126 117.814 362.126 105.814C362.126 102.814 360.126 99.814 356.326 100.214M356.326 100.214C358.826 99.214 361.726 99.314 356.326 100.214ZM356.326 100.214C358.126 98.814 357.126 96.814 357.126 95.814C353.126 86.814 345.126 80.814 339.126 72.814C336.126 69.814 333.126 67.814 329.126 66.814C316.126 61.814 303.126 62.814 290.326 63.314C290.326 63.314 281.626 64.314 278.626 74.314C275.626 84.314 273.726 86.114 273.726 86.114" stroke="#280274" stroke-width="3.2" stroke-miterlimit="10"/>
    <path d="M294.726 84.114C296.026 88.314 291.926 94.014 292.326 98.714C292.526 101.914 293.826 104.914 294.326 108.014C295.226 113.614 293.926 119.314 292.726 124.914C290.826 133.014 288.926 141.114 287.026 149.114C286.726 150.614 286.426 152.314 287.326 153.414C288.226 154.414 289.826 154.514 291.126 154.014C292.426 153.514 293.326 152.414 294.126 151.314C300.526 143.414 305.026 134.314 309.326 125.214C311.126 121.514 312.826 117.714 313.926 113.814C316.526 104.514 316.626 90.914 313.326 81.714" stroke="#280274" stroke-width="3.2" stroke-miterlimit="10"/>
    <path d="M289.326 155.314C289.026 157.814 288.726 160.314 289.326 162.814C290.026 165.214 291.926 167.414 294.426 167.714C296.726 168.014 299.026 166.414 300.326 164.514C301.626 162.614 302.426 160.314 303.426 158.214C307.326 149.614 315.226 143.214 318.826 134.514C319.626 132.514 320.226 130.314 320.826 128.214C323.326 118.914 325.926 109.614 328.426 100.314" stroke="#280274" stroke-width="3.2" stroke-miterlimit="10"/>
    <path d="M311.226 147.314C311.226 152.814 311.726 157.914 310.926 163.514C310.726 165.114 310.426 166.914 311.226 168.014C312.026 169.114 313.526 169.014 314.726 168.514C319.726 166.714 324.726 160.914 326.126 154.414" stroke="#280274" stroke-width="3.2" stroke-miterlimit="10"/>
    <path d="M342.526 148.814C347.626 151.414 352.726 154.014 357.226 157.614C358.726 158.814 360.226 160.214 361.826 161.314C364.926 163.414 368.426 164.714 371.926 165.914C376.426 167.514 381.026 169.114 385.526 170.714" stroke="#280274" stroke-width="3.2" stroke-miterlimit="10"/>
    <path d="M300.126 61.814C305.726 61.814 405.326 51.414 419.126 55.514" stroke="#280274" stroke-width="3.2" stroke-miterlimit="10"/>
    <path d="M350.126 133.814C355.726 133.814 440.126 177.814 462.126 153.814" stroke="#280274" stroke-width="3.2" stroke-miterlimit="10"/>
    <path d="M206.726 269.614C215.826 280.714 228.826 273.014 235.926 263.914" stroke="#280274" stroke-width="3.2" stroke-miterlimit="10"/>
    <path d="M99.4256 211.114C99.0256 217.414 98.2256 228.214 104.126 232.314C111.626 237.514 121.726 226.614 125.226 221.014C127.726 227.114 119.526 231.914 120.826 238.114C122.026 244.414 128.826 245.114 133.826 243.114C140.626 240.414 145.126 233.614 151.626 230.214C159.626 226.014 169.826 225.314 178.726 225.014C187.726 224.714 197.426 226.014 204.126 232.514C201.126 233.714 198.426 235.714 196.426 238.314C195.426 240.014 194.526 241.714 193.526 243.414" stroke="#280274" stroke-width="3.2" stroke-miterlimit="10"/>
    <path d="M247.926 255.314C251.926 255.914 256.726 255.814 259.826 258.514C261.326 259.814 262.926 260.814 264.726 261.614C266.526 262.414 267.526 262.714 268.526 265.214C271.326 272.114 276.626 277.914 283.226 281.314" stroke="#280274" stroke-width="3.2" stroke-miterlimit="10"/>
    <path d="M353.526 363.014C345.926 356.114 338.326 349.214 330.726 342.314C326.326 338.314 321.926 334.314 318.226 329.714C310.126 319.414 305.926 306.114 306.826 293.014C307.826 277.314 315.826 262.714 326.026 250.714C329.026 247.114 332.326 243.714 336.226 241.114C341.826 237.314 348.526 235.414 355.126 233.914C362.626 232.214 370.326 230.914 377.926 231.814" stroke="#280274" stroke-width="3.2" stroke-miterlimit="10"/>
    <path d="M401.726 171.314C399.226 170.414 396.526 171.514 394.126 172.514C386.626 175.814 379.126 179.614 373.626 185.614C366.826 193.014 363.726 203.014 359.926 212.314C356.126 221.614 347.626 235.114 338.626 239.514" stroke="#280274" stroke-width="3.2" stroke-miterlimit="10"/>
    <path d="M127.326 56.014C127.626 62.714 127.926 69.414 126.226 75.914C125.326 79.514 123.826 82.914 122.426 86.314C121.126 89.314 119.826 92.314 118.526 95.314" stroke="#280274" stroke-width="3.2" stroke-miterlimit="10"/>
    <path d="M188.326 229.114C185.726 229.014 183.126 229.714 180.426 229.514C179.126 229.514 177.826 230.714 177.926 232.014C178.026 233.314 179.026 234.414 180.426 234.514C183.026 234.714 185.626 233.914 188.326 234.114C191.026 234.314 190.926 232.914 190.826 231.614C190.826 230.214 189.726 229.214 188.326 229.114Z" fill="#280274"/>
    <path d="M170.426 232.214C163.326 232.214 156.226 232.014 149.226 231.014C147.926 230.814 146.526 231.314 146.126 232.714C145.726 234.114 146.526 235.614 147.826 235.814C155.326 236.914 162.826 237.214 170.326 237.214C173.526 237.214 173.526 232.214 170.326 232.214H170.426Z" fill="#280274"/>
    <path d="M126.326 217.714C125.226 216.014 123.626 214.714 122.026 213.514C120.426 212.314 117.926 211.014 115.826 209.914C113.726 208.814 111.226 207.914 108.826 207.214C106.426 206.514 104.826 206.214 102.926 206.414C101.626 206.514 100.426 207.414 100.426 208.914C100.426 210.414 101.526 211.514 102.926 211.414C104.326 211.314 103.626 211.414 104.026 211.414C104.426 211.414 104.426 211.414 104.626 211.414C104.826 211.414 105.326 211.514 104.726 211.414C105.626 211.514 106.526 211.714 107.326 212.014C109.526 212.614 111.426 213.414 113.326 214.214C115.226 215.014 117.226 216.214 119.026 217.414C120.826 218.614 119.426 217.714 119.626 217.814C119.826 217.914 120.326 218.314 119.926 218.014C120.226 218.314 120.626 218.514 120.926 218.814C121.226 219.114 121.426 219.314 121.726 219.614C122.026 219.914 121.926 219.914 122.026 220.014C121.526 219.414 122.026 220.014 122.026 220.114C123.726 222.814 128.026 220.314 126.326 217.614V217.714Z" fill="#280274"/>
    <path d="M245.226 260.114C249.526 258.614 253.326 259.514 256.826 262.414C260.426 265.414 263.126 269.314 265.926 273.014C266.926 271.714 267.926 270.414 268.926 269.114C267.626 268.214 266.726 266.814 265.826 265.714C264.726 264.414 263.426 263.114 261.826 262.414C260.226 261.714 257.726 263.014 258.126 265.214C258.826 269.414 263.126 270.814 266.126 273.014C269.126 275.214 269.126 275.914 270.426 277.514C272.026 279.314 273.626 281.014 275.626 282.314C277.726 283.714 280.326 281.014 279.026 278.914C275.126 272.614 268.626 268.214 262.126 265.014C259.826 263.914 257.626 266.114 258.726 268.414C260.526 272.214 263.226 275.614 266.226 278.514C267.426 277.314 268.626 276.114 269.726 275.014C263.426 269.614 258.426 262.914 251.626 258.014C244.826 253.114 247.826 258.414 247.826 260.214C247.826 265.714 252.326 269.014 254.426 273.614L258.326 270.614C254.526 267.314 250.926 263.614 246.426 261.214C244.226 260.014 241.826 262.414 243.026 264.614C244.826 268.114 246.626 271.714 249.426 274.614C251.326 276.714 254.826 274.014 253.326 271.614C251.626 268.814 249.926 266.014 248.626 262.914C247.526 264.014 246.326 265.214 245.226 266.314C246.226 266.814 247.226 267.214 248.126 267.714C249.626 268.614 252.126 267.514 251.926 265.514C251.726 263.514 251.226 261.714 250.026 260.014C249.526 261.214 249.026 262.414 248.526 263.714C251.926 262.714 255.326 264.514 258.126 266.514C261.226 268.614 263.826 271.314 266.526 273.914C269.226 276.514 270.026 274.514 270.726 272.814C272.326 268.614 269.326 264.614 267.926 261.114C266.426 261.714 264.926 262.414 263.326 263.014C267.626 269.514 271.926 276.314 278.126 281.314C279.926 282.714 281.626 284.014 283.726 284.914C285.826 285.814 287.726 286.114 289.726 286.314C293.926 286.814 298.126 286.514 302.326 286.614C305.526 286.614 305.526 281.714 302.326 281.614C298.426 281.614 294.526 281.814 290.626 281.414C288.926 281.214 287.126 280.814 285.526 280.214C283.926 279.614 282.426 278.414 281.026 277.214C275.526 272.514 271.626 266.414 267.626 260.514C263.626 254.614 265.726 259.014 264.526 259.514C263.326 260.014 262.626 261.314 263.126 262.414C263.826 264.114 264.726 265.714 265.426 267.414C266.026 268.814 266.426 270.114 265.926 271.514C267.326 271.114 268.726 270.814 270.126 270.414C264.226 264.814 256.326 256.314 247.226 258.914C245.826 259.314 244.826 261.214 245.726 262.614C246.626 264.014 246.826 264.514 246.926 265.514L250.726 263.314C249.826 262.814 248.826 262.414 247.826 261.914C245.426 260.714 243.426 263.114 244.426 265.314C245.426 267.514 247.426 271.114 249.126 274.014C250.426 273.014 251.726 272.014 253.026 271.014C250.626 268.414 249.026 265.114 247.426 262.014L244.026 265.414C248.126 267.614 251.426 271.014 254.926 274.014C258.426 277.014 260.026 273.614 258.826 271.014C257.926 269.014 256.526 267.314 255.226 265.514C253.926 263.714 252.926 262.214 252.926 260.114L249.126 262.314C255.526 266.914 260.326 273.414 266.226 278.514C272.126 283.614 272.126 277.214 269.726 275.014C267.026 272.314 264.626 269.414 263.026 265.914L259.626 269.314C265.426 272.114 271.326 275.814 274.826 281.414L278.226 278.014C274.826 275.814 272.926 271.914 269.726 269.414C266.526 266.914 266.826 267.614 265.426 266.714C264.026 265.814 263.226 265.314 263.026 263.914L259.326 266.714C260.826 267.414 261.726 268.514 262.726 269.814C263.826 271.214 264.926 272.414 266.426 273.514C267.926 274.614 268.926 273.814 269.626 272.914C270.326 272.014 270.226 270.614 269.426 269.614C266.226 265.514 263.226 261.214 259.026 258.014C254.626 254.614 249.126 253.614 243.826 255.414C242.526 255.814 241.726 257.114 242.126 258.514C242.526 259.914 243.926 260.714 245.226 260.214V260.114Z" fill="#280274"/>
    <path d="M243.126 263.214C243.126 262.914 243.026 262.714 242.926 262.414V263.114C242.926 262.714 242.926 262.214 242.926 261.814V262.514C242.926 262.114 242.926 261.714 243.126 261.414L242.826 262.014C242.926 261.714 243.126 261.414 243.326 261.114C243.526 260.814 243.626 260.514 243.626 260.214C243.626 259.914 243.626 259.514 243.626 259.214C243.426 258.614 243.026 258.014 242.526 257.714C242.026 257.414 241.226 257.214 240.626 257.414L240.026 257.714C239.626 257.914 239.326 258.214 239.126 258.614C238.826 259.114 238.526 259.614 238.326 260.114C238.126 260.614 238.126 260.814 238.026 261.214C238.026 261.814 237.826 262.314 237.926 262.914C238.026 263.514 238.026 264.114 238.226 264.614C238.426 265.114 238.826 265.814 239.326 266.114C239.826 266.414 240.626 266.514 241.226 266.414C241.826 266.314 242.426 265.814 242.726 265.314C243.026 264.814 243.126 264.014 243.026 263.414L243.126 263.214Z" fill="#280274"/>
    <path d="M240.526 262.514C240.226 262.414 239.926 262.514 239.726 262.714C234.926 267.414 228.426 270.314 221.126 270.314C213.826 270.314 215.526 269.814 212.926 269.014C212.926 269.014 212.926 269.014 212.826 269.014C210.826 268.814 209.026 268.414 207.326 268.014C206.826 267.914 206.426 267.714 205.926 267.514C205.826 267.514 205.626 267.514 205.526 267.514C205.026 267.414 204.626 267.114 204.226 266.814C197.626 263.014 192.026 253.714 194.226 247.314C194.026 246.914 193.926 246.614 193.926 246.214C193.926 245.914 193.926 245.514 193.926 245.214L192.026 244.514C191.626 244.414 191.226 244.514 191.026 244.814C190.626 245.514 190.126 246.214 189.626 246.914C189.626 245.814 189.626 244.614 189.626 243.514H189.426C189.226 244.414 188.926 245.414 188.326 246.114C188.326 246.114 188.326 246.214 188.326 246.314C188.126 247.014 187.926 247.614 187.626 248.214C187.626 247.714 187.626 247.314 187.726 246.914C187.326 247.214 186.826 247.514 186.326 247.614C186.226 246.214 186.426 244.714 186.926 243.314C187.026 242.914 186.926 242.514 186.426 242.314L177.726 239.014C178.926 239.914 180.226 240.914 181.426 241.814C182.026 242.314 182.726 242.714 183.326 243.314C182.726 242.814 182.026 242.314 181.426 241.814C179.626 240.514 177.726 239.414 175.726 238.314C175.726 238.314 175.726 238.314 175.626 238.314L162.826 233.514C162.726 233.514 162.526 233.514 162.426 233.514L160.726 233.814C160.626 233.814 160.426 233.814 160.326 233.814C159.326 234.114 158.326 234.414 157.326 234.714C158.026 234.514 158.826 234.214 159.626 234.014C159.926 234.014 160.226 233.814 160.526 233.714L157.826 234.114C156.926 234.214 156.526 233.014 157.326 232.614C157.726 232.414 158.126 232.214 158.526 232.014C156.326 232.814 154.326 234.014 152.026 233.514C151.426 233.414 151.226 232.714 151.626 232.214C152.126 231.714 151.626 231.214 150.926 230.914C120.426 215.414 183.626 243.514 124.726 219.114L97.3256 208.814C96.9256 208.614 96.5256 208.814 96.3256 209.214C69.3256 270.014 93.9256 337.714 141.626 362.514C196.426 391.014 278.426 361.014 303.426 287.214C303.526 286.814 303.426 286.314 302.926 286.214L240.526 262.714V262.514Z" fill="#280274"/>
    <path d="M181.426 241.814C180.226 240.914 178.926 239.914 177.726 239.014L186.426 242.314C186.926 242.514 187.026 242.914 186.926 243.314C186.426 244.714 186.226 246.214 186.326 247.614C186.826 247.514 187.326 247.214 187.726 246.914C187.626 247.314 187.626 247.714 187.626 248.214C187.926 247.614 188.126 247.014 188.326 246.314C188.326 246.214 188.326 246.114 188.326 246.114C188.926 245.414 189.226 244.414 189.426 243.514H189.626C189.626 244.614 189.626 245.814 189.626 246.914C190.126 246.214 190.626 245.514 191.026 244.814C191.226 244.514 191.626 244.414 192.026 244.514L193.926 245.214C193.926 245.514 193.926 245.914 193.926 246.214C193.926 246.614 194.026 246.914 194.226 247.314C192.026 253.714 197.626 263.014 204.226 266.814C204.626 267.114 205.026 267.414 205.526 267.514C205.626 267.514 205.826 267.514 205.926 267.514C206.426 267.714 206.826 267.914 207.326 268.014C209.026 268.414 210.826 268.814 212.826 269.014C212.926 269.014 212.926 269.014 212.926 269.014C215.526 269.814 213.826 270.314 221.126 270.314C228.426 270.314 234.926 267.414 239.726 262.714C239.926 262.514 240.226 262.414 240.526 262.514V262.714L302.926 286.214C303.426 286.314 303.526 286.814 303.426 287.214C278.426 361.014 196.426 391.014 141.626 362.514C93.9256 337.714 69.3256 270.014 96.3256 209.214C96.5256 208.814 96.9256 208.614 97.3256 208.814L124.726 219.114C183.626 243.514 120.426 215.414 150.926 230.914C151.626 231.214 152.126 231.714 151.626 232.214C151.226 232.714 151.426 233.414 152.026 233.514C154.326 234.014 156.326 232.814 158.526 232.014C158.126 232.214 157.726 232.414 157.326 232.614C156.526 233.014 156.926 234.214 157.826 234.114L160.526 233.714C160.226 233.814 159.926 234.014 159.626 234.014C158.826 234.214 158.026 234.514 157.326 234.714C158.326 234.414 159.326 234.114 160.326 233.814C160.426 233.814 160.626 233.814 160.726 233.814L162.426 233.514C162.526 233.514 162.726 233.514 162.826 233.514L175.626 238.314C175.726 238.314 175.726 238.314 175.726 238.314C177.726 239.414 179.626 240.514 181.426 241.814ZM181.426 241.814C182.026 242.314 182.726 242.714 183.326 243.314C182.726 242.814 182.026 242.314 181.426 241.814Z" stroke="#280274" stroke-width="3.2" stroke-miterlimit="10"/>
    <path d="M128.526 220.314C131.026 221.814 133.826 222.814 136.826 223.414L128.526 220.314Z" fill="#280274" stroke="#280274" stroke-width="3.2" stroke-miterlimit="10"/>
    <path d="M188.326 246.114C188.626 245.114 188.726 244.114 188.926 243.114H188.826C188.426 244.314 188.026 245.514 187.726 246.814C187.926 246.614 188.126 246.414 188.326 246.114Z" fill="#280274" stroke="#280274" stroke-width="3.2" stroke-miterlimit="10"/>
    <path d="M148.126 227.714L145.726 226.814C141.926 226.614 138.226 226.314 135.126 226.414C139.526 227.514 143.826 227.814 148.126 227.714Z" fill="#280274" stroke="#280274" stroke-width="3.2" stroke-miterlimit="10"/>
    <path d="M254.526 27.914C252.026 25.414 221.826 -3.08598 179.126 5.41402C135.526 14.014 118.626 53.314 117.426 56.414" stroke="#FE7A36" stroke-width="5.7" stroke-miterlimit="10" stroke-linecap="round"/>
    <path d="M111.826 66.214L138.126 54.914C141.126 53.614 141.626 49.514 139.026 47.614L116.026 30.514C113.426 28.514 109.626 30.214 109.226 33.414L105.926 61.814C105.526 65.014 108.826 67.514 111.826 66.214Z" fill="#FE7A36" stroke="#FE7A36" stroke-width="2.1" stroke-miterlimit="10" stroke-linecap="round"/>
    <path d="M146.626 241.314C146.026 234.514 162.526 225.714 177.626 225.314C190.326 225.014 198.026 230.214 200.626 232.414C203.226 234.614 200.626 233.014 200.326 232.914C197.326 232.014 197.426 240.414 190.626 245.314C184.826 249.414 178.926 245.714 173.626 249.314C165.226 254.914 147.226 248.114 146.626 241.314Z" fill="#280274" stroke="#280274" stroke-width="3.2" stroke-miterlimit="10"/>
    <path d="M266.126 320.314C285.732 320.314 301.626 304.42 301.626 284.814C301.626 265.208 285.732 249.314 266.126 249.314C246.52 249.314 230.626 265.208 230.626 284.814C230.626 304.42 246.52 320.314 266.126 320.314Z" fill="#280274" stroke="#280274" stroke-width="3.6" stroke-miterlimit="10"/>
    <path d="M106.126 205.814L153.126 229.814" stroke="#280274" stroke-width="5.7" stroke-miterlimit="10"/>
    </svg>
    