<svg width="445" height="230" viewBox="0 0 445 230" fill="none" xmlns="http://www.w3.org/2000/svg">
<path d="M57.875 63.125V154H40.75V83.25L29.6875 87.4375V69.25L43.25 63.125H57.875ZM100.5 63.125V154H83.375V83.25L72.3125 87.4375V69.25L85.875 63.125H100.5ZM117.312 154V138.562L148.5 97.5625C149.917 95.7292 151 93.8542 151.75 91.9375C152.542 89.9792 152.938 88.1667 152.938 86.5V86.375C152.938 83.9167 152.146 82.0208 150.562 80.6875C148.979 79.3542 146.729 78.6875 143.812 78.6875C141.021 78.6875 138.729 79.625 136.938 81.5C135.188 83.3333 134.125 85.9583 133.75 89.375V89.4375H116.188V89.375C116.771 80.75 119.521 74.0625 124.438 69.3125C129.396 64.5625 135.812 62.1875 143.688 62.1875C152.229 62.1875 158.833 64.25 163.5 68.375C168.208 72.5 170.562 78.3333 170.562 85.875V85.9375C170.562 90.0625 169.833 94.1667 168.375 98.25C166.958 102.292 164.958 105.958 162.375 109.25L140 137.5H171.062V154H117.312Z" fill="#FE7A36"/>
<path d="M313.796 163.898C312.209 163.515 244.924 180.348 242.702 181.496C241.115 182.018 229.689 218.221 230.006 219.369C230.324 220.517 447.097 224.342 442.971 219.369C438.845 214.396 429.641 183.026 429.006 180.348C428.371 177.67 401.394 159.307 395.363 155.099C389.333 150.891 357.595 156.629 356.643 157.777C355.69 158.925 339.187 171.167 335.378 173.079C331.569 174.992 329.665 172.697 321.413 171.167C313.161 169.636 315.383 164.281 313.796 163.898Z" fill="#3652AD" stroke="#3652AD" stroke-width="3"/>
<path d="M333.755 173.093C339.151 172.141 354.705 160.079 356.292 158.809L358.514 108.657C357.773 105.483 356.292 98.5631 356.292 96.2777C356.292 93.9923 351.848 88.5538 349.626 86.1203C347.721 83.8983 339.468 79.4545 335.977 76.9151C333.153 74.8614 321.376 44.8558 318.519 35.968C315.662 27.0803 309.314 23.5887 299.791 23.5887C290.268 23.5887 277.254 37.2377 274.715 41.999C272.176 46.7603 267.097 70.8841 266.78 79.4545C266.462 88.0248 267.097 101.039 272.493 115.64C277.889 130.242 290.586 146.43 296.299 148.652C300.815 150.408 307.727 148.017 308.679 148.652C310.285 149.723 317.249 162.301 318.519 165.792C318.953 166.986 316.297 168.332 315.345 169.602C314.392 170.871 328.359 174.045 333.755 173.093Z" fill="#FFE5E5"/>
<path d="M260.114 48.03C261.384 56.9176 267.097 71.2017 268.683 71.2017C270.165 63.5836 288.999 57.5526 295.982 51.5216C302.965 45.4906 310.194 32.6775 312.488 29.6197C313.44 28.35 313.932 27.7152 315.979 33.1113C319.471 42.3163 331.85 71.2017 332.485 74.3759C335.341 88.6596 341.69 81.3591 345.181 83.2636C348.673 85.1681 362.957 84.2159 364.861 83.2636C366.766 82.3114 375.337 77.55 377.559 71.2016C379.781 64.8532 380.098 68.3448 382.32 53.7435C384.542 39.1422 384.536 35.3332 377.241 22.9539C366.767 5.17828 355.021 8.67012 346.769 8.67012C338.516 8.67012 330.263 10.5746 328.358 10.5746C304.552 -1.4873 293.442 1.79026 281.698 6.13063C267.096 11.5268 257.778 31.6871 260.114 48.03Z" fill="#280274"/>
<path d="M372.797 58.5048C373.946 58.5048 388.608 83.9712 392.564 91.1711C393.064 92.0809 392.749 93.2024 391.864 93.7445L332.891 129.851C331.96 130.42 330.746 130.139 330.16 129.22L311.644 100.164C311.056 99.2411 311.311 98.0222 312.225 97.4221C333.018 83.7856 371.808 58.5048 372.797 58.5048Z" fill="#737FE8" stroke="#3652AD" stroke-width="3"/>
<path d="M402.635 173.728C404.857 177.854 418.188 203.883 420.093 207.374L430.568 225.15L400.413 228.007C397.027 223.14 389.874 213.024 388.351 211.501C386.446 209.596 355.339 155.953 354.387 153.731C353.435 151.509 351.394 151.526 349.626 148.652C347.086 144.525 345.182 139.129 345.182 135.32C345.182 131.511 346.777 130.866 345.182 129.607C339.151 124.845 337.246 114.371 335.342 110.879C334.662 109.633 327.406 103.261 325.502 102.309C323.597 101.356 319.153 102.309 316.932 100.722C314.71 99.1345 313.488 95.082 315.979 93.421C317.884 92.1513 322.963 93.421 325.502 93.421C328.041 93.421 342.008 103.261 343.912 104.848C345.088 105.828 347.595 111.648 349.341 115.958C348.389 113.101 345.958 105.395 345.182 103.261C343.912 99.7693 338.199 96.5951 335.342 93.421C333.725 91.6241 324.232 85.168 322.01 82.3112C319.788 79.4545 319.153 78.1848 321.375 76.9152C323.597 75.6455 344.547 87.7074 347.404 89.6119C348.196 90.1401 358.513 109.609 358.513 107.387C358.513 105.165 355.339 95.6429 354.704 93.421C354.07 91.199 352.8 90.5642 351.848 88.6597C350.895 86.7552 346.452 79.7719 345.182 76.9152C343.912 74.0584 339.786 68.0274 342.008 66.7578C344.976 65.0616 350.401 71.5284 355.339 76.9152C362.323 84.5332 365.266 87.6164 366.449 92.1513C368.353 99.4519 371.528 108.975 371.528 107.387C371.528 105.8 370.398 85.9224 369.94 82.9461C369.306 78.8197 367.084 73.4236 367.084 68.0274C367.084 62.6313 371.108 61.6833 373.75 64.8532C375.337 66.7577 381.368 100.722 381.685 102.309C382.002 103.896 385.811 144.525 386.446 146.113C387.081 147.7 400.413 169.602 402.635 173.728Z" fill="#FFE5E5"/>
<path d="M268.367 71.2016C267.414 81.359 265.51 83.5809 269.319 104.848C273.554 128.497 291.538 148.017 296.299 149.287C301.061 150.556 318.519 147.382 322.963 145.795C326.518 144.525 333.543 141.457 336.612 140.082" stroke="#280274" stroke-width="3" stroke-linecap="round"/>
<path d="M318.201 165.475L319.594 164.918L318.201 165.475ZM310.632 147.937C310.238 147.209 309.327 146.938 308.599 147.333C307.871 147.727 307.6 148.638 307.995 149.366L310.632 147.937ZM316.015 170.308C316.663 169.985 317.707 169.428 318.513 168.672C319.29 167.944 320.265 166.596 319.594 164.918L316.808 166.032C316.813 166.043 316.817 166.023 316.806 166.051C316.778 166.121 316.689 166.27 316.461 166.484C315.997 166.918 315.296 167.314 314.674 167.625L316.015 170.308ZM319.594 164.918C319.433 164.515 318.942 163.541 318.317 162.335C317.671 161.088 316.831 159.495 315.923 157.788C314.106 154.371 312.009 150.479 310.632 147.937L307.995 149.366C309.369 151.904 311.462 155.788 313.274 159.196C314.18 160.9 315.015 162.482 315.653 163.715C316.313 164.989 316.716 165.8 316.808 166.032L319.594 164.918Z" fill="#280274"/>
<path d="M329.629 10.8919C326.772 9.62222 293.125 -10.6926 270.589 14.7009C252.559 35.0157 261.383 60.6209 268.049 70.8841" stroke="#280274" stroke-width="3" stroke-linecap="round"/>
<path d="M329.629 10.5745C331.851 9.62228 361.061 3.90871 370.258 14.3836C381.685 27.3978 388.034 34.3809 378.829 67.3925M313.123 165.158C315.027 164.84 310.901 165.158 313.123 165.158ZM313.123 165.158C315.345 165.158 312.488 169.39 319.154 170.871C324.867 172.141 330.581 174.045 334.707 172.458C338.834 170.871 353.753 163.253 355.34 159.444" stroke="#280274" stroke-width="3"/>
<path d="M400.096 228.007C398.572 225.975 364.439 171.612 354.07 154.048C351.742 151.614 346.769 145.795 345.499 141.986C343.912 137.225 347.086 130.876 345.499 129.607C343.912 128.337 340.103 124.528 338.834 121.354C337.818 118.814 336.294 113.524 335.659 111.196C333.014 109.186 328.396 103.591 326.454 102.943C324.55 102.309 317.884 102.309 315.979 100.404C314.075 98.4996 313.757 93.7383 315.979 93.4209C318.201 93.1035 322.963 92.4686 326.454 93.4209C329.311 94.2 341.69 101.356 343.595 104.848C345.499 108.34 349.943 118.814 351.213 121.354" stroke="#280274" stroke-width="3" stroke-linecap="round"/>
<path d="M430.25 224.832C427.076 220.389 401.048 169.601 398.191 164.84C395.334 160.079 386.764 147.7 386.129 144.208C385.494 140.716 382.003 104.531 381.368 100.087C380.733 95.6428 375.654 66.1228 373.432 64.5357C371.21 62.9486 367.084 62.6312 366.766 66.7577C366.449 70.8841 369.941 81.9938 369.941 86.1203C369.941 89.4214 371.21 101.885 371.845 107.705" stroke="#280274" stroke-width="3" stroke-linecap="round"/>
<path d="M349.309 115.005C347.404 110.879 346.173 104.291 344.865 101.674C343.595 99.1344 335.66 94.0557 333.438 91.5164C331.216 88.977 319.471 82.3113 319.789 79.1371C320.106 75.9629 322.963 77.55 327.089 79.1371C331.216 80.7242 344.865 87.3899 347.087 88.977C349.309 90.5641 357.561 106.753 358.514 108.657" stroke="#280274" stroke-width="3" stroke-linecap="round"/>
<path d="M370.258 106.118C368.989 102.943 366.767 92.4686 366.132 89.6118C365.497 86.7551 350.261 70.8841 348.039 68.9796C345.817 67.0751 341.056 65.1706 341.056 67.0751C341.056 68.9796 344.23 75.328 345.5 77.2325C346.769 79.137 353.752 91.199 354.705 92.7861C355.466 94.0557 357.561 103.684 358.514 108.34" stroke="#280274" stroke-width="3" stroke-linecap="round"/>
<path d="M333.437 25.4932C332.803 31.2068 330.263 46.3595 330.263 51.839C330.263 59.7745 331.85 71.8364 333.437 76.2803" stroke="#280274" stroke-width="3" stroke-linecap="round"/>
<path d="M314.386 74.0541C314.386 77.0343 312.501 79.4503 310.176 79.4503C307.851 79.4503 305.498 77.0343 305.498 74.0541C305.498 71.0739 307.851 68.658 310.176 68.658C312.501 68.658 314.386 71.0739 314.386 74.0541Z" fill="#280274"/>
<ellipse cx="277.454" cy="74.3753" rx="3.07254" ry="4.7795" fill="#280274"/>
<path d="M288.364 70.8841C286.459 78.5022 285.19 86.7551 284.555 93.1035C284.212 96.5316 283.71 101.982 283.618 104.714C283.602 105.167 283.908 105.564 284.347 105.68L295 108.5" stroke="#280274" stroke-width="3"/>
<path d="M305.187 122.623C301.378 117.545 293.443 115.005 290.903 115.64C288.364 116.275 288.681 118.814 290.903 122.623C293.125 126.432 293.887 127.321 295.665 129.607C296.934 131.321 301.378 133.098 305.187 131.194C306.774 130.559 306.943 124.965 305.187 122.623Z" fill="#F4ACAC" stroke="#280274" stroke-width="3"/>
<path d="M306.472 57.9885C309.362 58.2798 313.078 57.9885 317.619 61.4843C322.16 64.9802 322.848 67.3108 324.225 68.913" stroke="#280274" stroke-width="3" stroke-linecap="round"/>
<path d="M284.623 59.354C282.289 59.6271 279.288 59.354 275.62 62.6314C271.952 65.9087 271.396 68.0937 270.285 69.5958" stroke="#280274" stroke-width="3" stroke-linecap="round"/>
</svg>
