<svg width="496" height="293" viewBox="0 0 496 293" fill="none" xmlns="http://www.w3.org/2000/svg">
    <path d="M240.5 241.5C230.5 241.5 213 248.5 189 266.5L74.5 197.5C87.5 180 114 143.4 116 137C118.5 129 126.5 130.5 130.5 129.5C134.5 128.5 152.5 137 155 137C157.5 137 160.5 148 167 148C173.5 148 173.5 138.5 181 137C187 135.8 211.5 152.167 223 160.5L240.5 171C253.833 172.333 280.7 174.2 281.5 171C282.3 167.8 308.167 157.667 321 153C347.333 155 402.2 159.3 411 160.5C419.8 161.7 482.667 168 513 171L520 291.5C451.833 290.5 313.8 288.2 307 287C298.5 285.5 300.5 284 293.5 279C286.5 274 274.5 256.5 273.5 251C272.5 245.5 250.5 241.5 240.5 241.5Z" fill="#FFE5E5"/>
    <path d="M224.5 142.5C209 132.5 204.4 118.6 204 117C204 117 206 112.5 214 111.5C222 110.5 223 125.3 223 126.5C223 127.7 224 137.667 224.5 142.5Z" fill="#FFE5E5"/>
    <path d="M28.0001 254C17.0001 253 8.50006 223 7.00006 220C6.00006 220.5 8.00006 216.8 24.0001 198C44.0001 174.5 55.0001 180 53.5001 174.5C52.0001 169 55.0001 150.5 66.5001 145C78.0001 139.5 95.5001 152.5 110 157C124.5 161.5 120 164.5 118.5 166C117 167.5 104 163 113 167.5C122 172 120.5 176 117 178C113.5 180 99.5001 174.5 106.5 178C113.5 181.5 108.5 185.5 106.5 187C104.5 188.5 88.5001 184.5 91.5001 185.5C94.5001 186.5 97.0001 191 95.5001 194.5C94.3001 197.3 87.6667 195.667 84.5001 194.5C81.8334 199.5 74.8001 213.4 68.0001 229C59.5001 248.5 39.0001 255 28.0001 254Z" fill="#FFE5E5"/>
    <path d="M129 134C118.5 134 117.5 128 117.5 125C123.333 123 135.6 119 138 119C141 119 149.5 111 151 105C152.5 99 142 64.5 141.5 59C141 53.5 153.5 45.5 156 43C158.5 40.5 175 26 178 26.5C181 27 184 40.5 198 53.5C212 66.5 209 87.5 206 97C203 106.5 185.5 114 178 119C170.5 124 148 125 147 129C146 133 139.5 134 129 134Z" fill="#FFE5E5"/>
    <g clip-path="url(#clip0_191_1333)">
    <path d="M204.3 89.11L192.3 112.11L217.3 110.11L204.3 89.11Z" fill="#3652AD"/>
    <path d="M150.46 144.24C152.74 146.44 154.66 149.04 157.34 150.79C158.76 151.72 160.39 152.27 162.09 152.35C164.08 152.44 166.04 151.72 167.75 150.74C168.89 150.09 169.37 148.45 168.65 147.32C167.93 146.19 166.45 145.73 165.23 146.42C165.02 146.54 164.82 146.65 164.61 146.76C164.56 146.79 163.88 147.09 164.41 146.87C164.07 147.01 163.72 147.13 163.36 147.22C163.21 147.26 163.05 147.29 162.9 147.32C162.35 147.46 163.36 147.32 162.86 147.32C162.52 147.33 162.19 147.33 161.85 147.32C161.39 147.3 162.23 147.44 161.95 147.33C161.8 147.28 161.63 147.26 161.48 147.22C161.35 147.19 161.22 147.15 161.1 147.11C160.51 146.91 161.1 147.08 161.1 147.13C161.1 147.15 159.6 146.27 159.47 146.18C159.16 145.96 159.29 146.14 159.5 146.21C159.39 146.18 159.19 145.95 159.1 145.88C158.86 145.67 158.62 145.45 158.38 145.23C157.88 144.75 157.39 144.25 156.92 143.75C155.96 142.72 155.02 141.67 154.01 140.69C153.07 139.78 151.4 139.68 150.47 140.69C149.54 141.7 149.46 143.26 150.47 144.23L150.46 144.24Z" fill="white"/>
    <path d="M148.76 158.45C148.66 158.32 148.56 158.19 148.45 158.07C148.28 157.87 148.31 157.92 148.55 158.22L143.98 160.15C145.22 162.04 146.42 163.96 147.37 166.01C148.16 167.72 148.86 169.91 148.54 171.59L152.72 170.49C152.61 170.39 152.5 170.29 152.39 170.18C151.89 169.71 152.48 170.35 152.24 170.02C152 169.69 151.8 169.34 151.61 168.98C151.23 168.24 151 167.62 150.72 166.77C150.17 165.12 149.76 163.43 149.25 161.77L144.68 163.7C146 166.64 148.26 169.47 148.19 172.83L152.85 171.57C152.63 171.16 152.99 171.84 152.96 171.86C152.96 171.86 152.83 171.53 152.82 171.51C152.69 171.14 152.57 170.78 152.46 170.41C152.17 169.45 151.92 168.49 151.69 167.51C151.44 166.44 151.22 165.35 151.05 164.26C151.03 164.13 151.01 164 150.99 163.87C150.93 163.5 151.04 164.32 151 163.96C150.97 163.68 150.93 163.4 150.91 163.13C150.87 162.65 150.84 162.17 150.84 161.69C150.84 161.49 150.86 161.29 150.86 161.1C150.86 160.55 150.69 161.58 150.86 161.12C150.88 161.06 150.99 160.75 150.97 160.69C151.02 160.89 150.81 161.08 150.61 161.29C150.82 161.06 150.25 161.56 150.28 161.54C149.8 161.82 149.67 161.77 149.89 161.71C149.41 161.83 149.21 161.79 149.47 161.79C148.91 161.79 148.84 161.7 149.08 161.76C148.37 161.57 148.78 161.66 149.08 161.81C149.16 161.85 149.42 162.07 149.14 161.85C148.82 161.6 149.24 161.94 149.3 162C149.44 162.14 149.8 162.65 149.53 162.22C149.68 162.45 149.81 162.68 149.93 162.92C150.14 163.34 149.96 162.99 149.93 162.9C149.98 163.03 150.03 163.17 150.07 163.31C150.17 163.66 150.26 164.01 150.32 164.36C150.23 163.82 150.32 164.61 150.32 164.76C150.32 165.04 150.32 165.31 150.29 165.59C150.34 165.03 150.21 165.69 150.19 165.88C150.17 166.03 149.97 166.28 150.25 165.79C150.17 165.94 150.08 166.09 149.99 166.24C150.02 166.2 150.31 165.76 150.05 166.11C150.08 166.07 150.53 165.76 150.16 166.01C150.22 165.97 150.72 165.83 150.29 165.95C150.04 166.02 150.08 165.88 150.42 165.94C150.26 165.91 150.05 165.85 150.48 165.99C150.35 165.95 150.16 165.91 150.03 165.89C149.77 165.84 149.66 165.63 150.12 165.95C150.02 165.88 149.89 165.82 149.78 165.75C149.51 165.58 150.11 166.09 149.89 165.84C149.81 165.75 149.71 165.68 149.63 165.6C149.56 165.53 149.1 164.97 149.28 165.21C149.46 165.45 149.02 164.79 148.96 164.7C148.79 164.42 148.64 164.14 148.49 163.85C148.42 163.72 148.36 163.58 148.3 163.45C148 162.81 148.4 163.73 148.25 163.33C148.14 163.05 148.04 162.77 147.95 162.49C147.76 161.91 147.62 161.32 147.5 160.72C147.47 160.59 147.45 160.45 147.43 160.32C147.52 160.9 147.45 160.53 147.45 160.41C147.45 160.18 147.44 159.93 147.42 159.7C147.38 159 147.42 159.99 147.41 159.6C147.41 159.55 147.45 159.39 147.48 159.34C147.68 158.9 147.19 159.88 147.43 159.5C147.14 159.96 146.89 160.11 146.51 160.23C146.51 160.23 145.78 160.33 146.18 160.29C146.12 160.29 145.55 160.35 145.91 160.28C145.67 160.33 145.67 160.11 145.93 160.3C145.6 160.06 145.91 160.26 145.95 160.34C145.9 160.24 145.76 160.06 145.7 159.94C145.75 160.18 145.76 160.2 145.72 160C145.69 159.8 145.68 159.83 145.69 160.08C145.62 160.02 145.87 159.53 145.67 160.06C145.62 160.2 145.59 160.35 145.53 160.49C145.7 160.06 145.29 160.86 145.24 160.95C145.21 161.01 144.96 161.33 145.2 161.03C145.1 161.15 144.99 161.27 144.89 161.38C144.79 161.49 144.67 161.6 144.56 161.7C144.21 162.02 144.65 161.58 144.47 161.76C144.4 161.83 144.01 161.98 144.34 161.85C144.71 161.71 144.26 161.85 144.32 161.85C144.01 161.81 143.8 161.86 143.64 161.82C143.47 161.77 143.42 161.72 143.31 161.65C142.91 161.41 143.5 161.79 143.33 161.77C143.16 161.75 143.4 161.3 143.29 161.7C143.3 161.65 143.45 161.4 143.56 161.24C144.02 160.63 143.52 161.27 143.59 161.13C143.56 161.18 143.91 161.13 143.67 161.1C143.57 161.09 143.36 161.08 143.27 161.1C142.98 161.14 143.24 160.95 143.15 161.06C143.15 161.06 143.28 161.24 143.34 161.47C143.42 161.81 143.41 161.85 143.35 162.15C143.32 162.3 143.25 162.45 143.22 162.6C143.3 162.21 143.12 162.64 143.3 162.46C143.59 162.16 142.99 162.62 143.39 162.4C143.56 162.28 143.56 162.28 143.38 162.4L143.69 162.28C143.69 162.28 143.39 162.35 143.38 162.36C143.78 162.32 143.84 162.3 143.56 162.31H143.39C143.5 162.31 143.61 162.32 143.71 162.33L143.54 162.29C143.41 162.35 142.88 161.94 143.45 162.27C143.34 162.2 143.22 162.16 143.11 162.08C143.05 162.04 142.61 161.72 142.87 161.93C143.01 162.05 142.49 161.55 142.37 161.41C142.69 161.78 142.14 161.03 142.05 160.86C141.91 160.44 141.99 160.75 142.05 160.86C141.99 160.69 141.95 160.52 141.91 160.34C141.81 159.98 141.91 160.74 141.91 160.36C141.91 160.18 141.9 160 141.91 159.81C141.86 160.33 141.89 159.88 141.94 159.8C142.36 159.17 141.68 160.17 142.09 159.5C142.22 159.28 142.31 159.17 142.71 158.8C143.01 158.53 143.87 158.06 144.22 157.95C144.39 157.9 144.56 157.85 144.73 157.81C145.41 157.65 144.39 157.77 145.06 157.77C145.22 157.77 145.38 157.79 145.53 157.78C145.06 157.79 145.78 157.95 145.32 157.73L144.81 153.8C144.48 154.1 145.1 153.4 144.83 153.76C144.73 153.82 144.62 153.87 144.52 153.92C144.79 153.81 144.84 153.79 144.66 153.85C144.23 153.99 143.81 154.11 143.37 154.21C143.28 154.23 142.47 154.35 142.94 154.29C142.69 154.32 142.44 154.34 142.19 154.35C141.69 154.38 141.2 154.37 140.7 154.33C139.97 154.27 141.13 154.45 140.44 154.29C140.23 154.24 140.02 154.17 139.82 154.12C139.42 154.03 139.96 154.32 139.71 154.05C139.37 153.69 139.92 154.28 139.98 154.38C139.88 154.21 139.87 154.2 139.95 154.34L139.8 155.46C139.72 155.59 139.62 155.7 139.49 155.78L139.69 155.67C139.46 155.77 139.49 155.77 139.78 155.67C140.05 155.62 140.11 155.6 139.95 155.62C139.79 155.65 140.48 155.61 140.6 155.62C142.98 155.69 144.14 152.04 141.86 150.96C140.09 150.12 138.41 149.94 137.13 148.5C134.99 146.09 131.46 149.64 133.59 152.04C135.21 153.86 137.23 154.29 139.33 155.28L140.59 150.62C138.42 150.56 135.83 151.43 135.14 153.71C134.45 155.99 136.22 158.1 138.29 158.86C139.93 159.47 141.81 159.43 143.52 159.2C145.23 158.97 147.02 158.53 148.34 157.32C149.45 156.3 149.27 154.06 147.83 153.39C142.86 151.07 136.02 155.75 137 161.32C137.72 165.38 143.38 169.6 146.91 165.85C148.94 163.7 148.76 159.95 146.92 157.77C144.68 155.11 141.1 155.94 139.28 158.59C137.26 161.53 138.62 165.26 141.89 166.46C144.51 167.42 147.19 166.43 148.88 164.33C150.57 162.23 151.56 159.15 149.6 156.91C148.11 155.2 145.25 154.5 143.56 156.32C142.2 157.78 142.32 159.96 142.63 161.78C142.94 163.6 143.67 165.61 144.69 167.25C145.78 169 147.25 170.43 149.35 170.78C151.92 171.21 154.12 169.79 154.94 167.34C156.14 163.78 154.6 158.86 151.1 157.17C148.98 156.15 146.72 157.17 146.09 159.45C145.61 161.19 145.88 163.09 146.12 164.85C146.36 166.61 146.76 168.47 147.23 170.24C147.57 171.51 147.91 172.87 148.53 174.03C149.73 176.28 153.14 175.16 153.19 172.77C153.27 168.41 150.7 164.93 149 161.12C147.84 158.52 143.61 160.37 144.43 163.05C145.53 166.65 146.18 171.36 149.19 173.96C150.49 175.08 152.99 174.85 153.37 172.86C154.41 167.3 151.24 162.03 148.3 157.57C146.8 155.29 142.87 156.67 143.73 159.5C144.04 160.5 144.6 161.14 145.23 161.94C146.07 163 147.89 162.82 148.77 161.94C149.82 160.89 149.61 159.47 148.77 158.4L148.76 158.45Z" fill="white"/>
    <path d="M143.91 171.37C145.55 168.23 146.02 164.76 146.51 161.3C147 157.84 147.41 154.77 149.21 152.24L145.28 152.75C145.67 153.11 145.17 152.6 145.19 152.59C145.21 152.58 145.37 152.9 145.4 152.94C145.67 153.32 145.27 152.46 145.4 152.92C145.44 153.09 145.51 153.25 145.56 153.41C145.66 153.78 145.73 154.15 145.8 154.52C145.69 153.9 145.8 154.5 145.8 154.65C145.82 154.89 145.83 155.12 145.84 155.36C145.84 155.76 145.78 156.17 145.8 156.56C145.8 156.75 145.92 156.11 145.78 156.65C145.74 156.82 145.69 157 145.65 157.18C145.54 157.7 145.74 157.11 145.66 157.21C145.61 157.28 145.34 157.78 145.58 157.42C145.72 157.25 145.72 157.24 145.59 157.39C145.44 157.53 145.46 157.52 145.63 157.38C145.55 157.37 146.21 157.14 145.87 157.23L148.95 158.98C148.77 158.51 148.62 158.02 148.48 157.53C148.38 157.16 148.28 156.79 148.2 156.42C148.14 156.15 148.09 155.18 148.09 155.95C148.09 155.71 148.12 155.24 148.06 155.02C148.01 154.86 147.91 155.69 148.06 155.18C147.86 155.82 147.42 156.31 146.72 156.49C146.67 156.5 145.52 156.43 145.91 156.52C145.17 156.35 145.79 156.54 145.97 156.59C146.23 156.66 145.49 156.25 145.99 156.64C145.74 156.45 145.76 156.28 145.95 156.64C146.08 156.9 146.04 157.11 145.97 156.66C146 156.83 146.09 157.01 146.13 157.18C146.19 157.4 146.23 157.62 146.27 157.85C146.3 158.03 146.29 157.98 146.25 157.69C146.27 157.83 146.28 157.97 146.29 158.11C146.37 159.07 146.36 160.05 146.29 161.01C146.26 161.46 146.23 161.9 146.18 162.35C146.16 162.56 146.13 162.78 146.11 162.99C146.09 163.13 146.08 163.27 146.06 163.4C146.11 163.07 146.11 163.05 146.06 163.33C145.96 164.01 145.85 164.69 145.73 165.37C145.49 166.7 146.09 168.06 147.48 168.45C148.69 168.78 150.32 168.04 150.56 166.7C151.19 163.19 151.95 159.08 150.86 155.58C150.24 153.59 148.59 151.58 146.32 151.56C144.05 151.54 142.88 153.65 143.04 155.72C143.16 157.28 143.55 158.85 144.1 160.31C144.58 161.57 145.77 162.45 147.18 162.06C149.92 161.29 150.77 158.31 150.81 155.77C150.85 153.64 150.47 150.75 148.8 149.21C147.54 148.05 145.82 148.38 144.87 149.72C142.87 152.54 142.23 156.05 141.75 159.41C141.51 161.1 141.3 162.8 140.96 164.48C140.8 165.29 140.61 166.09 140.37 166.88C140.09 167.79 139.93 168.18 139.58 168.85C138.96 170.05 139.27 171.57 140.48 172.27C141.6 172.93 143.27 172.57 143.9 171.37H143.91Z" fill="white"/>
    <path d="M96.88 147.23C102.35 147.53 107.72 148.13 112.79 150.35C115.25 151.43 117.72 152.31 120.26 153.16C122.44 153.89 124.6 154.77 126.32 156.34L127.42 152.16C123 152.92 118.59 150.38 114.77 148.53C110.28 146.35 105.72 144.94 100.82 144.06C99.49 143.82 98.13 144.42 97.74 145.81C97.41 147.02 98.15 148.64 99.49 148.89C102.04 149.35 104.57 149.88 107.04 150.69C109.51 151.5 111.57 152.53 113.78 153.61C118.53 155.91 123.38 157.93 128.75 157C130.6 156.68 131.16 154.01 129.85 152.82C125.67 149.01 119.93 148.06 114.89 145.86C109.12 143.34 103.11 142.57 96.88 142.24C93.66 142.07 93.67 147.07 96.88 147.24V147.23Z" fill="white"/>
    <path d="M164.1 166.94C166.64 172.93 170.67 178.2 172.93 184.31L177.11 181.88C174.32 179.36 173.01 175.64 171.17 172.45C169.15 168.93 166.47 165.56 165.62 161.52L161.95 164.34C164.69 165.73 166.4 169.17 167.86 171.89C168.62 173.3 169.37 174.71 170.15 176.11C171.03 177.69 172.08 179.46 172.18 181.3L174.68 178.8C174 178.79 175.21 178.9 174.51 178.8C174.41 178.78 173.81 178.56 174.25 178.75C173.86 178.59 173.5 178.35 173.15 178.12C172.56 177.72 171.66 176.86 171 176.17C169.48 174.57 168.26 172.94 166.98 171.2C165.76 169.55 164.45 167.99 163.21 166.36C162.44 165.36 161.71 164.33 161.06 163.25C160.75 162.74 160.44 162.21 160.21 161.66C160.24 161.73 160.06 161.2 160.05 161.16C160.02 161.07 159.89 160.34 159.94 160.81L156.78 163.22C156.96 163.26 157.36 163.43 157.59 163.62C158.07 164.01 158.5 164.51 158.88 165C159.63 165.98 160.26 167.06 160.96 168.08C162.86 170.85 165.09 173.29 166.66 176.3C168.23 179.31 172.39 176.64 170.98 173.78C168.93 169.63 166.47 165.9 165.35 161.59C165.28 161.32 165.22 161.06 165.16 160.79C165.12 160.62 165.03 159.96 165.09 160.47C165.06 160.2 165.04 159.93 165.03 159.66C165.03 159.41 165.1 158.82 165 159.4C165.04 159.21 165.09 159.02 165.13 158.83C165.15 158.73 165 159.28 165.17 158.78C165.29 158.44 165.16 158.85 165.06 158.92C165.2 158.81 165.37 158.72 164.9 159.01C164.95 158.98 165.14 158.83 165.17 158.84C164.82 158.74 165.03 159.12 165.09 158.89C165.1 158.84 165.35 158.8 164.96 158.89C165.04 158.87 165.26 158.88 165.32 158.89C164.82 158.74 165.24 158.89 165.49 158.97C165.75 159.06 165.39 158.91 165.36 158.9C165.49 158.96 165.62 159.02 165.74 159.09C165.94 159.2 166.46 159.54 166.44 159.53C167.14 160.05 168.33 161.34 168.96 162.15C169.82 163.24 170.73 164.67 171.47 165.98C171.8 166.57 172.12 167.17 172.41 167.78C172.5 167.98 172.78 168.61 172.56 168.08C172.66 168.32 172.75 168.57 172.84 168.81C173.73 171.48 177.63 171.02 177.75 168.15C177.83 166.13 177.21 164.05 176.56 162.16C175.86 160.16 175.03 158.17 174.02 156.3C173.06 154.53 169.8 154.74 169.45 156.9C168.71 161.48 169.53 166.04 169.15 170.64L173.42 168.87C170.56 165.3 169.65 160.29 167.83 156.17L163.9 159.2C167.34 163.15 168.61 168.84 170.34 173.65L174.91 171.72C172.53 167.6 171.17 163.01 169.25 158.68L164.93 161.2C169.06 167.2 169.25 174.92 173.04 181.12C174.72 183.86 179.04 181.35 177.36 178.6C173.58 172.42 173.41 164.72 169.25 158.68C167.4 155.99 163.64 158.28 164.93 161.2C166.85 165.54 168.21 170.12 170.59 174.24C171.97 176.62 176.14 175.04 175.16 172.31C173.1 166.6 171.51 160.33 167.43 155.65C166.62 154.72 165.06 154.73 164.15 155.45C163.11 156.28 162.99 157.5 163.51 158.68C165.57 163.34 166.63 168.34 169.88 172.39C171.37 174.25 173.99 172.54 174.15 170.62C174.49 166.5 173.6 162.3 174.27 158.21L169.7 158.81C170.51 160.31 171.18 161.87 171.74 163.47C172.3 165.07 172.81 166.67 172.75 168.13L177.66 167.47C176.73 164.68 175.1 162.04 173.35 159.7C171.42 157.12 168.8 154.05 165.32 153.87C161.84 153.69 159.95 156.66 160.03 159.73C160.11 162.8 161.5 166.05 162.82 168.9C163.99 171.42 165.42 173.79 166.65 176.27L170.97 173.75C170.01 171.92 168.86 170.22 167.61 168.58C166.49 167.1 165.68 166.17 164.77 164.78C163.1 162.25 161.26 159.16 158.11 158.37C156.69 158.01 154.76 159.11 154.95 160.78C155.28 163.73 156.92 166.22 158.66 168.55C159.58 169.78 160.55 170.98 161.51 172.18C161.68 172.39 161.85 172.6 162.01 172.81C161.58 172.26 162 172.8 162.06 172.88C162.36 173.29 162.66 173.69 162.96 174.1C164.53 176.22 166.13 178.37 168.01 180.23C169.89 182.09 172.03 183.74 174.67 183.79C175.97 183.81 177.24 182.63 177.17 181.29C176.93 176.96 174.17 173.08 172.17 169.36C170.32 165.92 168.1 161.86 164.47 160.02C162.48 159.01 160.34 160.67 160.8 162.84C161.75 167.32 164.62 171.07 166.86 174.97C168.92 178.55 170.44 182.59 173.58 185.41C175.28 186.94 178.69 185.48 177.76 182.98C175.33 176.44 171.14 170.81 168.42 164.41C167.89 163.17 166.06 162.89 165 163.51C163.71 164.26 163.57 165.68 164.1 166.93V166.94Z" fill="white"/>
    <path d="M167.8 170.92C168.92 167.3 172.29 164.78 174.82 162.17C175.89 161.07 176.9 159.92 178.02 158.88C178.58 158.36 179.07 157.93 179.7 157.53C179.78 157.48 180.62 157.01 180.29 157.18C180.44 157.13 180.59 157.08 180.75 157.05C180.45 157.08 180.45 157.09 180.74 157.08L178.24 154.58C178.22 154.9 178.08 155.37 177.75 155.95C177.35 156.65 176.93 157.17 176.36 157.77C175.13 159.08 173.72 160.21 172.26 161.25C168.91 163.62 165.52 165.54 161.45 166.35L164.61 168.76C164.6 168.54 164.62 168.14 164.57 168.58C164.59 168.44 164.77 167.94 164.61 168.33C164.81 167.87 165.05 167.56 165.21 167.39C165.97 166.52 166.68 165.99 167.65 165.39C168.62 164.79 169.55 164.31 170.54 163.97C170.99 163.81 171.45 163.7 171.92 163.58C172.04 163.55 172.15 163.53 172.27 163.51C172.01 163.54 171.97 163.55 172.15 163.53C172.38 163.52 172.6 163.51 172.84 163.52L170.34 161.02C170.07 164.46 168.17 167.64 166.41 170.51C164.47 173.67 162.3 176.7 160.76 180.08C159.45 182.96 163.34 185.39 165.08 182.6C165.95 181.2 167.32 179.87 168.71 178.8C169.39 178.28 170.12 177.81 170.88 177.4C171.22 177.22 171.58 177.04 171.91 176.92C172.1 176.85 172.29 176.8 172.48 176.74C172.54 176.72 173.11 176.61 172.77 176.65L170.27 174.15C170.26 174.63 170.37 174.01 170.2 174.47C169.95 175.12 170.34 174.28 169.97 174.94C169.7 175.44 169.37 175.89 169 176.32C168.23 177.22 167.48 177.93 166.51 178.45L170.18 181.27C171.68 177.45 174.58 174.16 177.47 171.33L173.2 169.56C173.42 171.74 171.43 173.67 169.93 175.02L172.96 174.63C173.1 174.73 173.14 174.87 173.26 174.97C172.86 174.63 173.35 175.16 173.21 174.92C173.18 174.86 173.12 174.43 173.15 174.71C173.19 175.04 173.16 174.4 173.17 174.34C173.18 174.2 173.21 173.98 173.17 174.25C173.21 174.03 173.26 173.81 173.32 173.59C173.38 173.35 173.6 172.72 173.59 172.73C173.86 172.09 174.37 171.21 174.67 170.81C174.74 170.72 175.1 170.33 175.3 170.13C175.63 169.79 175.2 170.22 175.38 170.05C175.49 169.95 175.66 169.88 175.79 169.82L172.03 167.66C172.15 171.17 169.55 174.3 168.55 177.56C167.83 179.92 171.04 181.83 172.73 179.99C173.23 179.45 173.68 178.88 174.18 178.35C174.39 178.13 174.61 177.89 174.85 177.7C174.72 177.74 174.79 177.7 175.05 177.55C175.33 177.4 175.38 177.37 175.19 177.45C175.22 177.63 173.97 176.99 174.37 177.01C174.48 177.01 174.52 177.45 174.53 177.48C174.65 178.02 174.68 178.73 174.65 179.4L179.31 178.14C178.36 176.35 177.72 174.46 177.12 172.52C176.82 171.55 176.53 170.59 176.22 169.62C175.91 168.65 175.67 167.45 175.09 166.64C174.11 165.28 172.46 165 171.16 166.13C170.71 166.52 170.49 167.03 170.37 167.6C169.66 170.73 174.48 172.07 175.19 168.93L175.26 168.64L174.62 169.74L174.7 169.67L170.77 169.16C171.12 169.64 171.37 170.83 171.59 171.56C171.91 172.59 172.22 173.63 172.55 174.66C173.2 176.71 173.97 178.74 174.98 180.64C176.2 182.92 179.55 181.75 179.64 179.38C179.74 176.66 179.05 173.16 175.93 172.52C172.81 171.88 170.96 174.52 169.18 176.44L173.36 178.87C174.53 175.06 177.16 171.82 177.02 167.64C176.95 165.64 174.98 164.66 173.26 165.48C170.97 166.57 169.49 169.29 168.69 171.57C167.76 174.21 167.93 177.23 170.41 178.92C171.36 179.57 172.65 179.24 173.44 178.53C175.89 176.33 178.53 173.04 178.18 169.53C177.97 167.45 175.57 166.14 173.91 167.76C170.35 171.25 167.16 175.24 165.33 179.91C164.48 182.07 167.25 183.67 169 182.73C171.95 181.14 175.13 177.6 175.23 174.11C175.26 172.88 174.05 171.45 172.73 171.61C167.91 172.19 163.24 176 160.72 180.04L165.04 182.56C168.34 175.3 174.66 169.28 175.3 160.97C175.41 159.58 174.07 158.53 172.8 158.47C169.95 158.35 166.88 159.8 164.57 161.35C162.13 162.98 159.4 165.49 159.57 168.7C159.66 170.4 161.09 171.44 162.73 171.11C167.5 170.15 171.66 167.79 175.53 164.93C178.96 162.39 182.93 159.11 183.19 154.52C183.27 153.17 181.98 152.02 180.69 152.02C176.8 152.02 173.84 155.86 171.39 158.42C168.15 161.81 164.37 164.89 162.93 169.54C161.97 172.62 166.8 173.94 167.75 170.87L167.8 170.92Z" fill="white"/>
    <path d="M182.8 117.61L181.43 175.02L74.83 144.82C72.82 121.57 70.81 112.61 83.81 83.61C85.05 80.85 83.61 66.07 82.87 63.13" fill="#280274"/>
    <path d="M182.8 117.61L181.43 175.02L74.83 144.82C72.82 121.57 70.81 112.61 83.81 83.61C85.05 80.85 83.61 66.07 82.87 63.13" stroke="#280274" stroke-width="2.92" stroke-miterlimit="10"/>
    <path d="M37.7798 182.32L77.8098 162.77" stroke="#280274" stroke-width="2.92" stroke-miterlimit="10"/>
    <path d="M192 185.276L186.009 137.279C186.009 137.279 177.028 134.704 174.008 138.389C170.987 142.074 166.267 149.201 162.006 149.489C157.745 149.778 156.095 140.642 153.005 139.499C149.914 138.356 129.852 129.231 126.001 132.839C122.151 136.447 124.001 139.499 124.001 139.499L117 160.589L157.005 195L192 185.931V185.276Z" fill="#FFE5E5" stroke="#FFE5E5" stroke-miterlimit="10"/>
    <path d="M126.04 131.43C127.55 131.43 127.55 129.09 126.04 129.09C124.53 129.09 124.53 131.43 126.04 131.43Z" fill="#280274"/>
    <path d="M80.6301 126.24C82.1401 126.24 82.1401 123.9 80.6301 123.9C79.1201 123.9 79.1201 126.24 80.6301 126.24Z" fill="#280274"/>
    <path d="M129.25 129.36C126.7 129.93 122.12 133.67 122.08 138.14L114.3 158.11" stroke="#280274" stroke-width="2.82" stroke-miterlimit="10"/>
    <path d="M144.42 140.13C142.8 143.61 140.81 146.08 140.6 145.32" stroke="#280274" stroke-width="2.59" stroke-miterlimit="10" stroke-linecap="round"/>
    <path d="M136.61 134.86C138 135.5 139.25 136.45 140.23 137.63" stroke="#280274" stroke-width="2.59" stroke-miterlimit="10" stroke-linecap="round"/>
    <path d="M127.08 163.19C130.98 169.37 128.81 183.25 129.85 175.21" stroke="#280274" stroke-width="2.91" stroke-miterlimit="10" stroke-linecap="round"/>
    <path d="M110.87 179.85C113.93 181.58 116.99 183.32 120.05 185.05" stroke="#280274" stroke-width="3.28" stroke-miterlimit="10" stroke-linecap="round"/>
    <path d="M200.89 240.03C200.79 239.56 193.05 215.25 167.13 225.16C166.96 225.48 166.79 225.8 166.59 226.11C161.93 233.54 150.64 234.26 144.18 228.66C138.77 223.96 137.65 214.86 142.25 209.36C148.19 202.26 146.39 198.32 136.7 199.71C128.52 200.88 120.27 201.61 112.01 201.9C106.79 202.08 97.2802 203.9 92.5702 201.03C88.4002 198.49 91.2602 191.92 90.0202 191.58C87.4702 190.87 71.7402 212.81 74.7202 237.05C77.8102 262.17 99.7502 279.77 119.03 286.55C138.32 293.33 163.71 292.36 180.91 278.17C197.58 264.41 202.47 247.63 200.88 240.03H200.89Z" fill="#280274" stroke="#280274" stroke-width="2.59" stroke-miterlimit="10" stroke-linecap="round"/>
    <path d="M225.55 161.52C229.33 162.76 233.19 164.04 236.33 166.41C237.75 167.48 239.02 168.78 240.65 169.52C242.58 170.4 244.8 170.41 246.94 170.41C253.75 170.4 280.25 172.41 281.8 170.61C283.35 168.81 310.23 152.61 325.8 152.61C350.8 152.61 516.8 172.61 516.8 172.61L514.73 290.63L309.4 287.61C309.4 287.61 288.5 287.61 288.5 260.61C288.5 230.61 310.3 231.89 318.2 231.6C344.92 230.61 478.79 244.61 478.79 244.61" stroke="#280274" stroke-width="2.9" stroke-miterlimit="10" stroke-linecap="round"/>
    <path d="M234.04 138.75C237.26 139.86 249.99 146.07 259.53 146.06C315.17 145.98 322.89 121.89 321.47 114.24C320.02 106.45 312.32 100.96 307.41 95.29" fill="#FFE5E5"/>
    <path d="M234.04 138.75C237.26 139.86 249.99 146.07 259.53 146.06C315.17 145.98 322.89 121.89 321.47 114.24C320.02 106.45 312.32 100.96 307.41 95.29" stroke="#280274" stroke-width="2.59" stroke-miterlimit="10"/>
    <path d="M78.7401 210.54C75.1901 212.43 73.5701 218.18 71.8001 221.62C67.2701 230.41 62.5901 239.39 55.3101 246.08C48.0301 252.77 37.4901 256.8 28.0801 253.76C13.3201 248.99 12.5401 230.3 6.37012 218.4" stroke="#280274" stroke-width="2.59" stroke-miterlimit="10"/>
    <path d="M73.6398 156.32C72.5598 150.85 72.6698 145.4 74.1698 140.01C74.4298 139.08 74.8098 138.29 75.2398 137.58C75.3598 137.18 75.4898 136.79 75.6398 136.4C75.9398 134.69 76.7298 133.14 77.8598 131.88L78.7398 65.93C63.3798 64.89 27.5498 81.63 18.9998 92.03C6.05983 107.75 -3.14017 214.71 3.51983 218.18C5.35983 219.14 7.30983 217.19 8.52983 215.52C36.5098 177.27 62.4198 171.57 76.7898 162.61C74.9198 161.57 74.1398 158.87 73.6298 156.32H73.6398Z" fill="#3652AD"/>
    <mask id="mask0_191_1333" style="mask-type:luminance" maskUnits="userSpaceOnUse" x="1" y="65" width="78" height="154">
    <path d="M73.6398 156.32C72.5598 150.85 72.6698 145.4 74.1698 140.01C74.4298 139.08 74.8098 138.29 75.2398 137.58C75.3598 137.18 75.4898 136.79 75.6398 136.4C75.9398 134.69 76.7298 133.14 77.8598 131.88L78.7398 65.93C63.3798 64.89 27.5498 81.63 18.9998 92.03C6.05983 107.75 -3.14017 214.71 3.51983 218.18C5.35983 219.14 7.30983 217.19 8.52983 215.52C36.5098 177.27 62.4198 171.57 76.7898 162.61C74.9198 161.57 74.1398 158.87 73.6298 156.32H73.6398Z" fill="white"/>
    </mask>
    <g mask="url(#mask0_191_1333)">
    <path d="M79.2001 140.85C79.2801 140.79 79.3701 140.75 79.4601 140.71L78.9101 140.94C79.1101 140.86 79.3201 140.81 79.5301 140.78L78.9201 140.86C79.3801 140.8 79.8501 140.82 80.3201 140.88L79.7101 140.8C80.3001 140.88 80.8801 141.03 81.4401 141.26L80.8901 141.03C81.1601 141.15 81.4201 141.28 81.6501 141.46L81.1801 141.1C81.2901 141.19 81.3901 141.28 81.4801 141.39L81.1201 140.92C81.1701 140.99 81.2201 141.06 81.2501 141.14L81.0201 140.59C81.0401 140.65 81.0601 140.7 81.0701 140.76L80.9901 140.15C80.9901 140.21 80.9901 140.27 80.9901 140.33L81.0701 139.72C81.0701 139.77 81.0501 139.82 81.0301 139.87L81.2601 139.32C81.2201 139.42 81.1601 139.5 81.1001 139.58L81.4601 139.11C81.4101 139.17 81.3501 139.23 81.2801 139.29L81.7501 138.93C81.6901 138.98 81.6201 139.01 81.5501 139.05L82.1001 138.82C82.0101 138.86 81.9201 138.88 81.8301 138.89L82.4401 138.81C82.3401 138.81 82.2501 138.81 82.1601 138.81L82.7701 138.89C82.6701 138.87 82.5801 138.85 82.4901 138.81L83.0401 139.04C82.9301 138.99 82.8301 138.93 82.7301 138.86L83.2001 139.22C83.1201 139.15 83.0501 139.08 82.9801 139L83.3401 139.47C83.2701 139.38 83.2101 139.28 83.1601 139.17L83.3901 139.72C83.3701 139.65 83.3501 139.59 83.3401 139.51L83.4201 140.12C83.4201 140.05 83.4201 139.98 83.4201 139.91L83.3401 140.52C83.3601 140.42 83.3901 140.34 83.4201 140.25L83.1901 140.8C83.2701 140.63 83.3701 140.48 83.4801 140.33L83.1201 140.8C83.2901 140.58 83.4801 140.38 83.6601 140.17C84.0701 139.71 84.3301 139.17 84.3301 138.54C84.3301 137.98 84.0801 137.3 83.6601 136.91C83.2401 136.52 82.6401 136.21 82.0301 136.24C81.4201 136.27 80.8001 136.46 80.4001 136.91C79.7801 137.62 79.1101 138.34 78.9001 139.29C78.5801 140.75 79.2801 142.1 80.5001 142.89C81.2901 143.4 82.4301 143.57 83.3201 143.25C84.3701 142.87 85.2401 142.05 85.5101 140.93C85.8801 139.38 84.9501 137.99 83.6501 137.25C82.6001 136.65 81.4601 136.4 80.2701 136.26C79.8401 136.21 79.4101 136.2 78.9701 136.24C78.2401 136.32 77.5001 136.44 76.8801 136.87C76.3801 137.21 75.9901 137.65 75.8201 138.25C75.6701 138.8 75.7401 139.54 76.0501 140.02C76.3601 140.5 76.8401 140.94 77.4301 141.08C78.0201 141.22 78.7001 141.2 79.2001 140.85Z" fill="#280274"/>
    </g>
    <path d="M180.8 28.61C195.05 17.02 224.41 11.31 240.14 21.88C252.24 30.01 252.56 29.67 263.05 39.67C280.34 56.17 308.33 95.13 308.33 95.13C295.32 93.77 287.92 95.27 267.21 111.92C257.55 119.69 254.94 111.27 213.1 111.27" fill="#3652AD"/>
    <path d="M236.44 111.34C243.26 94.63 247.49 69.43 239.42 52.54" stroke="#280274" stroke-width="2.59" stroke-miterlimit="10" stroke-linecap="round"/>
    <path d="M208.52 126.06C192.92 145.75 179.08 160.56 184.42 164.99C189.01 168.8 201.2 152.31 216.8 132.62" fill="#FFE5E5"/>
    <path d="M208.52 126.06C192.92 145.75 179.08 160.56 184.42 164.99C189.01 168.8 201.2 152.31 216.8 132.62" stroke="#280274" stroke-width="3.12" stroke-miterlimit="10" stroke-linecap="round"/>
    <path d="M216.35 133.45C203.58 149.57 192.67 162.04 197.37 165.92C202.47 170.14 211.86 156.13 224.63 140.01" fill="#FFE5E5"/>
    <path d="M216.35 133.45C203.58 149.57 192.67 162.04 197.37 165.92C202.47 170.14 211.86 156.13 224.63 140.01" stroke="#280274" stroke-width="2.82" stroke-miterlimit="10" stroke-linecap="round"/>
    <path d="M203.15 116.25C199.25 119.96 172.33 150.01 178.65 155.64C185.19 161.47 206.56 128.62 209.5 124.92" fill="#FFE5E5"/>
    <mask id="mask1_191_1333" style="mask-type:luminance" maskUnits="userSpaceOnUse" x="177" y="116" width="33" height="41">
    <path d="M203.15 116.25C199.25 119.96 172.33 150.01 178.65 155.64C185.19 161.47 206.56 128.62 209.5 124.92" fill="white"/>
    </mask>
    <g mask="url(#mask1_191_1333)">
    <path d="M180.01 153.38C180.18 150.7 183.41 146.95 184.99 145.01C186.84 142.75 188.62 140.43 190.48 138.19C187.94 142.78 184.74 147.05 182.45 151.8C182.31 149.67 184.55 146.56 185.54 144.65C186.29 143.19 187.11 141.38 188.14 140.1C187.54 141.37 186.39 142.5 185.7 143.78C184.95 145.15 184.34 146.55 183.46 147.86C182.75 148.92 182.56 149.77 182.03 150.89C181.57 151.86 180.5 152.19 179.9 152.94C179.18 153.86 179.27 154.78 180.79 154.7C181.72 154.65 182.65 153.62 183.12 152.94C185.82 149.07 188.76 145.61 190.28 140.99C188.1 140.71 184.4 145.54 182.92 146.92C181.44 148.3 180.01 150.5 178.32 151.42C182.26 144.69 186.17 138.14 190.89 131.89C192.51 129.74 194.23 127.46 196.23 125.66C197 124.97 198.21 123.53 199.23 123.55C197.77 128.39 192.36 133.36 188.86 136.78C186.1 139.46 183.32 141.86 180.87 144.84C185.08 139.58 188.46 133.75 192.95 128.66C194.68 126.7 196.59 124.86 198.44 123C199.07 122.36 199.84 121.42 200.68 121.24C200.35 122.71 199.37 124.02 198.71 125.35C196.65 129.51 194.58 133.58 192.24 137.6C189.96 141.53 187.94 145.72 185.49 149.53C186.33 146.08 189.39 142.72 191.35 139.86C193.84 136.23 196.31 132.65 199.16 129.28C201.69 126.3 204.87 123.52 207.02 120.26C206.84 122.7 203.9 125.74 202.53 127.87C200.88 130.45 199.37 133.12 197.78 135.75C196.6 137.71 195.49 139.63 194.16 141.49C197.66 135.52 202.65 130.61 206.17 124.73" fill="#FFE5E5"/>
    <path d="M182.51 153.38C182.48 153.71 182.64 152.92 182.64 152.92C182.77 152.52 182.69 152.72 182.87 152.32C183.11 151.79 183.42 151.28 183.73 150.79C184.4 149.73 185.16 148.74 185.95 147.77C188.06 145.18 190.12 142.54 192.25 139.96L188.32 136.93C185.75 141.53 182.61 145.79 180.29 150.54L184.95 151.8C184.92 150.33 186.27 148.43 187.09 147.01C188.18 145.13 188.98 143.09 190.3 141.36L185.98 138.84C185.16 140.43 183.93 141.75 183.1 143.35C182.17 145.14 181.03 146.84 180.26 148.7C180.03 149.26 179.93 149.67 179.48 150.05C178.75 150.67 178.06 151.1 177.56 151.94C176.6 153.56 176.82 155.76 178.59 156.73C182.59 158.94 185.36 154.09 187.26 151.45C189.47 148.39 191.47 145.27 192.69 141.67C193.24 140.04 191.8 138.6 190.28 138.51C187.41 138.33 184.94 141.13 183.17 143.03C182.34 143.92 181.49 144.79 180.65 145.68C179.5 146.88 178.51 148.42 177.06 149.28L180.48 152.7C183.49 147.56 186.54 142.44 189.91 137.53C191.5 135.22 193.14 132.94 194.91 130.77C195.78 129.71 196.69 128.68 197.68 127.73C198.08 127.35 198.48 126.96 198.89 126.58C199.06 126.42 199.25 126.28 199.4 126.12C199.63 125.88 200.1 125.99 199.23 126.07L196.82 122.91C195.57 126.83 192.23 130 189.38 132.81C185.93 136.2 182.21 139.37 179.11 143.09L182.65 146.63C185.86 142.6 188.65 138.27 191.73 134.15C193.19 132.2 194.77 130.34 196.46 128.58C197.37 127.63 198.31 126.7 199.24 125.78C199.69 125.33 200.15 124.88 200.59 124.42C200.79 124.22 201.08 123.78 201.36 123.68L198.28 120.6C197.99 121.68 197.38 122.59 196.85 123.57C196.22 124.73 195.66 125.93 195.06 127.11C193.81 129.59 192.52 132.06 191.16 134.49C188.58 139.1 186.17 143.84 183.34 148.3L187.91 150.23C188.63 147.53 190.5 145.26 192.14 143.06C193.96 140.61 195.63 138.05 197.43 135.58C199.23 133.11 201.14 130.78 203.23 128.56C205.32 126.34 207.47 124.11 209.19 121.55L204.53 120.29C204.41 121.34 202.97 123.12 202.19 124.16C201.09 125.63 200.06 127.12 199.11 128.7C196.77 132.56 194.62 136.57 192.02 140.26L196.34 142.78C199.86 136.85 204.78 131.91 208.35 126.02C210.02 123.26 205.7 120.75 204.03 123.5C200.46 129.39 195.55 134.34 192.02 140.26C190.35 143.07 194.51 145.38 196.34 142.78C199.13 138.82 201.39 134.51 203.93 130.39C205.95 127.13 209.08 124.26 209.53 120.28C209.65 119.21 208.67 118.14 207.69 117.87C206.58 117.56 205.49 118.09 204.87 119.02C203.23 121.46 201.1 123.5 199.1 125.64C196.83 128.08 194.79 130.72 192.83 133.42C191.01 135.94 189.3 138.53 187.45 141.02C185.6 143.51 183.87 145.94 183.09 148.89C182.35 151.67 186.15 153.2 187.66 150.82C190.57 146.23 193.07 141.34 195.71 136.59C197.06 134.16 198.34 131.69 199.59 129.2C200.77 126.86 202.43 124.46 203.1 121.92C203.57 120.16 201.88 118.23 200.02 118.84C197.6 119.64 195.79 122.11 194.05 123.87C192.12 125.82 190.29 127.86 188.61 130.03C185.31 134.28 182.46 138.86 179.1 143.08C178.26 144.14 178.07 145.58 179.1 146.62C179.99 147.51 181.77 147.66 182.64 146.62C185.91 142.7 189.85 139.4 193.46 135.8C196.78 132.48 200.19 128.79 201.65 124.23C202.11 122.78 200.84 120.92 199.24 121.07C196.53 121.31 194.38 123.82 192.66 125.74C190.49 128.16 188.56 130.83 186.68 133.48C182.87 138.85 179.51 144.51 176.18 150.18C174.92 152.33 177.44 154.88 179.6 153.6C181.13 152.69 182.27 151.38 183.43 150.06C184.24 149.15 185.12 148.31 185.94 147.41C186.83 146.44 187.71 145.47 188.69 144.58C189.14 144.17 189.3 144.04 189.76 143.74C189.86 143.68 190.38 143.3 190.01 143.56C190.14 143.51 190.27 143.47 190.41 143.44C190.06 143.48 190.03 143.5 190.3 143.5L187.89 140.34C187.02 142.89 185.6 145.19 184.06 147.39C183.29 148.49 182.5 149.56 181.72 150.65C181.4 151.1 181.04 151.53 180.76 151.93C180.25 152.67 180.71 151.77 181.32 152.53L181.96 153.63C182.29 154.52 181.51 154.56 182.15 154.27C182.71 154.01 183.24 153.44 183.63 152.97C184.6 151.8 184.95 150.22 185.75 148.93C186.55 147.64 187.18 146.2 187.96 144.87C188.67 143.65 189.65 142.62 190.3 141.36C190.95 140.1 190.61 138.65 189.4 137.94C188.11 137.19 186.8 137.76 185.98 138.84C184.52 140.74 183.62 143.03 182.41 145.09C181.2 147.15 179.9 149.37 179.94 151.8C179.98 154.23 183.46 155.39 184.6 153.06C186.91 148.32 190.06 144.05 192.63 139.45C193.23 138.37 192.99 136.97 191.99 136.22C191.07 135.53 189.51 135.44 188.71 136.42C186.37 139.25 184.08 142.12 181.8 144.99C179.83 147.48 177.83 150.13 177.51 153.38C177.37 154.73 178.76 155.88 180.01 155.88C181.47 155.88 182.37 154.73 182.51 153.38Z" fill="#FFE5E5"/>
    <path d="M205.46 119.06C204.67 122.05 202.1 125.33 200.44 127.99C198.54 131.04 196.74 134.05 194.51 136.69C193.13 138.32 192.55 140.4 191.37 142.16C189.9 144.35 187.92 146.27 186.02 148.07C187.14 146.45 188.96 145.36 190.42 144.08C191.55 143.09 192.63 141.47 194.08 140.93C194.06 142.54 191.73 144.12 190.65 145.29C189.64 146.38 188.5 147.32 187.48 148.39C189.66 145.03 192.97 142.31 195.37 139.05C192.58 141.62 189.99 144.58 187.28 147.27" fill="#FFE5E5"/>
    <path d="M203.05 118.39C202.34 120.86 200.73 123.01 199.32 125.12C197.69 127.57 196.23 130.13 194.55 132.54C193.7 133.76 192.68 134.86 191.84 136.09C191.09 137.19 190.58 138.43 189.96 139.61C188.58 142.22 186.37 144.27 184.26 146.29L188.19 149.32C189.19 147.96 190.79 147.05 192.05 145.96C193.16 145 193.97 143.67 195.35 143.08L191.59 140.92C191.61 140.72 191.01 141.49 190.88 141.63C190.38 142.13 189.84 142.59 189.33 143.08C188.12 144.24 186.9 145.41 185.74 146.61L189.67 149.64C191.93 146.24 195.11 143.57 197.56 140.3C198.3 139.32 197.82 137.75 196.92 137.07C195.91 136.31 194.57 136.4 193.64 137.27C190.82 139.89 188.27 142.78 185.55 145.49C183.27 147.76 186.8 151.3 189.09 149.03C191.81 146.31 194.37 143.43 197.18 140.81L193.25 137.78C190.8 141.05 187.64 143.69 185.36 147.12C183.78 149.5 187.33 152.17 189.29 150.15C190.69 148.7 192.16 147.29 193.64 145.92C195.12 144.55 196.41 143.06 196.61 140.92C196.81 138.78 194.39 138.1 192.85 138.76C191.06 139.53 189.97 141.19 188.54 142.42C186.89 143.85 185.21 145 183.9 146.79C182.17 149.14 185.84 151.71 187.83 149.82C190.09 147.66 192.43 145.41 194.01 142.68C194.75 141.41 195.25 140 196.08 138.78C196.95 137.49 198.01 136.33 198.9 135.05C200.63 132.58 202.12 129.96 203.78 127.46C205.44 124.96 207.09 122.55 207.9 119.7C208.79 116.6 203.96 115.28 203.08 118.37L203.05 118.39Z" fill="#FFE5E5"/>
    <path d="M204.01 118.62C201.4 123.92 195.86 127.32 192.47 132.12C190.58 134.8 189.4 137.86 187.89 140.73C186.56 143.26 185.46 145.92 183.9 148.32C183.06 149.61 182.59 149.47 181.32 150.33C180.18 151.09 179.61 152.42 179.13 153.63C178.87 152.41 180.47 150.38 181.01 149.33C182.28 146.85 183.79 144.45 185.31 142.09C187.45 138.76 189.85 135.51 192.16 132.29C194.97 128.38 197.56 124.2 201.54 121.38" fill="#FFE5E5"/>
    <path d="M201.85 117.36C200.23 120.55 197.61 122.95 195.09 125.44C192.39 128.1 190.03 130.91 188.28 134.3C186.44 137.88 184.82 141.58 182.89 145.12C182.49 145.85 182.11 146.76 181.5 147.34C181.74 147.11 181.16 147.52 181.06 147.58C180.72 147.77 180.38 147.95 180.05 148.17C178.31 149.36 177.47 151.07 176.71 152.97L181.62 153.63C181.56 153.12 181.46 153.84 181.64 153.25C181.66 153.17 181.85 152.8 181.92 152.67C182.2 152.15 182.54 151.65 182.84 151.14C183.63 149.82 184.31 148.44 185.1 147.11C186.93 144.06 188.9 141.1 190.96 138.2C192.87 135.52 194.78 132.83 196.7 130.16C198.44 127.73 200.35 125.3 202.79 123.53C203.88 122.74 204.42 121.36 203.69 120.11C203.06 119.03 201.37 118.42 200.27 119.21C197.37 121.31 195.1 123.92 192.99 126.8C190.88 129.68 188.75 132.71 186.64 135.68C184.53 138.65 182.34 141.92 180.42 145.19C179.63 146.54 178.93 147.94 178.11 149.27C177.34 150.53 176.43 152.07 176.61 153.62C176.95 156.45 180.45 156.98 181.52 154.28C181.76 153.68 182.03 153 182.5 152.55C182.97 152.1 183.6 151.91 184.12 151.57C185.67 150.56 186.56 148.82 187.41 147.23C189.3 143.67 190.92 139.97 192.79 136.41C194.5 133.17 196.85 130.68 199.45 128.13C202.05 125.58 204.53 123.07 206.16 119.87C207.61 117.01 203.3 114.47 201.84 117.35L201.85 117.36Z" fill="#FFE5E5"/>
    <path d="M206.91 123.42C207.1 124.67 206.1 126.07 205.52 127.09C203.68 130.31 200.88 132.73 198.26 135.3C195.85 137.67 193.67 140.26 191.28 142.62C189.12 144.75 187.48 146.43 185.83 148.98C184.12 151.62 182.62 152.41 179.86 153.67" fill="#FFE5E5"/>
    <path d="M204.41 123.42C204.49 124.62 203.21 126.14 202.57 127.09C201.62 128.48 200.43 129.7 199.23 130.88C196.63 133.45 194.09 136.05 191.59 138.71C189.22 141.23 186.67 143.54 184.62 146.34C183.8 147.46 183.14 148.69 182.07 149.59C181.16 150.36 179.78 150.96 178.61 151.5C177.38 152.06 177.08 153.84 177.71 154.92C178.45 156.18 179.9 156.38 181.13 155.82C182.64 155.12 184.09 154.39 185.37 153.32C186.65 152.25 187.53 150.88 188.46 149.52C190.51 146.56 193.31 144.19 195.75 141.56C198.41 138.69 201.27 136.03 203.95 133.19C205.25 131.81 206.47 130.32 207.46 128.7C208.45 127.08 209.54 125.35 209.41 123.4C209.32 122.05 208.33 120.9 206.91 120.9C205.63 120.9 204.32 122.05 204.41 123.4V123.42Z" fill="#FFE5E5"/>
    <path d="M203.71 117.75C202.21 120.95 199.73 123.53 197.67 126.36C194.63 130.53 191.75 134.81 188.69 138.96C186.5 141.93 183.92 145.03 182.18 148.3C181.63 149.32 181.38 150.31 181.31 151.49" fill="#FFE5E5"/>
    <path d="M201.56 116.49C200.14 119.42 197.97 121.85 196.02 124.43C193.81 127.35 191.76 130.4 189.64 133.39C187.52 136.38 185.38 139.18 183.25 142.08C181.12 144.98 179.1 147.85 178.81 151.5C178.7 152.85 180.04 154 181.31 154C182.75 154 183.7 152.85 183.81 151.5C183.93 150.04 184.7 148.84 185.47 147.63C186.37 146.2 187.37 144.84 188.39 143.49C190.47 140.73 192.52 137.95 194.51 135.12C196.47 132.34 198.38 129.49 200.45 126.79C202.38 124.28 204.47 121.89 205.87 119.01C206.46 117.8 206.2 116.31 204.97 115.59C203.87 114.95 202.14 115.27 201.55 116.49H201.56Z" fill="#FFE5E5"/>
    </g>
    <path d="M203.15 116.25C199.25 119.96 172.33 150.01 178.65 155.64C185.19 161.47 206.56 128.62 209.5 124.92" fill="#FFE5E5"/>
    <path d="M203.15 116.25C199.25 119.96 172.33 150.01 178.65 155.64C185.19 161.47 206.56 128.62 209.5 124.92" stroke="#280274" stroke-width="2.54" stroke-miterlimit="10" stroke-linecap="round"/>
    <path d="M224.64 140.01C222.8 143.86 206.72 168.26 215.94 165.83C220.14 164.72 228.17 151.75 230.75 147.18C239.04 132.46 234.83 113.95 213.9 111.41" fill="#FFE5E5"/>
    <path d="M224.64 140.01C222.8 143.86 206.72 168.26 215.94 165.83C220.14 164.72 228.17 151.75 230.75 147.18C239.04 132.46 234.83 113.95 213.9 111.41" stroke="#280274" stroke-width="2.54" stroke-miterlimit="10" stroke-linecap="round"/>
    <path d="M200.98 118.49C192.1 121.55 181.57 130.42 183.26 123.41C184.46 118.44 193.6 106.91 213.11 111.27" fill="#FFE5E5"/>
    <path d="M200.98 118.49C192.1 121.55 181.57 130.42 183.26 123.41C184.46 118.44 193.6 106.91 213.11 111.27" stroke="#280274" stroke-width="2.59" stroke-miterlimit="10" stroke-linecap="round"/>
    <path d="M90.04 191.58C90.04 191.58 89.33 185.8 93.3 179.85C96.79 174.61 96.79 175.61 96.79 175.61" stroke="#280274" stroke-width="2.59" stroke-miterlimit="10"/>
    <path d="M352.8 188.61C354.457 188.61 355.8 187.267 355.8 185.61C355.8 183.953 354.457 182.61 352.8 182.61C351.143 182.61 349.8 183.953 349.8 185.61C349.8 187.267 351.143 188.61 352.8 188.61Z" fill="#280274" stroke="#280274" stroke-width="2.83" stroke-miterlimit="10" stroke-linecap="round"/>
    <path d="M80.0001 168.49C84.5901 169.97 112.05 175.78 110.24 183.78C108.35 192.11 81.8301 180.28 77.8701 178.94" stroke="#280274" stroke-width="2.82" stroke-miterlimit="10" stroke-linecap="round"/>
    <path d="M62.9502 150.67C63.9002 149.53 65.7302 145.87 67.5602 145.87C85.8602 142.21 102.32 155.02 118.79 160.51C120.62 162.34 122.45 166 118.79 166C105.98 167.83 93.1702 162.34 81.0102 157.61" stroke="#280274" stroke-width="2.54" stroke-miterlimit="10" stroke-linecap="round"/>
    <path d="M61.7998 181.61C65.8398 185.83 91.8798 201.18 96.6998 194.02C100.49 188.39 79.2598 180.7 76.3698 179.13" stroke="#280274" stroke-width="2.54" stroke-miterlimit="10" stroke-linecap="round"/>
    <path d="M116.8 124.61C115.22 126.76 117.51 132.41 121.6 133.21C135.01 135.82 147.37 132.41 148.18 127.41" fill="#FFE5E5"/>
    <path d="M208.8 90.61C205.06 106.7 193.4 111.86 177.05 120.38C162.46 127.98 143.72 127.77 125.8 123.61C90.58 115.42 67.95 90.91 75.56 58.16C83.17 25.41 117.89 5.5 153.11 13.69C170.05 17.63 172.72 19.67 191.8 43.61C202.29 56.77 212.75 73.61 208.8 90.61Z" fill="#FFE5E5"/>
    <mask id="mask2_191_1333" style="mask-type:luminance" maskUnits="userSpaceOnUse" x="74" y="11" width="136" height="116">
    <path d="M208.8 90.61C205.06 106.7 193.4 111.86 177.05 120.38C162.46 127.98 143.72 127.77 125.8 123.61C90.58 115.42 67.95 90.91 75.56 58.16C83.17 25.41 117.89 5.5 153.11 13.69C170.05 17.63 172.72 19.67 191.8 43.61C202.29 56.77 212.75 73.61 208.8 90.61Z" fill="white"/>
    </mask>
    <g mask="url(#mask2_191_1333)">
    <path d="M89.3403 47.21C88.6003 48.89 87.6803 50.47 86.5003 51.88C85.9503 52.54 84.8803 53.17 84.4803 53.89L83.7103 54.36C84.4003 53.54 85.4203 53.77 86.7703 55.07C86.8303 55.02 86.5403 50.87 86.9103 49.65C87.7103 47.08 89.3703 44.76 91.0903 42.73C94.6903 38.47 99.0903 34.96 103.27 31.29C107.45 27.62 112.91 21.81 119 21.2C117.1 17.89 115.2 14.57 113.3 11.26C111.15 14.79 107.04 16.89 103.77 19.23C99.7003 22.14 96.0903 25.46 92.7703 29.2C89.4503 32.94 86.0503 37.38 83.6003 42.03C80.7703 47.39 80.5203 52.52 79.2703 58.28C77.4903 66.57 90.2203 70.11 92.0103 61.79C93.1203 56.63 93.1103 51.94 95.8003 47.25C98.4903 42.56 101.8 38.65 105.53 34.93C111.6 28.86 120.12 25.46 124.71 17.93C127.14 13.95 124.07 7.47999 119.01 7.98999C107.89 9.09999 100.12 16.6 92.0303 23.6C84.9803 29.71 77.3903 36.36 74.3903 45.52C71.8603 53.23 73.6703 66.94 84.0603 67.38C91.5203 67.7 98.0303 60.14 100.76 53.89C104.13 46.17 92.7503 39.44 89.3503 47.22L89.3403 47.21Z" fill="#280274"/>
    <path d="M143.56 117.82C144.35 113.01 144.35 108.44 143.93 103.59L130.95 105.35C131.25 107.52 130.95 109.84 130.85 112.01C130.49 119.8 141.48 120.5 143.83 113.77C146.78 105.31 149.41 96.57 148.53 87.51C148.11 83.12 143.02 78.5 138.59 81.81C132.12 86.63 130.75 93.24 126.93 99.88L139.01 101.46C135.68 88.87 135.61 75.88 134.42 62.99L121.44 64.75C122.77 70.46 120.52 76.36 119.82 82.02C119.44 85.09 120.01 90.18 117.58 92.42L128.62 95.34C126.89 89.53 126.7 83.71 126.17 77.72C125.71 72.52 123.8 66.88 125.06 61.7L114.02 64.62C117.31 67.69 117.88 72.76 118.89 76.95C120.51 83.74 122.21 90.44 122.49 97.45L135.47 95.69C134.74 91.68 134.78 87.6 135.1 83.55C135.29 81.22 136.66 77.49 136.13 75.17C130.99 78.25 128.58 78.58 128.91 76.15C128.95 75.82 129.12 76.07 129.42 76.91C129.72 77.8 130.41 78.69 130.82 79.55C131.61 81.18 132.25 82.87 132.98 84.52C135.04 89.16 142.14 88.49 144.39 84.52C145.54 82.5 146.3 80.44 146.99 78.22H134.25C134.58 79.81 134.66 81.32 134.39 82.93H147.13C145.86 75.83 145.98 68.58 145.52 61.41C145.29 57.77 144.92 54.13 144.32 50.54C143.89 47.98 141.92 43.87 143 41.46L139.05 44.5C140.03 44.16 145.51 41.94 141.05 43.5L132.92 38.89C135.14 44.26 132.83 50 132.34 55.57C131.92 60.27 138.39 64.22 142.28 61.27C146.69 57.93 150.21 53.85 154.3 50.17L144.96 40.83C143.21 42.54 141.53 44.7 139.12 45.44C140.82 49.47 142.51 53.49 144.21 57.52C145.81 56.32 146.79 54.65 148.24 53.46C146.69 54.74 150.15 52.69 150.48 52.48C153.65 50.49 156.7 48.35 159.63 46.02C165.26 41.52 169.87 35.99 173 29.47C174.37 26.61 174.02 23.85 171.97 21.46C163.19 11.26 145.33 12.37 133.2 13.08C119.22 13.89 103.99 16.4 92.2702 24.57C81.9302 31.78 70.1302 42.13 66.3102 54.5C63.5102 63.58 67.2202 84.65 81.2202 77.54C93.3402 71.38 96.6902 57.27 103.87 46.85L91.7902 41.76C90.0402 53.83 87.7902 65.8 84.6502 77.59L97.3902 81.1C98.8502 74.08 100.64 67.07 103.68 60.55C104.41 58.98 105.91 57.09 106.28 55.43L107.11 53.95C103.17 53.09 101.85 53.54 103.17 55.31C103.4 57.94 105.03 61.54 105.9 64.02C107.62 68.88 115.33 71.13 117.98 65.6C122.69 55.73 125.26 45.23 128.41 34.8C130.91 26.53 118.6 23.46 115.67 31.29C112.54 39.66 109.82 48.11 105.25 55.84L117.33 60.93C119.42 48.86 124.81 38.11 131.9 28.22L120.49 21.55C118.22 24.86 115.51 27.65 112.43 30.22C111.28 31.18 110.11 32.09 108.86 32.9C108.52 33.12 107.37 33.54 107.19 33.92C106.52 35.28 111.29 36.81 110.66 37.16C111.13 36.9 109.82 38.51 110.72 37.25C110.99 36.87 111.04 36.03 111.21 35.58C111.58 34.6 112.1 33.69 112.63 32.79C113.16 31.89 113.69 31.04 114.35 30.26C115.01 29.48 116.59 28.63 114.89 29.25L106.76 24.64C106.89 25.59 104.13 29.46 102.75 31.02C100.68 33.37 98.3402 35.48 95.8902 37.42C99.0002 40.53 102.12 43.65 105.23 46.76C106.33 45.81 107.1 44.64 108.03 43.54C108.21 43.32 109 42.63 109.04 42.38C109.76 41.74 109.39 41.79 107.94 42.51L105.94 40.37C105.47 41.06 107.4 43.95 107.76 44.43C108.89 45.92 110.46 47.05 112.29 47.55C121.82 50.18 127.57 38.75 134.63 34.82L129.54 35.49C127.58 32.83 126.93 32.65 127.6 34.97C127.66 36.07 127.66 37.17 127.58 38.27C127.42 40.51 126.92 42.69 126.45 44.87C125.5 49.27 124.53 53.6 124.13 58.09C123.45 65.75 134.98 66.7 137.11 59.85C139.24 53 140.93 45.89 141.41 38.59C141.83 32.33 134.16 30.61 130.13 33.92C125.3 37.89 123.34 43.74 119.32 48.3L129.7 49.64C129.31 48.73 132.56 43.58 133.15 42.39L121.74 35.72C119.45 40.62 117.19 45.5 114.24 50.04C110.56 55.71 117.74 62.3 123.28 59.08C133.57 53.1 145.45 50.75 156.28 45.96C161.24 43.77 159.86 37.08 156.28 34.55C151.67 31.29 144.64 33.95 144.8 40.14C144.94 45.74 151.63 49.54 156.28 45.96C160.47 42.73 160.48 37.77 156.28 34.55C154.93 33.52 150.51 30.14 148.91 30.22C145.76 34.71 145.49 36.51 148.1 35.64C148.5 35.68 148.89 35.68 149.29 35.64C150.16 35.65 150.53 35.66 151.4 35.95V23.21C146.61 25.1 141.69 24.42 136.67 24.1C128.17 23.56 128.23 36.74 136.67 37.31C144.31 37.83 151.62 38.34 159.22 36.98C165.47 35.86 164.81 27.93 160.8 24.9C158.59 23.24 155.92 21.94 153.09 22.89C150.03 23.92 148.6 26.19 148.24 29.26C147.58 34.84 154.58 38.54 159.22 36.97C164.85 35.08 165.47 28.2 160.8 24.89C151 17.96 140.79 11.12 128.74 9.02999C129.71 12.71 130.68 16.39 131.66 20.07L125.47 19.74L123.53 15.07V15.35C124.17 13.79 124.82 12.24 125.46 10.68L128.74 9.02999C129.27 13.06 129.79 17.08 130.32 21.11C134.66 18.79 139.23 19.68 141.94 23.9C146.52 31.03 157.96 24.42 153.35 17.23C146.68 6.82999 134.49 3.89999 123.65 9.69999C118.85 12.27 119.63 20.69 125.23 21.78C130.83 22.87 139.41 20.2 136.18 12.53C133.65 6.52999 126.54 7.17999 122.32 10.74C118.69 13.8 120.49 20.96 125.24 21.78C136.22 23.68 145.22 29.99 154.14 36.3C154.67 32.27 155.19 28.25 155.72 24.22C157.63 25.9 159.55 27.57 161.46 29.25L156.61 35.62C152.83 34.79 152.01 35.01 154.14 36.3C154.67 32.27 155.19 28.25 155.72 24.22C149.43 25.35 143.01 24.51 136.69 24.08V37.29C142.87 37.68 149.03 38.25 154.93 35.92C160.83 33.59 161.47 25.35 154.93 23.18C148.83 21.16 138.88 22.36 136.54 29.33C133.45 38.57 144.15 41.73 149.62 45.93V34.52L158.05 39.76L154.78 45.46L155.03 45.27L149.94 45.94H149.63V34.52C138.75 39.33 127.01 41.61 116.63 47.64C119.64 50.65 122.66 53.67 125.67 56.68C128.62 52.14 130.87 47.25 133.17 42.36C136.73 34.75 125.61 28.03 121.76 35.69C118.35 42.48 115.1 48.79 118.31 56.28C119.95 60.1 126.12 60.54 128.69 57.62C132.66 53.11 134.83 47.07 139.5 43.24L128.22 38.57C127.82 44.67 126.2 50.5 124.39 56.32L137.37 58.08C138.22 48.62 142.51 39.59 140.14 29.95C139.17 26.01 136.42 23.04 132.2 22.62C127.77 22.18 123.72 26.03 120.72 28.89C119.3 30.24 117.99 31.71 116.51 32.99C116.24 33.23 114.37 34.4 114.32 34.66C114.45 33.89 118.8 37.56 118.88 37.48C119.38 37 117.43 34.02 117 33.49C115.86 32.07 114.3 31.11 112.64 30.38C109.19 28.86 105.31 29.02 102.1 31.06C99.5002 32.71 98.1902 35.46 95.9202 37.41C89.3802 43.03 98.7402 51.93 105.26 46.75C113.14 40.5 120.99 31.82 119.53 21.12C119.07 17.76 114.43 15.41 111.4 16.51C103.08 19.54 93.6902 34.2 98.9302 42.79C107.63 57.04 126.93 35.51 131.93 28.22C136.78 21.15 125.41 14.73 120.52 21.55C112.85 32.25 106.88 44.37 104.62 57.42C103.4 64.47 112.66 69.34 116.7 62.51C121.83 53.82 124.93 44.21 128.45 34.8L115.71 31.29C112.91 40.57 110.8 50.15 106.61 58.93L118.69 60.51C116.96 55.62 116.27 50.35 112.92 46.2C109.21 41.61 103.2 39.68 98.3202 43.93C94.1202 47.59 91.7702 54.75 89.7602 59.82C87.4802 65.57 85.9402 71.54 84.6902 77.58C82.9802 85.84 95.2202 89.38 97.4302 81.09C100.57 69.3 102.82 57.33 104.57 45.26C105.63 37.98 96.9602 33.7 92.4902 40.17C89.5202 44.48 87.3302 49.19 84.9002 53.81C83.7502 55.99 82.5702 58.19 81.1502 60.21C79.7302 62.23 77.7702 63.41 76.3002 65.17C74.5202 65.89 74.8302 66.22 77.2102 66.18C79.2102 67.09 79.7402 66.89 78.8002 65.56C78.8802 65.21 78.3102 63.25 78.3002 62.83C78.2002 60.24 79.0302 57.62 80.1502 55.32C82.7302 50.05 87.6402 45.94 91.8602 41.96C101.57 32.8 112.75 28.57 125.93 26.93C132.45 26.12 139.06 25.93 145.61 26.17C151.22 26.38 158.66 26.17 162.64 30.8C162.3 28.13 161.95 25.46 161.61 22.79C158.95 28.34 155.26 32.81 150.4 36.58C148.11 38.35 145.66 39.92 143.2 41.45C141.91 42.26 140.48 42.95 139.31 43.93C138.78 44.38 135.54 47.61 137.56 46.09C132.01 50.25 134.9 60.55 142.65 58.17C147.45 56.69 150.79 53.6 154.32 50.16C160.44 44.18 151.27 35.16 144.98 40.82C141.77 43.7 139.07 47.25 135.63 49.86L145.57 55.56C146.19 48.58 148.51 42.21 145.68 35.37C144.39 32.25 141.26 29.46 137.55 30.76C136.48 31.14 135.53 31.64 134.56 32.2C131.93 33.71 137.39 30.51 134.76 32.09C132.36 33.53 131.28 35.06 130.35 37.68C128.39 43.19 130.46 47.7 131.42 53.16C133.35 64.16 132.41 75.44 134.39 86.46C135.51 92.72 146.08 92.81 147.13 86.46C147.81 82.35 147.84 78.81 146.99 74.72C145.59 68.04 136.07 68.84 134.25 74.72C134 75.84 133.58 76.88 132.99 77.86H144.4C145.11 79.47 144.21 77.4 144.07 77.07C143.61 75.98 143.16 74.87 142.66 73.79C141.85 72.02 140.96 70.34 139.82 68.76C137.07 65 132.39 62.49 127.9 65.14C123.41 67.79 123.17 73.08 122.57 77.73C121.64 85 121.43 91.96 122.74 99.2C124.05 106.44 136.02 104.83 135.72 97.44C135.37 88.85 133.36 80.59 131.37 72.27C129.89 66.09 128.19 59.75 123.38 55.27C119.87 52 113.55 53.18 112.34 58.19C110.72 64.88 112.36 71.04 112.98 77.72C113.65 84.86 113.84 91.92 115.9 98.85C117.36 103.74 123.27 105.14 126.94 101.77C131.9 97.21 132.09 90.71 132.78 84.47C133.66 76.49 136.07 69.31 134.2 61.24C132.55 54.13 120.53 55.48 121.22 63C122.52 77.05 122.66 91.26 126.28 104.98C127.73 110.47 135.54 111.46 138.36 106.56C140.56 102.74 141.63 95.95 145.28 93.23L135.34 87.53C136.11 95.49 133.7 102.86 131.11 110.28L144.09 112.04C144.25 108.56 144.19 105.32 143.71 101.86C142.7 94.55 130.08 96.2 130.73 103.62C131.04 107.16 131.42 110.81 130.84 114.33C129.47 122.65 142.2 126.23 143.58 117.84L143.56 117.82Z" fill="#280274"/>
    <path d="M139.7 114.36C139.42 113.36 139.17 112.36 138.98 111.34C138.94 111.11 138.89 110.87 138.86 110.63C138.97 111.52 139 111.71 138.95 111.2C138.93 110.64 138.87 110.09 138.87 109.53L126.56 112.86C127.19 114.22 126.2 111.8 126.67 113.09C126.86 113.63 127.07 114.17 127.26 114.71C127.61 115.72 127.93 116.74 128.25 117.76C129.3 121.05 132.88 123.51 136.38 122.37C139.67 121.31 142.13 117.77 140.99 114.24C140.11 111.49 139.18 108.81 137.97 106.18C136.76 103.55 133.07 102.31 130.51 103.14C127.76 104.03 125.61 106.52 125.66 109.51C125.7 112.32 126.22 115.14 126.97 117.85C127.89 121.18 131.7 123.56 135.1 122.46C138.5 121.36 140.7 117.9 139.71 114.33L139.7 114.36Z" fill="#280274"/>
    <path d="M85.4702 69.05C85.7602 69.81 85.8402 70.6 85.7002 71.4L96.7402 68.48C96.1602 67.96 96.3602 66.65 96.3702 65.92C96.3902 65.18 96.4302 64.45 96.5102 63.71C96.5902 64.11 96.4402 64.41 96.0702 64.62L90.9802 65.29C93.0102 65.97 88.4402 60.96 88.5302 61.09C88.6202 61.21 87.6002 62.48 87.6302 62.44L92.3002 60.5C86.9802 60.54 81.5502 62.22 80.0602 68.03C78.7902 73.02 79.2002 79.17 78.8902 84.32C78.1902 95.76 80.0602 107.04 89.2102 114.82C92.0502 117.24 97.7802 117.72 99.5902 113.48C102.1 107.57 100.02 99.4 92.2302 99.51C89.0002 99.55 85.9302 101.78 85.1202 104.95C84.1102 108.88 86.5202 112.26 89.2202 114.82C92.9502 118.35 98.6802 116.65 100.26 111.9C104.47 99.23 101.13 86.88 99.6702 74.09L86.6902 75.85C87.0402 77.51 87.3602 79.18 87.7702 80.84C89.5302 88 101.07 86.59 100.75 79.08C100.65 76.84 99.9202 74.5 99.4302 72.34L86.6902 75.85C91.2102 89.59 96.4902 103.07 103.27 115.86C106.73 122.4 117.76 117.92 115.35 110.77C110.25 95.67 103.08 81.22 100.69 65.33C97.0102 67.47 93.3302 69.62 89.6502 71.76C98.9002 81.33 104 93.81 111.35 104.75C115.3 110.64 125.94 107.15 123.43 99.66C119.31 87.38 112.91 75.99 109.57 63.44L97.4902 68.53C103.75 76.91 107.8 86.61 113.06 95.6C117.08 102.47 126.26 97.56 125.14 90.51C124.08 83.87 120.64 77.76 119.89 71.09L107.58 74.42C112.67 85.25 114.2 97.31 120.22 107.79C124.04 114.43 133.93 109.9 132.3 102.7C131.19 97.82 128.53 93.75 125.1 90.17C120.59 85.48 112.09 90.28 114.06 96.6C116.78 105.32 121.26 113.11 125.92 120.91C130.28 128.2 141.71 121.57 137.33 114.24C133.27 107.44 129.17 100.7 126.8 93.09C123.12 95.23 119.44 97.38 115.76 99.52C117.7 101.54 118.94 103.48 119.56 106.22L131.64 101.13C125.68 90.76 124.07 78.56 119 67.76C116.29 62 105.96 64.64 106.69 71.09C107.59 79.06 111.16 86.16 112.41 94.03L124.49 88.94C119.23 79.95 115.18 70.25 108.92 61.87C104.67 56.19 94.7802 59.22 96.8402 66.96C100.18 79.51 106.57 90.91 110.7 103.18L122.78 98.09C114.78 86.17 109.11 72.87 99.0202 62.42C94.0102 57.23 87.0702 62.81 87.9802 68.85C90.3702 84.75 97.5302 99.19 102.64 114.29L114.72 109.2C108.47 97.39 103.65 85.02 99.4802 72.35C96.8302 64.28 84.8602 67.53 86.7402 75.86C86.9902 76.98 87.1802 78.13 87.4902 79.23C87.6902 79.96 87.7002 81.73 87.5802 79.09L100.56 77.33C100.16 75.68 99.8302 74.01 99.4802 72.34C97.9802 65.17 85.6502 66.63 86.5002 74.1C87.8102 85.53 91.3202 97.11 87.5602 108.4L98.6002 105.48C96.0402 102.53 92.5802 102.98 88.2202 106.82L98.6002 105.48C91.2402 99.22 91.6702 90.54 92.3402 81.62C92.4902 79.62 92.6702 77.62 92.7902 75.62C92.8502 74.64 93.1502 73.35 92.9402 72.38V71.11C90.4402 72.77 89.8102 73.64 91.0602 73.71C92.7302 74.8 96.3102 72.48 97.3002 71.46C98.7102 70.01 99.7702 68.2 100.58 66.36C102.2 62.68 102.65 58.08 99.5602 54.97C96.4702 51.86 90.7902 51.56 87.4502 54.57C81.5002 59.92 81.5702 72.51 87.4502 77.83C90.8602 80.91 97.4902 80.08 98.4902 74.91C99.1202 71.63 98.9802 68.8 98.2602 65.53C96.4502 57.23 83.7102 60.74 85.5202 69.04L85.4702 69.05Z" fill="#280274"/>
    <path d="M115.06 106.96C114.38 110.5 115.7 113.7 116.69 117.03L119.2 115.57C119.04 115.41 118.89 115.25 118.74 115.08C118.66 114.99 118.58 114.9 118.51 114.8C118.47 114.75 118.3 114.54 118.42 114.69C118.08 114.25 117.77 113.78 117.47 113.31C116.79 112.25 116.19 111.13 115.63 110C114.63 107.96 113.73 105.84 113.23 103.6L110.72 105.06C114.4 108.87 117.02 113.54 119.55 118.15L121.91 116.33C121 115.19 120.38 113.82 119.73 112.53C119.08 111.24 116.93 111.85 116.93 113.29C116.93 114.17 117.31 114.78 117.67 115.54C118.03 116.3 119.06 116.46 119.72 116.08C120.46 115.64 120.61 114.76 120.26 114.03C120.17 113.84 120.04 113.66 119.96 113.46C119.87 113.26 119.93 113.82 119.93 113.29L117.13 114.05C117.91 115.6 118.69 117.1 119.78 118.46C120.24 119.04 121.22 119 121.75 118.58C122.34 118.11 122.5 117.32 122.14 116.64C119.49 111.8 116.69 106.94 112.84 102.94C111.76 101.82 110.01 102.99 110.33 104.4C110.89 106.87 111.92 109.25 113.04 111.51C114.16 113.77 115.35 115.95 117.09 117.68C118.14 118.72 120.03 117.68 119.6 116.22C118.8 113.52 117.42 110.63 117.97 107.74C118.12 106.95 117.75 106.12 116.92 105.89C116.19 105.69 115.23 106.14 115.07 106.94L115.06 106.96Z" fill="#280274"/>
    <path d="M124.65 113.91C124.1 112.59 124.26 110.32 125.2 109.53L116.17 108.37C117.96 111.03 115.71 103.57 117.79 104.14C117.5 104.06 115.87 104.66 115.56 104.73C114.25 105 112.92 105.09 111.59 105.21C107.73 105.57 103.42 107.64 99.7304 106.38C95.8504 105.05 92.8304 108.48 92.4504 111.93C91.7204 118.62 98.7704 127.52 103.6 131.5C109.27 136.18 117.45 128.08 111.73 123.37C108.96 121.08 103.62 114.97 103.95 111.94L96.6704 117.49C98.9804 118.28 101.26 118.6 103.69 118.34C105.12 118.19 106.44 117.87 107.83 117.53C108.15 117.45 111.67 116.58 110.27 116.84C109.19 117.04 110.71 116.81 110.94 116.79C111.52 116.75 112.1 116.7 112.67 116.64C114.39 116.47 116.11 116.29 117.81 115.99C124.25 114.84 130.73 109.45 126.1 102.59C123.91 99.34 120.01 98.93 117.07 101.43C113.18 104.73 111.63 112.34 113.56 117C114.76 119.89 117.36 121.88 120.64 121.02C123.36 120.3 125.85 116.81 124.66 113.94L124.65 113.91Z" fill="#280274"/>
    <path d="M131.49 120.41C128.46 117.36 126.96 113.46 125.36 109.54C124.96 108.74 124.64 107.91 124.38 107.05C118.64 106.13 116.45 107.2 117.83 110.28C117.83 110.88 117.98 113.32 118.28 112.92C116.15 115.72 107.54 112.35 105.48 111.3C98.3201 107.67 96.4501 101.65 93.9301 94.61C90.9601 86.29 87.4701 78.65 88.6601 69.61H77.1601C77.5301 73.24 77.6201 76.77 77.2301 80.4L85.8901 75.43C85.4601 75.14 85.7601 72.98 85.8001 72.46C86.2601 66.95 77.3501 64.36 75.0801 69.56C72.8101 74.76 73.8301 78.81 74.9201 84.08C76.4101 91.33 87.5001 88.26 86.0101 81.02C85.7301 79.66 84.4301 76.7 85.0101 75.37L74.2901 72.47C73.8601 77.65 75.7501 82.43 80.0801 85.37C84.0401 88.06 88.3201 84.36 88.7401 80.4C89.1201 76.77 89.0301 73.24 88.6701 69.61C87.9101 62.13 78.1201 62.31 77.1701 69.61C76.2201 76.91 77.9601 84.46 80.5901 91.61C82.9801 98.11 84.6301 105.52 88.5701 111.29C94.9701 120.68 107.52 126.9 118.96 124.71C124.02 123.74 128.4 120.57 129.42 115.29C130.52 109.61 128.46 100.96 122.5 98.75C115.15 96.02 111.66 104.19 113.32 110.11C115.13 116.58 118.66 123.78 123.39 128.54C128.62 133.8 136.75 125.66 131.52 120.41H131.49Z" fill="#280274"/>
    <path d="M100.79 117.92C106.87 126.41 115.26 130.18 125.09 132.84C132.24 134.78 135.3 123.68 128.15 121.75C121.54 119.96 114.89 117.94 110.72 112.11C106.55 106.28 96.4704 111.88 100.79 117.92Z" fill="#280274"/>
    <path d="M85.2299 83.13C81.7699 79.12 85.9499 70.87 87.7699 66.95C90.9199 60.15 94.6799 53.61 99.3899 47.77C103.19 43.06 98.3599 34.92 92.4199 38.74C85.4599 43.21 82.8499 49.65 80.3499 57.21L91.6499 58.74C91.6999 55.38 93.6199 51.81 95.0099 48.79C96.6699 45.17 98.5499 40.92 101.94 38.61C105.33 36.3 110.22 36.51 114.18 37.26C116.82 37.76 122.57 38.5 124.21 40.99C127.56 46.05 120.44 56.44 117.99 60.57C116.07 63.81 113.98 66.95 111.9 70.1C109.82 73.25 105.96 80.88 101.97 82.04L109.05 86.06C107.27 79.36 113.3 72.82 117.11 68.18C121.77 62.5 121.19 55.21 122.18 48.28C123.24 40.85 124.75 33.32 127.55 26.32C128.82 23.14 133.76 11.39 138.32 11.51L134.25 1.69C129.05 7.49 120.31 9.75999 121.08 19.27C121.67 26.6 133.18 26.66 132.58 19.27C132.29 15.66 140.03 12.44 142.38 9.83C145.7 6.13 143.44 0.139995 138.31 0.00999495C130.36 -0.200005 124.83 7.29 121.13 13.43C116.19 21.63 113.51 31.09 111.84 40.45C111.05 44.86 110.48 49.32 109.99 53.77C109.77 55.75 109.95 58.23 108.95 60.02C107.95 61.81 105.84 63.39 104.54 65.07C99.5199 71.52 95.7799 80.96 97.9499 89.11C98.7399 92.08 102.06 94 105.03 93.13C111.48 91.24 115.85 84.61 119.52 79.35C123 74.36 126.38 69.23 129.35 63.92C134.3 55.07 140.83 40.92 131.85 32.32C123.93 24.74 106.79 22.97 97.3199 27.98C91.6599 30.97 88.0199 36.7 85.3899 42.34C82.9899 47.49 80.2399 52.96 80.1599 58.74C80.0699 65.42 89.4699 66.3 91.4599 60.27C92.9499 55.76 94.0299 51.39 98.2399 48.68C95.9199 45.67 93.5899 42.66 91.2699 39.65C84.6899 47.8 79.4299 56.75 75.5299 66.48C72.2099 74.78 70.8699 84.05 77.1099 91.28C81.9599 96.89 90.0599 88.73 85.2399 83.15L85.2299 83.13Z" fill="#280274"/>
    </g>
    <path d="M208.8 90.61C205.06 106.7 193.4 111.86 177.05 120.38C162.46 127.98 143.72 127.77 125.8 123.61C90.58 115.42 67.95 90.91 75.56 58.16C83.17 25.41 117.89 5.5 153.11 13.69C170.05 17.63 172.72 19.67 191.8 43.61C202.29 56.77 212.75 73.61 208.8 90.61Z" stroke="#280274" stroke-width="2.92" stroke-miterlimit="10"/>
    <path d="M142.8 55.52C148.75 58.36 155.09 66.04 157.87 90.9C159.13 102.17 158.64 111.25 150.54 119.45C145.71 124.34 134.07 119.02 132.81 125.62" fill="#280274"/>
    <path d="M142.8 55.52C148.75 58.36 155.09 66.04 157.87 90.9C159.13 102.17 158.64 111.25 150.54 119.45C145.71 124.34 134.07 119.02 132.81 125.62" stroke="#280274" stroke-width="3.03" stroke-miterlimit="10"/>
    <path d="M141.5 55.02C145.31 57.13 149.96 54.79 153.64 52.48C159.19 49 164.75 45.4 169.32 40.71C171.86 38.1 174.15 34.99 174.64 31.39C175.04 28.45 174.2 25.49 173.38 22.64" fill="#280274"/>
    <path d="M141.5 55.02C145.31 57.13 149.96 54.79 153.64 52.48C159.19 49 164.75 45.4 169.32 40.71C171.86 38.1 174.15 34.99 174.64 31.39C175.04 28.45 174.2 25.49 173.38 22.64" stroke="#280274" stroke-width="2.92" stroke-miterlimit="10"/>
    <path d="M172.8 61.61C177.38 62.78 196.91 71.69 198.54 80.37C199.44 85.16 193.54 89.02 188.37 88.62" stroke="#280274" stroke-width="2.92" stroke-miterlimit="10" stroke-linecap="round"/>
    <path d="M161.31 107.87C164.92 107.1 168.11 105.82 169.98 102.67C170.38 102 170.72 101.3 170.98 100.56C171.82 98.22 171.88 95.57 171.14 93.12" stroke="#280274" stroke-width="2.49" stroke-miterlimit="10" stroke-linecap="round"/>
    <path d="M180.05 48.79C182.46 50.72 183.61 53.51 183.17 56.34C183.08 56.94 182.91 57.55 182.67 58.14C181.9 60.04 180.32 61.83 178.23 63.18" stroke="#280274" stroke-width="2.19" stroke-miterlimit="10" stroke-linecap="round"/>
    <path d="M173.39 46.11C174.31 50.1 173.13 57.53 172.8 61.61" stroke="#280274" stroke-width="2.83" stroke-miterlimit="10" stroke-linecap="round"/>
    <path d="M168.43 92.21C165.44 96.6 161.8 99.54 157.68 102.89" stroke="#280274" stroke-width="2.83" stroke-miterlimit="10" stroke-linecap="round"/>
    <path d="M185.746 58.7604C186.606 56.7436 186.443 54.7416 185.381 54.2887C184.32 53.8359 182.762 55.1037 181.901 57.1204C181.041 59.1372 181.204 61.1392 182.266 61.5921C183.328 62.045 184.886 60.7772 185.746 58.7604Z" fill="#280274"/>
    <path d="M185.746 58.7604C186.606 56.7436 186.443 54.7416 185.381 54.2887C184.32 53.8359 182.762 55.1037 181.901 57.1204C181.041 59.1372 181.204 61.1392 182.266 61.5921C183.328 62.045 184.886 60.7772 185.746 58.7604Z" fill="#280274"/>
    <path d="M175.746 98.7621C176.606 96.7453 176.443 94.7433 175.381 94.2904C174.319 93.8376 172.761 95.1054 171.901 97.1221C171.041 99.1389 171.204 101.141 172.266 101.594C173.327 102.047 174.885 100.779 175.746 98.7621Z" fill="#280274"/>
    <mask id="mask3_191_1333" style="mask-type:luminance" maskUnits="userSpaceOnUse" x="146" y="135" width="38" height="12">
    <path d="M146.8 137.61C149.2 136.34 154.55 138.62 155.97 140.97C156.46 141.78 156.74 142.72 157.28 143.5C158.66 145.5 161.34 145.97 163.73 146.09C164.54 146.13 165.37 146.14 166.14 145.88C168.08 145.21 169.03 143.05 170.21 141.34C173.2 137.01 178.99 134.93 183.97 136.41" fill="white"/>
    </mask>
    <g mask="url(#mask3_191_1333)">
    <path d="M156.03 143.47C155.88 143.3 155.74 143.13 155.6 142.95L155.99 143.46C155.53 142.87 155.11 142.23 154.82 141.54L155.07 142.14C154.97 141.89 154.88 141.63 154.85 141.37L154.94 142.03C154.93 141.91 154.92 141.79 154.94 141.67L154.85 142.33C154.86 142.24 154.88 142.16 154.91 142.08L154.66 142.68C154.7 142.59 154.75 142.5 154.81 142.42L154.42 142.93C154.42 142.93 154.49 142.84 154.54 142.81L154.03 143.2C154.03 143.2 154.1 143.15 154.14 143.14L153.54 143.39C153.54 143.39 153.6 143.37 153.64 143.36L152.98 143.45C152.98 143.45 153.05 143.45 153.08 143.45L152.42 143.36C152.42 143.36 152.51 143.38 152.55 143.4L151.95 143.15C152.01 143.18 152.06 143.21 152.12 143.25L151.61 142.86C151.71 142.94 151.79 143.03 151.87 143.12L151.48 142.61C151.63 142.81 151.75 143.04 151.85 143.27L151.6 142.67C151.73 142.97 151.82 143.29 151.86 143.62L151.77 142.96C151.8 143.17 151.8 143.38 151.77 143.59L151.86 142.93C151.84 143.06 151.81 143.18 151.76 143.3L152.01 142.7C151.98 142.78 151.93 142.86 151.88 142.93L152.27 142.42C152.23 142.48 152.18 142.52 152.12 142.57L152.63 142.18C152.57 142.22 152.51 142.26 152.44 142.29L153.04 142.04C152.96 142.07 152.89 142.09 152.81 142.1L153.47 142.01C153.47 142.01 153.41 142.01 153.38 142.01C153.04 142 152.71 142.07 152.42 142.23C152.11 142.33 151.84 142.5 151.62 142.75C151.19 143.18 150.86 143.9 150.89 144.52C150.92 145.14 151.13 145.84 151.62 146.29C152.08 146.72 152.73 147.08 153.39 147.02C154.05 146.96 154.45 146.88 155.03 146.58C155.26 146.46 155.47 146.27 155.67 146.11C155.72 146.06 155.77 146.02 155.82 145.96C156.22 145.49 156.42 145.15 156.62 144.56C156.73 144.22 156.76 143.84 156.79 143.49C156.8 143.33 156.79 143.17 156.78 143.01C156.74 142.64 156.7 142.26 156.61 141.89C156.48 141.37 156.27 140.86 156 140.39C155.66 139.78 155.2 139.3 154.63 138.91C154.37 138.73 154.07 138.61 153.77 138.53C153.6 138.49 153.24 138.44 153.06 138.43C153.04 138.43 153.02 138.43 152.99 138.43C152.8 138.43 152.46 138.48 152.28 138.53C152.25 138.53 152.23 138.54 152.21 138.55C151.14 138.86 150.36 139.79 150.05 140.83C149.97 141.11 149.94 141.42 149.92 141.71C149.92 141.81 149.92 141.91 149.93 142.02C149.98 142.47 150.03 142.89 150.19 143.31C150.7 144.68 151.5 145.92 152.49 147C152.91 147.46 153.65 147.73 154.26 147.73C154.87 147.73 155.61 147.46 156.03 147C156.45 146.54 156.79 145.9 156.76 145.23C156.73 144.56 156.49 143.97 156.03 143.46V143.47Z" fill="#280274"/>
    <path d="M152.71 140.9C152.09 141.28 151.49 141.75 150.97 142.27C150.45 142.79 149.92 143.43 149.59 144.12C149.12 145.12 148.86 146.21 149.18 147.3C149.5 148.39 150.33 149.36 151.36 149.85C152 150.15 152.54 150.38 153.27 150.28C153.89 150.2 154.44 149.89 154.87 149.44C155.15 149.15 155.43 148.8 155.6 148.43C155.97 147.64 156.2 146.77 156.11 145.89C156.02 144.89 155.78 144.09 155.37 143.18C155.06 142.5 154.62 141.9 154.13 141.33C153.93 141.1 153.72 140.9 153.48 140.71C153.11 140.42 152.76 140.13 152.33 139.94C151.66 139.64 151.17 139.49 150.42 139.44C150.3 139.44 150.18 139.44 150.06 139.45C149.73 139.49 149.38 139.51 149.06 139.63C148.47 139.84 147.87 140.2 147.57 140.78C147.24 141.4 147.18 142.02 147.32 142.71C147.66 144.44 148.53 146 149.7 147.29C150.58 148.26 152.35 148.25 153.24 147.29C154.19 146.25 154.18 144.79 153.24 143.75C153.09 143.58 152.94 143.41 152.81 143.23L153.2 143.74C152.84 143.27 152.55 142.76 152.32 142.21L152.57 142.81C152.38 142.34 152.24 141.87 152.14 141.37L150.39 144.45C150.5 144.41 150.61 144.38 150.72 144.36L150.06 144.45C150.22 144.43 150.38 144.43 150.54 144.45L149.88 144.36C150.06 144.39 150.23 144.44 150.4 144.51L149.8 144.26C150.03 144.36 150.24 144.49 150.44 144.64L149.93 144.25C150.24 144.49 150.51 144.77 150.75 145.08L150.36 144.57C150.65 144.94 150.88 145.35 151.07 145.78L150.82 145.18C150.98 145.56 151.1 145.96 151.16 146.37L151.07 145.71C151.11 146 151.12 146.29 151.07 146.58L151.16 145.92C151.13 146.1 151.09 146.28 151.02 146.45L151.27 145.85C151.21 146 151.12 146.14 151.02 146.27L151.41 145.76C151.32 145.86 151.23 145.96 151.13 146.04L153.56 145.4C153.5 145.38 153.45 145.36 153.4 145.34L154 145.59C153.77 145.49 153.55 145.37 153.35 145.22L153.86 145.61C153.75 145.52 153.65 145.42 153.56 145.31L153.95 145.82C153.87 145.72 153.81 145.61 153.76 145.49L154.01 146.09C153.97 145.99 153.95 145.9 153.93 145.79L154.02 146.45C154 146.31 154 146.18 154.02 146.04L153.93 146.7C153.96 146.5 154.02 146.3 154.1 146.11L153.85 146.71C153.98 146.41 154.16 146.13 154.36 145.87L153.97 146.38C154.31 145.94 154.71 145.55 155.15 145.21L154.64 145.6C154.82 145.46 155.01 145.33 155.2 145.21C155.74 144.88 156.18 144.33 156.35 143.72C156.52 143.11 156.44 142.32 156.1 141.79C155.38 140.67 153.87 140.16 152.68 140.89L152.71 140.9Z" fill="white"/>
    <path d="M151.18 146.42C152.1 147.35 152.97 148.33 153.92 149.23C154.96 150.21 156.14 151.22 157.46 151.8C158.93 152.45 160.54 152.59 162.07 152C163.38 151.49 164.56 150.72 165.84 150.16C167.04 149.64 167.41 147.78 166.74 146.74C165.94 145.49 164.61 145.28 163.32 145.84C162.82 146.06 162.34 146.3 161.87 146.56C161.63 146.69 161.39 146.82 161.15 146.95C161.05 147 160.94 147.06 160.84 147.11C160.8 147.13 160.29 147.35 160.67 147.2C161.01 147.07 160.65 147.2 160.58 147.23C160.45 147.28 160.32 147.32 160.19 147.35C160.1 147.37 159.95 147.38 159.88 147.42C159.98 147.36 160.42 147.39 160.07 147.38C159.99 147.38 159.81 147.35 159.74 147.38C160.1 147.44 160.18 147.45 159.99 147.41C159.93 147.4 159.88 147.39 159.82 147.37C159.69 147.34 159.48 147.18 159.68 147.35C159.94 147.56 159.48 147.24 159.43 147.21C159.2 147.08 158.98 146.93 158.76 146.79C158.62 146.7 158.49 146.6 158.36 146.5C158.07 146.29 158.67 146.77 158.4 146.53C157.99 146.16 157.56 145.81 157.17 145.42C156.33 144.6 155.53 143.72 154.71 142.88C153.79 141.95 152.08 141.89 151.17 142.88C150.26 143.87 150.19 145.42 151.17 146.42H151.18Z" fill="white"/>
    <path d="M176.37 141.92C179.59 141.92 179.59 136.92 176.37 136.92C173.15 136.92 173.15 141.92 176.37 141.92Z" fill="white"/>
    </g>
    <path d="M146.8 137.61C149.2 136.34 154.55 138.62 155.97 140.97C156.46 141.78 156.74 142.72 157.28 143.5C158.66 145.5 161.34 145.97 163.73 146.09C164.54 146.13 165.37 146.14 166.14 145.88C168.08 145.21 169.03 143.05 170.21 141.34C173.2 137.01 178.99 134.93 183.97 136.41" stroke="#280274" stroke-width="2.95" stroke-miterlimit="10"/>
    <path d="M74.3001 58.11L49.8301 176.92C49.8301 176.92 77.5701 165.08 76.3001 162.11C75.0301 159.14 70.2001 148.67 72.3001 143.11C74.4001 137.55 77.7701 128.54 81.3001 127.11C84.8301 125.68 74.3001 58.11 74.3001 58.11Z" fill="#280274"/>
    <path d="M87.8802 135.14L114.65 143.91C115.31 144.13 115.67 144.84 115.45 145.5C115.24 146.14 114.57 146.49 113.93 146.32L86.7002 139.09C84.0402 138.3 85.1902 134.36 87.8702 135.15L87.8802 135.14Z" fill="#280274"/>
    <path d="M83.8399 155.49L110.71 164.87C112.29 165.45 111.51 167.83 109.88 167.35L82.7499 158.73C80.5999 158 81.6599 154.78 83.8299 155.49H83.8399Z" fill="#280274"/>
    <path d="M81.4701 157.6C86.2201 159.13 123.33 167.21 120.67 175.83C118.01 184.45 83.8801 169.53 79.3701 168.04" stroke="#280274" stroke-width="3.12" stroke-miterlimit="10" stroke-linecap="round"/>
    <path d="M183.3 136.11L184.3 137.11L197.3 121.11L183.3 127.11V136.11Z" fill="#3652AD"/>
    <path d="M55 157.5C50.5 165.5 52 174.5 53.5 177C55.5 177 60.2 177.6 63 180C66.5 183 80 191.5 83.5 192.5C87 193.5 88.5 194.5 91 194.5C93.5 194.5 94.5 194 94.5 191.5C95 190 92.5 188.5 91 187.5C89.5 186.5 75.5 182 74 181C72.5 180 74 177 75.5 176C77 175 88.5 184 101.5 184C104.05 184 103.5 181 103.5 179C103.5 177 76.5 169 75.5 168C74.5 167 83 162 82 160.5C81 159 80 157.5 82 156C84 154.5 101 161 103.5 160.5C106 160 106.5 156 103.5 155C100.5 154 81 146.5 74 145.5C67 144.5 59.5 149.5 55 157.5Z" fill="#FFE5E5"/>
    </g>
    <path d="M307.5 96.5C283.667 110.333 235.7 138 234.5 138C236 132.5 232 123 231.5 120C231 117 219.5 112.5 221 112C222.5 111.5 260.5 115.5 263.5 115C266.5 114.5 278.5 103.5 285.5 99C291.1 95.4 302.5 95.8333 307.5 96.5Z" fill="#FFE5E5"/>
    <path d="M205 69L404 146" stroke="#FE7A36" stroke-width="3" stroke-miterlimit="10" stroke-linecap="round" stroke-dasharray="11.34 11.34"/>
    <path d="M182 122.664C180.789 121.452 166.16 107.647 145.475 111.764C124.355 115.93 116.168 134.968 115.587 136.469" stroke="#FE7A36" stroke-width="5.7" stroke-miterlimit="10" stroke-linecap="round"/>
    <path d="M112.874 141.217L125.614 135.743C127.067 135.113 127.31 133.127 126.05 132.206L114.909 123.923C113.649 122.954 111.808 123.778 111.615 125.328L110.016 139.085C109.822 140.635 111.421 141.846 112.874 141.217Z" fill="#FE7A36" stroke="#FE7A36" stroke-width="2.1" stroke-miterlimit="10" stroke-linecap="round"/>
    <defs>
    <clipPath id="clip0_191_1333">
    <rect width="518.27" height="292.1" fill="white"/>
    </clipPath>
    </defs>
    </svg>
    