<svg width="465" height="342" viewBox="0 0 465 342" fill="none" xmlns="http://www.w3.org/2000/svg">
    <path d="M32.868 189.139C9.85907 213.361 12.2495 255.296 39 282" stroke="#3652AD" stroke-width="5" stroke-linecap="round"/>
    <path d="M18.5179 190C-4.49103 214.222 -2.10055 256.157 24.6499 282.861" stroke="#3652AD" stroke-width="5" stroke-linecap="round"/>
    <g clip-path="url(#clip0_191_1322)">
    <path d="M418.928 188.269C423.945 182.998 433.993 177.053 440.898 181.42C451.391 188.053 451.904 195.049 463.692 224.72C467.805 235.073 461.075 242.19 459.362 246.167C454.089 258.407 445.309 266.887 420.344 254.849C417.606 253.528 424.242 239.804 425.375 236.771C435.072 210.511 409.487 198.19 418.928 188.269Z" fill="#312783"/>
    <path d="M82.5881 164.839C81.2799 160.795 85.0023 154.149 81.5631 141.774C80.7269 138.755 77.2877 126.366 67.2803 121.446C62.8296 119.262 59.6871 119.828 56.4772 116.229C53.3212 112.697 51.7837 107.022 53.8202 104.811C55.8703 102.573 60.4693 105.067 61.4134 103.53C62.7756 101.292 53.6584 106.9 49.5044 87.421C45.3503 67.9417 49.4504 64.248 57.5157 56.1867C70.0721 43.6229 91.3412 45.2675 101.457 53.4367C104.639 56.0114 103.938 56.982 115.672 71.7162C124.074 82.2714 123.629 80.7616 125.774 84.0374C133.394 95.725 131.155 119.505 131.411 123.926C131.668 128.348 124.479 127.081 123.225 130.828C121.013 137.42 131.236 142.246 131.411 151.575C131.573 160.094 123.279 167.158 117.87 170.151C105.516 176.972 83.8829 168.884 82.5881 164.839Z" fill="#FFE5E5" stroke="#280274" stroke-width="3" stroke-miterlimit="10"/>
    <path d="M103.034 315.807C82.534 289.588 62.0337 263.368 41.5469 237.149L103.034 315.807Z" fill="#FFE5E5"/>
    <path d="M103.034 315.807C82.534 289.588 62.0337 263.368 41.5469 237.149" stroke="#280274" stroke-width="3" stroke-miterlimit="10"/>
    <path d="M271.811 179.843C254.427 179.816 240.71 196.519 237.649 211.671C232.038 239.44 250.596 252.355 255.168 256.803C257.326 258.906 269.1 270.041 285.285 270.688C287.847 270.796 293.296 270.958 294.51 268.356C296.371 264.406 294.726 264.042 290.666 246.356C289.587 241.651 288.738 241.166 290.666 226.634C293.067 208.557 305.017 207.02 304.221 200.59C302.953 190.345 284.853 179.857 271.825 179.83L271.811 179.843Z" fill="#280274"/>
    <path d="M130.116 339.452C95.4547 316.562 107.458 319.852 67.9816 274.153C28.4915 228.467 35.3699 217.117 50.853 192.394C56.9627 182.647 74.5902 165.23 83.6131 168.129C97.6531 172.631 105.341 172.618 117.479 170.272C129.617 167.913 128.525 149.135 135.956 150.874C140.097 151.844 142.983 152.572 148.459 155.619C164.711 164.637 175.325 162.521 186.331 166.12C201.638 171.108 209.407 184.413 223.191 208.017C240.967 238.456 245.148 266.145 248.196 287.687C251.055 307.935 256.692 325.5 248.978 324.947C192.467 320.903 170.766 350.708 130.089 339.452H130.116Z" fill="#3652AD"/>
    <path d="M212.077 80.3167C215.139 73.954 220.129 66.0948 228.343 60.824C237.999 54.6229 246.213 57.5886 246.793 52.3178C248.182 39.7674 241.439 12.793 221.37 3.84193C212.145 -0.283095 203.742 1.03799 197.444 2.03555C189.419 3.28923 173.585 5.76964 163.281 21.0565C154.474 34.1056 152.289 52.6278 158.129 67.1598C159.774 71.2579 168.703 85.9651 172.412 84.4687C176.121 82.9724 188.704 80.5729 191.523 84.307C194.126 87.758 189.406 95.5497 191.267 99.6612C193.357 104.285 201.922 103.571 204.781 103.409" fill="#FFE5E5"/>
    <path d="M155.524 85.3335C156.711 84.9696 168 80.1436 168 80.1436C168 80.1436 163.333 77.0026 160.042 70.3567C156.751 63.7108 154 56 154 56L155.524 85.3201V85.3335Z" fill="#FFE5E5"/>
    <path d="M171.414 111C171.009 110.07 195.772 102.303 194.234 101.724C192.697 101.144 189.972 99.85 189.986 98.6233C189.999 97.3965 192.858 85.345 190.943 84.617C189.028 83.8891 178.818 80.0741 171.414 84.0509C169.957 84.8327 168 82.5 168 82.5C168 82.5 166.545 94.2691 166.464 98.8524C166.383 103.436 170.092 112 170.092 112L171.414 111Z" fill="#280274"/>
    <path d="M48.6411 192.663C47.252 191.396 42.3292 185.397 41.8302 183.24C40.8456 178.94 58.4193 161.793 69.9507 161.685C75.5074 161.631 76.2626 165.015 80.6189 167.495C88.0099 171.688 91.7862 178.145 93.3912 177.929C179.951 165.999 181.664 170.286 181.664 170.286C206.48 154.581 220.507 137.878 223.447 131.987C225.025 130.734 230.19 142.92 240.292 148.42C253.739 155.74 285.541 144.619 278.177 146.29C278.177 146.29 250.03 176.19 216.676 187.958C198.199 194.483 194.45 204.566 183.714 207.047C169.957 210.228 170.645 208.287 138.991 207.923C119.947 209.002 117.263 210.997 106.919 209.096C92.7843 206.508 93.9711 202.099 78.96 199.39C64.5694 196.788 56.2209 199.538 48.6277 192.65L48.6411 192.663Z" fill="#FFE5E5"/>
    <path d="M258.5 167.5C230.73 139.932 207.491 141.452 203 127.5C190.5 76.5 202.38 136.005 222.125 82.1905C227.533 67.4699 244.514 67.8203 246.928 68.2113C262.937 70.813 298.651 66.6206 322.55 79.3866C361.244 100.052 406.116 139.671 406.116 139.671C393.883 139.82 414.72 135.263 381.974 155.794C364.899 166.498 369.363 168.803 360.394 176.972C353.192 183.523 357.4 195.265 348.62 197.381C277.206 214.623 269.397 171.971 268.305 173.359C267 173.359 263.5 170.5 263.112 170.137L258.5 167.5Z" fill="#3652AD"/>
    <path d="M153.719 169.922C155.58 173.373 174.664 171.445 181.893 168.358C187.733 165.864 189.621 163.613 190.403 161.308C191.954 156.738 189.122 152.114 188.286 150.766C184.064 143.891 176.269 143.041 175.595 142.974C172.654 142.704 169.283 145.724 163.658 147.652C158.426 149.458 156.375 148.299 154.797 149.917C150.239 154.594 150.724 164.381 153.705 169.908L153.719 169.922Z" fill="#FFE5E5"/>
    <path d="M163.942 58.9232C162.755 55.2835 162.984 51.9808 164.211 51.3876C165.061 50.9697 167.597 53.3827 168.77 57.0225C169.943 60.6622 171.171 63.5605 168.5 64.5581C167.152 65.0568 165.115 62.5629 163.942 58.9232Z" fill="#280274"/>
    <path d="M304.207 200.59C288.508 200.94 289.21 231.029 290.504 242.811C290.693 244.469 286.539 261.589 305.704 275.582C343.738 303.351 443.974 229.034 440.885 216.2C439.348 209.81 440.885 208.22 418.861 196.141C414.464 193.728 418.672 190.938 421.976 176.972C425.375 162.548 417.31 135.061 406.129 139.671C393.37 144.929 395.838 144.524 358.83 176.325C350.792 183.227 351.709 195.831 345.114 197.381C331.411 200.59 323.925 200.158 304.207 200.59Z" fill="#280274"/>
    <path d="M154.272 42.504C154.596 40.8594 161.852 23.5234 163.146 20.369C164.441 17.2146 178.737 6.48411 184.739 5.31131C190.754 4.13851 179.183 2.7635 190 9.97556C191.759 14.8762 202.893 113.681 202.893 113.681C202.893 113.681 225.834 77.9981 231.391 74.4662C236.948 70.9478 247.832 67.0654 249.221 66.6745C250.61 66.2836 244.838 24.858 236.26 16.9045C227.682 8.96452 217.486 -3.12748 199.346 0.727943C181.206 4.58336 167.098 6.2145 163.443 9.97556C159.775 13.7366 151.318 25.8151 152.154 34.2C152.991 42.5714 154.272 42.504 154.272 42.504Z" fill="#280274"/>
    <path d="M102.589 55.5531C110.304 63.2639 115.901 73.2395 121.053 77.8903C132.949 88.6207 133.097 117.712 131.411 123.926C129.725 130.141 122.739 128.604 122.456 132.527C122.173 136.45 131.411 151.575 131.411 151.575C131.411 151.575 127.891 184.979 82.4802 167.441C82.4802 159.42 85.7576 150.591 80.147 138.229C74.5498 125.854 74.5498 124.991 67.2668 121.459C64.8392 120.273 63.0049 117.402 60.4693 116.714C57.8933 116.013 54.3058 116.93 52.7143 114.193C52.1613 113.223 51.9725 112.077 51.8781 110.958C51.7432 109.354 51.8241 107.736 52.1074 106.159" stroke="#280274" stroke-width="3" stroke-miterlimit="10"/>
    <path d="M62.519 104.622C62.5595 104.77 62.573 104.932 62.5595 105.107" stroke="#280274" stroke-width="3" stroke-miterlimit="10"/>
    <path d="M203.769 103.476C199.413 103.557 195.016 102.223 191.267 99.6747C191.725 94.7678 192.184 89.2139 191.523 84.3205C186.762 82.0692 181.003 81.2604 176.121 82.9859C175.446 83.2286 174.772 83.4982 174.111 83.7813C173.545 84.0104 169 81.5 168.5 83.7813M154.865 57.3595C153.031 47.7344 155.85 37.8397 159.478 28.9696C160.84 25.6264 162.35 22.3102 164.373 19.4119C169.998 11.3641 179.02 7.30643 187.881 4.70469C204.619 -0.188723 216.798 -4.46204 235.45 16.8506C246.712 29.711 245.62 36.3434 246.941 54.1916" stroke="#280274" stroke-width="3" stroke-miterlimit="10"/>
    <path d="M154.5 55C154.877 63.5601 153 75 155.188 86.1538C156.5 86.1538 157.319 85.4393 158.358 84.9945C158.938 84.7518 159.504 84.4957 160.084 84.2531C162.957 83.0129 166 79.5 172 83" stroke="#280274" stroke-width="3" stroke-miterlimit="10"/>
    <path d="M180.329 6.9155C183.781 7.38731 189.945 9.01845 191.064 12.7256C191.321 13.5749 191.375 14.4646 191.428 15.3543C192.952 41.7086 200.883 79.0361 202.407 105.39" stroke="#280274" stroke-width="3" stroke-miterlimit="10"/>
    <path d="M192.615 3.23532C186.182 4.40812 179.735 5.56745 173.302 6.74025C170.928 7.17162 168.514 7.61648 166.342 8.76232C165.034 9.44983 163.847 10.3935 162.728 11.418C154.609 18.8996 150.751 31.6926 153.125 43.2589" stroke="#280274" stroke-width="3" stroke-miterlimit="10"/>
    <path d="M167.616 82C167.387 90.3579 163.775 101.629 168.158 108.761C168.927 110.028 169.777 111.254 170.37 112.616C172.407 109.933 175.913 109.125 179.083 107.952C184.248 106.038 190.748 103.754 196.116 102.5" stroke="#280274" stroke-width="3" stroke-miterlimit="10"/>
    <path d="M279.27 122.47C283.181 120.111 274.158 144.322 274.091 144.349C270.611 145.765 259.768 162.952 249.005 171.499C246.024 173.858 243.597 175.61 242.167 176.257C234.884 179.587 228.397 182.998 221.06 186.287C217.756 187.77 214.397 189.172 211.079 190.668C206.548 192.704 202.084 194.901 197.97 197.705C192.872 201.169 188.475 205.119 182.514 206.966C176.269 208.894 169.674 209.392 163.173 209.312C157.199 209.244 151.237 208.691 145.276 208.327C142.7 208.166 140.138 208.044 137.561 208.004C128.781 207.869 120.096 209.258 111.262 208.57C106.164 208.179 101.065 207.303 96.1832 205.712C91.2874 204.108 87.0794 201.223 82.0083 200.199C71.7581 198.136 60.5234 200.778 51.1094 195.197C49.1808 194.065 47.2791 192.555 46.0653 190.655C44.9054 188.808 45.2695 185.896 43.8264 184.427C43.3139 183.887 42.5721 183.645 41.9517 183.24C41.3313 182.822 40.7918 182.081 41.0211 181.38C41.1425 181.016 41.4527 180.746 41.7359 180.49C48.6143 174.478 56.1941 165.406 64.8527 162.062C68.3998 160.687 72.7966 160.674 75.6963 163.384C76.9506 164.543 77.9622 165.931 79.2704 167.037C81.1586 168.641 83.5323 169.558 85.5014 171.054C87.1199 172.281 88.4416 173.885 90.0466 175.139C92.5012 177.026 94.9424 176.891 97.8556 176.689C111.869 175.705 125.841 174.289 139.787 172.672C146.989 171.836 154.124 170.488 161.339 169.665C164.94 169.261 168.649 168.83 172.277 168.911C175.42 168.991 178.562 169.76 181.678 168.762C183.512 168.183 185.13 167.091 186.722 165.999C199.966 156.926 202.471 153.447 215 143" stroke="#280274" stroke-width="3" stroke-miterlimit="10"/>
    <path d="M351.884 197.381C348.822 196.99 345.774 196.505 342.794 196.033C275.547 209.864 282.709 185.64 266.619 171.782" stroke="#280274" stroke-width="3" stroke-miterlimit="10"/>
    <path d="M265.702 173.089C245.565 158.638 240.198 152.37 236.597 150.752C210.728 139.186 202.842 138.347 198 103.5C196.638 93.7132 200.6 129.911 222.125 82.1905C225.294 75.1672 233.117 73.8596 238.633 70.9209C247.926 65.9466 286.755 68.2652 306.298 74.2236C325.84 80.182 373.005 113.128 394.773 129.372C399.48 132.877 404.335 136.625 407.531 141.693C403.35 141.046 399.345 143.163 395.838 144.524C392.48 145.832 405.05 139.294 402.231 141.451C389.54 151.211 384.442 153.394 371.804 163.249C369.781 164.826 360.232 174.114 358.816 176.325C357.548 178.293 354.676 180.409 353.974 182.782C352.572 187.554 349.416 190.83 348 195.602" stroke="#280274" stroke-width="3" stroke-miterlimit="10"/>
    <path d="M271.137 107.723C271.137 107.723 268.817 65.6769 234.061 96.4933C226.32 103.355 219.846 130.68 217.782 142.704" stroke="#280274" stroke-width="3" stroke-miterlimit="10"/>
    <path d="M49.6258 195.588C42.3428 204 30.0965 224.518 47.5353 247.353C51.3252 252.314 87.0793 298.377 87.4165 297.07" stroke="#280274" stroke-width="3" stroke-miterlimit="10"/>
    <path d="M81.9272 220.285C82.669 221.875 83.8829 223.169 85.0832 224.45C95.7245 235.747 106.366 247.043 116.994 258.34C119.502 261.009 122.038 263.705 123.859 266.873C127.298 272.832 127.959 279.936 128.552 286.784" stroke="#280274" stroke-width="3" stroke-miterlimit="10"/>
    <path d="M132.841 150.739C135.565 150.698 138.317 150.685 140.96 151.305C145.168 152.276 148.971 154.864 151.426 158.423" stroke="#280274" stroke-width="3" stroke-miterlimit="10"/>
    <path d="M190.39 161.308C189.554 157.776 190.282 153.731 188.178 150.766C186.965 149.054 185.009 148.043 183.134 147.099C180.396 145.724 177.659 144.349 174.934 142.974C174.503 142.758 174.03 142.529 173.545 142.583C173.032 142.637 172.614 143.001 172.223 143.338C169.013 146.007 164.94 147.598 160.773 147.827C158.696 147.935 156.484 147.746 154.663 148.757C151.44 150.55 151.116 154.985 151.197 158.665C151.264 161.847 151.345 165.015 151.413 168.196C151.44 169.234 151.79 170.609 152.829 170.596" stroke="#280274" stroke-width="3" stroke-miterlimit="10"/>
    <path d="M247.211 281.89C243.3 260.794 239.227 245.062 231.094 225.219C230.662 224.167 230.231 223.116 229.786 222.078C228.855 219.84 227.898 217.616 226.94 215.391C223.015 206.292 218.807 196.802 211.079 190.668C210.958 190.56 210.85 190.466 210.729 190.371" stroke="#280274" stroke-width="3" stroke-miterlimit="10"/>
    <path d="M145.074 208.22C181.489 227.955 223.474 294.63 232.025 311.211" stroke="#280274" stroke-width="3" stroke-miterlimit="10"/>
    <path d="M90.5 73C90.5 73 92.5851 74.9447 92.9166 75.1754C96.0244 77.4407 98.7869 80.1538 102.033 82.2428C105.279 84.3318 109.201 85.7562 113 85.0101C111.646 87.167 111.025 89.2424 109.671 91.4129C108.801 91.2908 107.931 92.1318 108.041 93" stroke="#280274" stroke-width="3" stroke-miterlimit="10"/>
    <path d="M70.0181 89.5509C75.2241 90.7237 81.0235 88.405 84.0041 83.9969" stroke="#280274" stroke-width="3" stroke-miterlimit="10"/>
    <path d="M105.408 75.7604C107.782 76.2052 110.344 74.4797 110.817 72.1071" stroke="#280274" stroke-width="3" stroke-miterlimit="10"/>
    <path d="M60.3345 83.0803C61.9664 81.9883 63.3556 80.519 64.3536 78.8204C64.6773 78.2812 64.9605 77.7015 65.4056 77.2432C65.7428 76.8792 66.1744 76.6096 66.5925 76.3535C69.5596 74.5336 72.8774 73.3339 76.3166 72.8081" stroke="#280274" stroke-width="3" stroke-miterlimit="10"/>
    <path d="M97.127 65.1512L100.054 64.0728C101.173 63.6549 102.306 63.237 103.493 63.237C104.68 63.237 105.947 63.7223 106.541 64.7603" stroke="#280274" stroke-width="3" stroke-miterlimit="10"/>
    <path d="M110.115 102.425C111.288 101.212 113.15 101.077 114.835 101.023C116.697 100.969 118.544 100.901 120.406 100.848C120.729 100.848 121.067 100.834 121.35 100.969C121.768 101.171 121.997 101.643 122.186 102.061C122.658 103.126 123.063 104.568 122.159 105.323C121.673 105.727 120.986 105.741 120.352 105.727C116.993 105.647 116.642 105.3 113.5 106.5C111.275 107.349 107.5 111 104.612 110.243C105.165 106.941 107.89 104.716 110.102 102.411L110.115 102.425Z" fill="#E6007E" stroke="#280274" stroke-width="3" stroke-miterlimit="10"/>
    <path d="M54.3732 115.609C52.8626 115.042 51.959 107.197 51.959 107.197C52.5119 105.471 55.2903 103.368 57.111 103.382C58.2439 103.382 59.3769 103.382 60.5098 103.409C60.8065 103.409 61.1302 103.409 61.4134 103.544C61.791 103.692 62.0608 104.015 62.317 104.339C62.398 104.433 62.9779 105.363 62.5193 104.622C62.0608 103.881 57.8528 102.816 56.8008 101.993C54.8182 100.457 53.6314 98.7041 52.5659 96.4529C50.0843 91.1685 48.6816 85.3719 48.4928 79.5349C48.3444 75.2346 48.8704 70.8535 50.5293 66.8767C54.7103 56.8472 65.8641 52.8705 75.9659 52.0212C87.9964 50.9967 104.585 51.9538 110.574 64.3019C109.872 59.058 107.822 53.9759 104.707 49.6891C89.9116 29.3605 56.8278 36.8826 40.4006 55.4722C34.1291 62.563 31.5261 72.3498 31.6744 81.8131C31.9981 101.805 36.2196 114.166 52.93 125.598C53.9955 123.279 56.639 121.985 59.188 121.81C61.7371 121.634 68.6425 123.818 71.0971 124.56C71.0971 124.56 69.9912 121.432 54.3597 115.609H54.3732Z" fill="#312783" stroke="#280274" stroke-width="3" stroke-miterlimit="10"/>
    <path d="M217.769 36.8422C222.826 36.2625 227.398 40.3875 227.978 46.0493C228.558 51.7112 224.93 56.7663 219.873 57.3325" fill="#FFE5E5"/>
    <path d="M217.769 36.8422C222.826 36.2625 227.398 40.3875 227.978 46.0493C228.558 51.7112 224.93 56.7663 219.873 57.3325" stroke="#280274" stroke-width="3" stroke-miterlimit="10"/>
    <path d="M159.194 45.4023C159.815 45.1462 166.531 42.4905 171.805 46.9256C173.787 48.5972 174.853 50.6732 175.419 52.0751" stroke="#280274" stroke-width="3" stroke-miterlimit="10"/>
    <path d="M440.899 220.285C437.54 226.769 356.092 292.163 305.718 275.568C305.718 275.568 291.853 267.979 290.626 251.991C288.562 225.03 302.616 202.706 304.221 200.59" stroke="#280274" stroke-width="3" stroke-miterlimit="10"/>
    <path d="M273.079 179.223C268.79 181.272 239.065 195.656 235.639 218.95C231.472 247.313 274.279 273.438 285.271 270.688" stroke="#280274" stroke-width="3" stroke-miterlimit="10"/>
    <path d="M290.653 196.141C290.518 205.55 290.397 214.96 290.262 224.383" stroke="#280274" stroke-width="3" stroke-miterlimit="10"/>
    <path d="M406.318 210.7C407.788 209.392 423.945 187.163 422.206 168.344C420.722 152.356 409.528 143.244 407.532 141.68" stroke="#280274" stroke-width="3" stroke-miterlimit="10"/>
    </g>
    <defs>
    <clipPath id="clip0_191_1322">
    <rect width="434" height="342" fill="white" transform="translate(31)"/>
    </clipPath>
    </defs>
    </svg>
    