<svg width="174" height="230" viewBox="0 0 174 230" fill="none" xmlns="http://www.w3.org/2000/svg">
    <path d="M10.3665 71.2016C9.41418 81.359 7.50972 83.5809 11.3187 104.848C15.5544 128.497 33.5381 148.017 38.2994 149.287C43.0607 150.556 60.5187 147.382 64.9626 145.795C68.5177 144.525 75.5433 141.457 78.6116 140.082" stroke="#280274" stroke-width="3" stroke-linecap="round"/>
    <path d="M60.2012 165.475L61.5939 164.918L60.2012 165.475ZM52.6324 147.937C52.2378 147.209 51.3275 146.938 50.5991 147.333C49.8706 147.727 49.6 148.638 49.9945 149.366L52.6324 147.937ZM58.0153 170.308C58.6628 169.985 59.707 169.428 60.5129 168.672C61.2902 167.944 62.2652 166.596 61.5939 164.918L58.8085 166.032C58.8128 166.043 58.8169 166.023 58.8058 166.051C58.7781 166.121 58.6885 166.27 58.4611 166.484C57.9974 166.918 57.2958 167.314 56.6736 167.625L58.0153 170.308ZM61.5939 164.918C61.4328 164.515 60.9417 163.541 60.3171 162.335C59.6713 161.088 58.8311 159.495 57.9229 157.788C56.1059 154.371 54.009 150.479 52.6324 147.937L49.9945 149.366C51.3689 151.904 53.4619 155.788 55.2741 159.196C56.1805 160.9 57.0147 162.482 57.6531 163.715C58.3127 164.989 58.7157 165.8 58.8085 166.032L61.5939 164.918Z" fill="#280274"/>
    <path d="M71.6286 10.8919C68.7718 9.62222 35.1254 -10.6926 12.5886 14.7009C-5.44078 35.0157 3.38348 60.6209 10.0493 70.8841" stroke="#280274" stroke-width="3" stroke-linecap="round"/>
    <path d="M71.6287 10.5745C73.8507 9.62228 103.061 3.90871 112.258 14.3836C123.685 27.3978 130.034 34.3809 120.829 67.3925M55.123 165.158C57.0275 164.84 52.901 165.158 55.123 165.158ZM55.123 165.158C57.3449 165.158 54.4881 169.39 61.1539 170.871C66.8674 172.141 72.581 174.045 76.7074 172.458C80.8339 170.871 95.7526 163.253 97.3397 159.444" stroke="#280274" stroke-width="3"/>
    <path d="M142.096 228.007C140.572 225.975 106.439 171.612 96.0697 154.048C93.7419 151.614 88.769 145.795 87.4994 141.986C85.9123 137.225 89.0865 130.876 87.4994 129.607C85.9123 128.337 82.1032 124.528 80.8336 121.354C79.8178 118.814 78.2942 113.524 77.6594 111.196C75.0142 109.186 70.3964 103.591 68.4542 102.943C66.5497 102.309 59.8839 102.309 57.9794 100.404C56.0749 98.4996 55.7575 93.7383 57.9794 93.4209C60.2013 93.1035 64.9627 92.4686 68.4542 93.4209C71.311 94.2 83.6904 101.356 85.5949 104.848C87.4994 108.34 91.9433 118.814 93.213 121.354" stroke="#280274" stroke-width="3" stroke-linecap="round"/>
    <path d="M172.25 224.832C169.076 220.389 143.048 169.601 140.191 164.84C137.334 160.079 128.764 147.7 128.129 144.208C127.494 140.716 124.003 104.531 123.368 100.087C122.733 95.6428 117.654 66.1228 115.432 64.5357C113.21 62.9486 109.084 62.6312 108.766 66.7577C108.449 70.8841 111.941 81.9938 111.941 86.1203C111.941 89.4214 113.21 101.885 113.845 107.705" stroke="#280274" stroke-width="3" stroke-linecap="round"/>
    <path d="M91.3085 115.005C89.404 110.879 88.1734 104.291 86.8647 101.674C85.5951 99.1344 77.6595 94.0557 75.4376 91.5164C73.2157 88.977 61.4711 82.3113 61.7885 79.1371C62.106 75.9629 64.9627 77.55 69.0892 79.1371C73.2156 80.7242 86.8646 87.3899 89.0866 88.977C91.3085 90.5641 99.5614 106.753 100.514 108.657" stroke="#280274" stroke-width="3" stroke-linecap="round"/>
    <path d="M112.258 106.118C110.989 102.943 108.767 92.4686 108.132 89.6118C107.497 86.7551 92.2608 70.8841 90.0389 68.9796C87.817 67.0751 83.0557 65.1706 83.0557 67.0751C83.0557 68.9796 86.2299 75.328 87.4995 77.2325C88.7692 79.137 95.7524 91.199 96.7047 92.7861C97.4665 94.0557 99.5615 103.684 100.514 108.34" stroke="#280274" stroke-width="3" stroke-linecap="round"/>
    <path d="M75.4374 25.4932C74.8025 31.2068 72.2632 46.3595 72.2632 51.839C72.2631 59.7745 73.8502 71.8364 75.4374 76.2803" stroke="#280274" stroke-width="3" stroke-linecap="round"/>
    <path d="M56.3858 74.0541C56.3858 77.0343 54.5009 79.4503 52.1758 79.4503C49.8507 79.4503 47.498 77.0343 47.498 74.0541C47.498 71.0739 49.8507 68.658 52.1758 68.658C54.5009 68.658 56.3858 71.0739 56.3858 74.0541Z" fill="#280274"/>
    <ellipse cx="19.4539" cy="74.3753" rx="3.07254" ry="4.7795" fill="#280274"/>
    <path d="M30.3638 70.8841C28.4593 78.5022 27.1897 86.7551 26.5548 93.1035C26.212 96.5316 25.7103 101.982 25.6176 104.714C25.6022 105.167 25.908 105.564 26.3466 105.68L37 108.5" stroke="#280274" stroke-width="3"/>
    <path d="M47.1871 122.623C43.3782 117.545 35.4427 115.005 32.9033 115.64C30.3638 116.275 30.6812 118.814 32.9033 122.623C35.1253 126.432 35.8871 127.321 37.6646 129.607C38.9343 131.321 43.3782 133.098 47.1871 131.194C48.7742 130.559 48.943 124.965 47.1871 122.623Z" fill="#F4ACAC" stroke="#280274" stroke-width="3"/>
    </svg>
    