<svg width="252" height="218" viewBox="0 0 252 218" fill="none" xmlns="http://www.w3.org/2000/svg">
    <path d="M80.2339 50.6776C80.2339 25.5218 100.623 5 125.911 5C151.2 5 171.589 25.3894 171.589 50.6776" stroke="black" stroke-width="8.6" stroke-miterlimit="10"/>
    <path d="M236.558 59.5482H15C6.71573 59.5482 0 66.2639 0 74.5482V202.5C0 210.784 6.71573 217.5 15 217.5H236.558C244.842 217.5 251.558 210.784 251.558 202.5V74.5482C251.558 66.2639 244.842 59.5482 236.558 59.5482Z" fill="#3652AD"/>
    <path d="M125.779 202.539C161.316 202.539 190.125 173.73 190.125 138.193C190.125 102.656 161.316 73.8474 125.779 73.8474C90.2414 73.8474 61.4329 102.656 61.4329 138.193C61.4329 173.73 90.2414 202.539 125.779 202.539Z" fill="white"/>
    <path d="M125.646 97.0171V180.163" stroke="#3652AD" stroke-width="29" stroke-miterlimit="10"/>
    <path d="M79.3066 138.855H172.515" stroke="#3652AD" stroke-width="29" stroke-miterlimit="10"/>
    </svg>
    