<svg width="496" height="367" viewBox="0 0 496 367" fill="none" xmlns="http://www.w3.org/2000/svg">
    <g clip-path="url(#clip0_172_1328)">
    <path d="M420.849 18.036C420.849 18.036 426.959 71.8544 434.386 86.586C467.203 151.687 443.064 248.581 443.064 248.581C407.772 244.25 341.928 234.034 329.286 230.966C316.644 227.899 298.642 228.662 295.192 227.135C291.742 225.608 306.306 105.346 306.306 105.346L302.474 89.2585L302.856 26.4484L420.849 18.0228V18.036Z" fill="#312783" stroke="#280274" stroke-width="3" stroke-miterlimit="10"/>
    <path d="M46.9994 220.092C44.4842 221.303 42.3904 223.949 40.9945 226.332C38.2027 231.098 37.057 240.695 30.9203 242.407C29.4586 242.815 27.8652 242.775 26.4693 243.394C25.2709 243.934 24.3359 244.908 23.4405 245.869C14.4988 255.348 6.71607 263.879 3.10782 276.767C-0.855992 290.959 0.0921617 306.546 5.42553 320.251C11.7466 336.497 22.3079 349.043 40.1648 352.769C42.5747 353.269 45.0373 353.598 47.4999 353.572C57.2711 353.453 68.6095 350.359 77.2877 346.015C83.8853 342.711 89.8112 337.484 92.4187 330.573C93.5775 327.505 95.9874 326.373 98.9504 325.386C109.894 321.739 123.392 309.693 133.729 320.515C136.824 323.753 152.113 356.705 171.366 359.865C190.618 363.024 253.697 362.168 278.244 361.01C302.79 359.851 519.588 343.487 519.588 343.487C519.588 343.487 505.511 251.385 497.755 248.607C489.998 245.83 262.731 215.379 236.288 218.262C209.845 221.145 195.201 238.655 176.238 241.525C164.399 243.315 153.021 241.775 141.802 237.773C130.766 233.836 118.388 229.834 108.537 223.357C104.113 220.448 102.15 215.484 98.5158 211.851C96.8829 210.218 94.9339 209.178 92.5898 209.218C90.0219 209.27 85.8869 210.192 84.6622 212.799C84.6622 215.392 84.8598 217.327 82.3445 218.644C81.449 219.118 80.356 219.328 79.4079 218.973C78.2622 218.539 77.4589 217.354 76.2474 217.13C75.2465 216.946 74.272 217.485 73.3897 217.999C73.0473 218.196 72.705 218.407 72.4679 218.723C71.4671 220.092 72.6655 222.04 71.2696 223.199C69.8737 224.358 67.4374 224.779 65.6465 224.476C65.1987 224.397 64.751 224.279 64.3691 224.028C64.0004 223.791 63.7107 223.449 63.4209 223.12C62.7493 222.383 61.9987 221.725 61.1823 221.172C60.8925 220.974 60.5765 220.777 60.2341 220.75C58.588 220.605 58.7724 223.844 57.0209 222.554C56.9156 222.475 53.1361 220.474 52.7542 220.263C50.2925 218.905 47.5 220.092 46.9863 220.105L46.9994 220.092Z" fill="#FFE5E5" stroke="#280274" stroke-width="3" stroke-miterlimit="10"/>
    <path d="M52 218C49.6 218 45.3333 219 43.5 219.5L48.5 211L60.5 212C58.6667 214 54.4 218 52 218Z" fill="white"/>
    <path d="M303.633 105.649C308.993 115.707 419.045 121.737 429.962 96.4598C440.878 71.183 428.236 7.89899 428.236 7.89899H287.159C287.159 7.89899 298.273 95.6041 303.633 105.649Z" fill="#3652AD" stroke="#280274" stroke-width="3" stroke-miterlimit="10"/>
    <path d="M336.384 77.7918C353.24 58.255 388.098 85.4539 388.098 90.4302C388.098 95.4066 361.286 146.539 349.592 163.575C337.898 180.61 299.748 216.498 294.665 224.279C289.582 232.059 285.039 238.26 283.696 246.87C282.352 255.48 285.539 265.445 284.143 270.422C282.747 275.398 277.296 274.24 277.006 270.804C276.716 267.367 275.9 261.851 276.255 253.399C276.611 244.948 267.985 249.16 267.985 249.16C267.985 249.16 265.826 273.094 263.6 276.728C261.374 280.361 255.936 278.452 255.554 275.003C255.172 271.554 263.863 247.581 260.321 246.277C259.86 246.106 255.633 242.565 254 245.698C248.39 256.48 247.508 276.149 242.332 279.782C237.157 283.416 235.248 280.361 235.05 277.096C234.852 273.831 247.679 244.355 246.336 240.906C244.992 237.457 240.397 235.732 240.397 235.732C240.397 235.732 227.004 264.642 223.751 268.092C220.498 271.541 215.876 271.054 217.983 266.459C220.09 261.865 233.694 231.704 241.042 218.999C302.356 186.6 319.502 97.276 336.358 77.7392L336.384 77.7918Z" fill="#FFE5E5" stroke="#280274" stroke-width="3" stroke-miterlimit="10"/>
    <path d="M229.493 16C229.5 17 242.135 86.2174 246.546 92.3391C250.958 98.4608 296.39 90.812 299.722 77.0151C303.054 63.2182 303.62 7.88582 303.62 7.88582H229.493V16Z" fill="#3652AD" stroke="#280274" stroke-width="3" stroke-miterlimit="10"/>
    <path d="M330.063 82.5707C334.659 92.5234 377.76 103.437 388.098 98.2765C398.435 93.1159 434 8 434 8H364.5C364.5 8 325.48 72.618 330.076 82.5707H330.063Z" fill="#3652AD" stroke="#280274" stroke-width="3" stroke-miterlimit="10"/>
    <path d="M347.077 228C345.168 217.902 345.51 213.352 344.957 203.083C344.628 197.08 344.588 190.668 347.077 185.06C349.197 180.294 353.056 176.713 356.98 173.396C363.578 167.827 370.386 162.443 377.26 157.242" stroke="#280274" stroke-width="3" stroke-miterlimit="10"/>
    <path d="M344.035 182.058L339.742 179.728" stroke="#280274" stroke-width="3" stroke-miterlimit="10"/>
    <path d="M207.567 305.559C207.567 305.559 272.502 323.937 279.679 324.517C286.856 325.096 294.336 320.712 310.705 318.777C327.074 316.841 489.708 318.487 508.092 321.936C526.476 325.386 525.33 344.053 519.588 348.938C513.847 353.822 321.911 362.721 301.223 365.025C280.535 367.329 190.026 366.46 170.786 363.59C151.547 360.72 130.845 346.647 129.41 325.096C127.974 303.545 167.046 267.328 167.046 267.328" fill="#FFE5E5"/>
    <path d="M207.567 305.559C207.567 305.559 272.502 323.937 279.679 324.517C286.856 325.096 294.336 320.712 310.705 318.777C327.074 316.841 489.708 318.487 508.092 321.936C526.476 325.386 525.33 344.053 519.588 348.938C513.847 353.822 321.911 362.721 301.223 365.025C280.535 367.329 190.026 366.46 170.786 363.59C151.547 360.72 130.845 346.647 129.41 325.096C127.974 303.545 167.046 267.328 167.046 267.328" stroke="#280274" stroke-width="3" stroke-miterlimit="10"/>
    <path d="M248.495 87.4944C245.717 108.177 259.992 193.196 259.992 193.196C259.992 193.196 236.051 212.535 232.983 218.67C229.914 224.805 221.302 246.817 225.898 246.817C230.494 246.817 237.539 227.333 239.225 228.241C241.713 229.584 236.248 246.343 237.012 253.32C237.776 260.298 241.99 260.982 244.676 253.518C247.363 246.053 245.453 239.629 248.811 233.981C252.169 228.333 255.132 226.701 256.094 229.387C257.055 232.072 249.667 252.939 250.431 259.258C251.195 265.577 257.279 268.96 259.307 260.469C261.335 251.978 264.219 229.979 267.959 229.768C271.409 229.571 268.156 251.754 267.854 255.045C267.274 261.364 272.489 267.486 274.938 259.64C280.68 241.261 276.374 237.128 278.296 235.706C286.013 230.018 290.03 224.858 284.512 245.092C282.431 252.689 291.887 264.432 295.482 242.604C299.077 220.777 289.503 197.791 289.503 197.791C289.503 197.791 304.634 78.5817 299.459 72.5522C294.283 66.5226 251.287 66.8122 248.509 87.4944H248.495Z" fill="#FFE5E5" stroke="#280274" stroke-width="3" stroke-miterlimit="10"/>
    <path d="M248.83 221.5C248.448 221.408 245.822 225.674 246.033 225.345C247.574 222.883 249.312 220.25 252.064 219.302" stroke="#280274" stroke-width="3" stroke-miterlimit="10" stroke-linecap="round"/>
    <path d="M261.414 228.873C261.453 226.266 261.809 223.66 262.481 221.132" stroke="#280274" stroke-width="3" stroke-miterlimit="10" stroke-linecap="round"/>
    <path d="M274.267 227C273.766 227.066 273.832 231.058 273.872 230.558C274.003 228.557 274.135 226.556 274.267 224.555" stroke="#280274" stroke-width="3" stroke-miterlimit="10" stroke-linecap="round"/>
    <path d="M22.6635 251.57L41.8637 268.71C42.9698 269.698 44.234 270.751 45.7221 270.738C46.9073 270.738 47.9608 270.04 49.0143 269.474C54.9008 266.327 62.6045 266.999 67.8589 271.12C66.9502 272.291 65.4753 272.831 64.2375 273.634C58.4168 277.373 58.0218 286.114 58.7461 292.276C58.9963 294.408 59.5099 296.607 60.8794 298.266C62.8942 300.701 66.5157 301.399 69.5313 300.477C72.547 299.556 74.9832 297.239 76.6952 294.579C80.1059 289.248 82.147 286.457 88.6656 284.627C93.8936 283.165 99.464 283.126 104.85 283.152C105.469 283.152 106.154 283.179 106.615 283.6C107.128 284.074 107.155 284.851 107.155 285.548C107.155 292.526 107.155 299.503 107.141 306.467C107.141 310.614 108.182 320.449 105.719 324.003C103.388 327.347 98.2657 325.162 95.2105 327.084C92.1553 329.006 92.0237 333.324 90.1273 336.247C87.0985 340.894 82.3314 345.133 77.7091 348.121C70.6638 352.663 62.9733 353.519 54.7954 353.519C45.8538 353.519 36.504 352.203 28.5105 347.99C15.7763 341.262 6.49225 328.611 2.64696 314.63C-1.93579 297.95 2.44943 281.454 8.6651 265.814C10.2059 261.944 12.1022 259.139 15.5919 256.901C16.5 254.5 16.5 254.5 19.5 250L22.6635 251.57Z" fill="#280274" stroke="#280274" stroke-miterlimit="10"/>
    <path d="M47.4867 239.524C48.2505 241.432 50.3575 242.38 51.7797 243.868C53.6365 245.816 54.2555 248.871 53.281 251.385" stroke="#280274" stroke-width="3" stroke-miterlimit="10" stroke-linecap="round"/>
    <path d="M39.1113 245.303C38.927 251.333 49.1855 259.311 54.1765 261.43" stroke="#280274" stroke-width="3" stroke-miterlimit="10" stroke-linecap="round"/>
    <path d="M104.639 222.844C104.271 232.928 105.219 242.788 106.536 252.741C107.036 256.533 107.128 260.522 105.587 264.024C102.111 271.949 93.4985 271.83 87.217 276.188C86.9668 276.149 86.8219 275.833 86.9404 275.609" stroke="#280274" stroke-width="3" stroke-miterlimit="10" stroke-linecap="round"/>
    <path d="M197 194L214.574 164.148L179.934 163.854L197 194ZM195.025 72.9746L194.229 166.975L200.229 167.026L201.025 73.0254L195.025 72.9746Z" fill="#FE7A36"/>
    <path d="M86.6875 133.234C84.8646 133.234 83.3333 132.641 82.0938 131.453C80.8646 130.266 80.1771 128.594 80.0312 126.438V126.422H84.3125V126.438C84.3958 127.271 84.651 127.922 85.0781 128.391C85.5052 128.849 86.0625 129.078 86.75 129.078C87.5 129.078 88.0781 128.833 88.4844 128.344C88.901 127.844 89.1094 127.151 89.1094 126.266V124.359C89.1094 123.464 88.9271 122.776 88.5625 122.297C88.1979 121.807 87.6771 121.562 87 121.562C86.3854 121.562 85.8594 121.719 85.4219 122.031C84.9948 122.344 84.6979 122.781 84.5312 123.344H80.5312V110.281H92.7344V114.406H84.8125V118.422C85.1458 118.099 85.5885 117.849 86.1406 117.672C86.7031 117.495 87.2552 117.406 87.7969 117.406C89.5781 117.406 90.9531 118.016 91.9219 119.234C92.901 120.443 93.3906 122.151 93.3906 124.359V126.266C93.3906 128.484 92.8073 130.203 91.6406 131.422C90.474 132.63 88.8229 133.234 86.6875 133.234ZM97.625 122.797H108.75V126.922H97.625V122.797ZM118.984 133.234C116.88 133.234 115.245 132.635 114.078 131.438C112.922 130.24 112.344 128.552 112.344 126.375V126.359C112.344 125.38 112.484 124.349 112.766 123.266C113.047 122.172 113.432 121.104 113.922 120.062L118.531 110.281H123.375L117.906 121.609L116.828 121.047C117.37 120.016 118.333 119.5 119.719 119.5C121.604 119.5 123.062 120.094 124.094 121.281C125.125 122.458 125.641 124.125 125.641 126.281V126.297C125.641 128.495 125.057 130.203 123.891 131.422C122.734 132.63 121.099 133.234 118.984 133.234ZM118.984 129.109C119.755 129.109 120.344 128.891 120.75 128.453C121.156 128.005 121.359 127.375 121.359 126.562V126.547C121.359 125.62 121.156 124.901 120.75 124.391C120.344 123.88 119.755 123.625 118.984 123.625C118.234 123.625 117.651 123.885 117.234 124.406C116.828 124.917 116.625 125.635 116.625 126.562V126.578C116.625 127.391 116.828 128.016 117.234 128.453C117.651 128.891 118.234 129.109 118.984 129.109ZM144.859 133.234C142.536 133.234 140.734 132.578 139.453 131.266C138.172 129.953 137.531 128.104 137.531 125.719V123.984C137.531 121.62 138.172 119.792 139.453 118.5C140.734 117.198 142.536 116.547 144.859 116.547C146.193 116.547 147.396 116.771 148.469 117.219C149.552 117.667 150.411 118.307 151.047 119.141L148.281 121.828C147.896 121.464 147.432 121.182 146.891 120.984C146.359 120.776 145.802 120.672 145.219 120.672C144.135 120.672 143.297 120.964 142.703 121.547C142.109 122.12 141.812 122.932 141.812 123.984V125.719C141.812 126.802 142.109 127.641 142.703 128.234C143.297 128.818 144.135 129.109 145.219 129.109C145.802 129.109 146.359 129 146.891 128.781C147.432 128.562 147.896 128.25 148.281 127.844L151.047 130.688C150.411 131.5 149.552 132.13 148.469 132.578C147.396 133.016 146.193 133.234 144.859 133.234ZM172.844 133V123.641C172.844 122.693 172.615 121.964 172.156 121.453C171.708 120.932 171.068 120.672 170.234 120.672C169.411 120.672 168.776 120.922 168.328 121.422C167.891 121.911 167.672 122.609 167.672 123.516L166.875 119.766C167.385 118.734 168.052 117.943 168.875 117.391C169.698 116.828 170.604 116.547 171.594 116.547C173.354 116.547 174.714 117.167 175.672 118.406C176.641 119.635 177.125 121.375 177.125 123.625V133H172.844ZM153.938 133V116.781H158.219V133H153.938ZM163.391 133V123.641C163.391 122.693 163.156 121.964 162.688 121.453C162.229 120.932 161.568 120.672 160.703 120.672C159.911 120.672 159.297 120.896 158.859 121.344C158.432 121.781 158.219 122.401 158.219 123.203L157.891 119.609C158.359 118.63 158.948 117.875 159.656 117.344C160.375 116.812 161.229 116.547 162.219 116.547C163.958 116.547 165.302 117.167 166.25 118.406C167.198 119.635 167.672 121.375 167.672 123.625V133H163.391Z" fill="#FE7A36"/>
    </g>
    <defs>
    <clipPath id="clip0_172_1328">
    <rect width="524" height="367" fill="white"/>
    </clipPath>
    </defs>
    </svg>
    