<svg width="216" height="188" viewBox="0 0 216 188" fill="none" xmlns="http://www.w3.org/2000/svg">
    <path d="M157.823 7C134.569 7.00001 106.828 34.2485 106.828 34.2485C106.828 34.2485 75.0052 7 51.3455 7C27.6858 7 0.761011 32.215 8.50984 71.2577C16.2587 110.3 80.6358 180.658 106.828 180.658C133.02 180.658 198.616 108.267 205.146 71.2577C211.676 34.2485 185.862 6.99998 157.823 7Z" fill="#737FE8" stroke="#737FE8" stroke-width="13.2" stroke-linecap="round"/>
    <path d="M53.9506 88.2946C52.722 87.7471 25.2591 101.971 17.2624 93.77C9.2657 85.5688 6 71.184 6 71.184C6 71.184 43.2001 71.6973 43.8827 69.3019C44.5653 66.9064 46.9543 61.2599 48.1488 59.3777C49.3433 57.4956 56.169 55.7845 57.8754 54.929C59.5818 54.0734 69.991 45.347 73.4039 42.096C76.8167 38.845 78.1819 45.347 78.3525 46.3737C78.5232 47.4003 68.9672 56.9822 69.991 56.9822C71.0149 56.9822 94.9049 47.9136 99.3416 46.3737C103.778 44.8337 104.802 49.0543 102.413 50.6513C100.024 52.2483 83.8131 57.6667 82.1067 59.3777C80.4002 61.0888 81.5947 62.9709 82.9599 62.9709C84.325 62.9709 102.754 53.7312 107.021 52.1913C111.287 50.6513 111.969 55.9556 109.58 56.9822C107.191 58.0089 88.7617 66.5642 86.714 67.7619C84.6663 68.9597 85.6902 71.6974 88.0792 71.184C90.4682 70.6707 103.266 63.4843 108.044 62.1154C112.822 60.7466 113.334 65.3664 111.287 66.5642C109.239 67.762 89.9562 76.6594 88.0792 77.6861C86.2021 78.7127 87.226 81.9638 89.9562 80.9371C92.6865 79.9104 101.731 75.975 105.655 74.435C109.58 72.8951 111.287 78.1994 108.044 79.3971C104.802 80.5949 76.8167 93.0856 68.9672 93.77C61.1176 94.4545 55.4864 88.9791 53.9506 88.2946Z" fill="#E9F6FF"/>
    <path d="M150.728 116.116C151.668 115.153 176.984 119.186 186.846 107.661C196.708 96.1358 204.357 82.4951 206.168 76.7322C207.979 70.9692 154.592 96.7222 153.074 94.7479C151.555 92.7735 147.25 88.4077 145.445 87.0995C143.64 85.7912 136.665 86.7207 134.763 86.5555C132.862 86.3903 119.966 82.1228 115.594 80.3612C111.223 78.5997 112.354 85.1464 112.574 86.1635C112.795 87.1807 125.213 92.5583 124.262 92.9362C123.31 93.3142 97.7597 93.705 93.0679 93.9116C88.3761 94.1182 88.9826 98.4187 91.7923 99.021C94.6021 99.6233 111.668 98.6747 113.886 99.635C116.103 100.595 115.688 102.785 114.419 103.289C113.151 103.793 92.6121 102.009 88.0789 102.153C83.5457 102.297 84.8694 107.478 87.4686 107.55C90.0679 107.623 110.354 108.771 112.699 109.128C115.044 109.485 115.103 112.407 112.694 112.812C110.284 113.217 95.7367 111.263 90.7908 111.754C85.845 112.246 87.0746 116.728 89.4199 117.086C91.7651 117.443 112.97 118.594 115.094 118.855C117.217 119.116 117.466 122.516 114.549 122.569C111.633 122.623 101.775 122.304 97.5589 122.322C93.3428 122.339 93.715 127.899 97.1703 127.815C100.626 127.732 131.245 129.009 138.793 126.748C146.341 124.486 149.553 117.319 150.728 116.116Z" fill="#E9F6FF"/>
    </svg>
    