<svg width="299" height="258" viewBox="0 0 299 258" fill="none" xmlns="http://www.w3.org/2000/svg">
    <path d="M218.274 7C185.609 7.00002 146.639 45.2776 146.639 45.2776C146.639 45.2776 101.936 7 68.6996 7C35.4634 7 -2.35948 42.421 8.52575 97.2665C19.411 152.112 109.845 250.948 146.639 250.948C183.433 250.948 275.58 149.255 284.752 97.2665C293.925 45.2776 257.663 6.99998 218.274 7Z" fill="#FF6565" stroke="#FF6565" stroke-width="13.2" stroke-linecap="round"/>
    <path d="M72.3591 121.199C70.6331 120.43 32.0545 140.412 20.821 128.891C9.58752 117.37 5 97.1631 5 97.1631C5 97.1631 57.2572 97.8842 58.2161 94.5191C59.1749 91.154 62.5309 83.222 64.2089 80.5781C65.8868 77.9341 75.4753 75.5304 77.8724 74.3286C80.2696 73.1268 94.892 60.8683 99.6862 56.3014C104.48 51.7345 106.398 60.8683 106.638 62.3105C106.878 63.7527 93.4537 77.213 94.892 77.213C96.3303 77.213 129.89 64.4738 136.122 62.3105C142.355 60.1472 143.793 66.0762 140.437 68.3196C137.081 70.5629 114.309 78.1744 111.912 80.5781C109.514 82.9817 111.192 85.6257 113.11 85.6257C115.028 85.6257 140.917 72.6461 146.91 70.4828C152.902 68.3196 153.861 75.7708 150.505 77.213C147.149 78.6552 121.26 90.6733 118.384 92.3559C115.507 94.0384 116.945 97.8842 120.301 97.1631C123.657 96.442 141.636 86.3468 148.348 84.4239C155.06 82.501 155.779 88.9907 152.902 90.6733C150.026 92.3559 122.938 104.855 120.301 106.297C117.665 107.739 119.103 112.306 122.938 110.864C126.774 109.422 139.478 103.893 144.992 101.73C150.505 99.5667 152.902 107.018 148.348 108.701C143.793 110.383 104.48 127.93 93.4537 128.891C82.427 129.852 74.5165 122.161 72.3591 121.199Z" fill="#FFE5E5"/>
    <path d="M208.308 160.281C209.628 158.929 245.192 164.595 259.045 148.405C272.899 132.214 283.644 113.053 286.188 104.957C288.732 96.8613 213.736 133.038 211.603 130.265C209.47 127.491 203.423 121.358 200.887 119.521C198.352 117.683 188.553 118.988 185.882 118.756C183.21 118.524 165.095 112.529 158.954 110.055C152.812 107.58 154.402 116.777 154.711 118.206C155.021 119.635 172.466 127.189 171.129 127.72C169.792 128.251 133.9 128.8 127.309 129.09C120.719 129.38 121.571 135.421 125.518 136.267C129.465 137.113 153.439 135.781 156.554 137.13C159.669 138.479 159.085 141.555 157.303 142.263C155.521 142.971 126.669 140.465 120.301 140.667C113.933 140.869 115.793 148.148 119.444 148.249C123.095 148.351 151.592 149.963 154.886 150.465C158.181 150.967 158.264 155.072 154.879 155.641C151.494 156.209 131.058 153.464 124.111 154.154C117.163 154.845 118.89 161.142 122.185 161.644C125.479 162.146 155.268 163.762 158.251 164.129C161.234 164.496 161.583 169.272 157.486 169.347C153.389 169.422 139.541 168.975 133.618 168.999C127.696 169.024 128.218 176.834 133.072 176.716C137.926 176.599 180.94 178.394 191.543 175.217C202.145 172.04 206.658 161.971 208.308 160.281Z" fill="#FFE5E5"/>
    </svg>
    