<svg width="470" height="473" viewBox="0 0 470 473" fill="none" xmlns="http://www.w3.org/2000/svg">
    <path d="M229.422 3C173.769 3 128.117 46.5801 124.462 74.0776C120.807 101.575 124.462 195.68 237.558 196.965C328.035 197.992 342.744 101.575 335.195 74.0776C327.646 46.5801 285.075 3 229.422 3Z" fill="#FFE5E5" stroke="#3652AD" stroke-width="5" stroke-linecap="round"/>
    <path d="M335.124 75.6335C247.963 76.3171 229.022 28.6353 230.446 4.70898C239.845 4.70898 269.326 10.6906 294.534 24.3628C314.701 35.3005 329.996 63.1006 335.124 75.6335Z" fill="#280274" stroke="#280274" stroke-width="5" stroke-linecap="round"/>
    <path d="M122.777 75.6335C209.938 76.3171 228.879 28.6353 227.455 4.70898C218.055 4.70898 188.575 10.6906 163.367 24.3628C143.2 35.3005 127.904 63.1006 122.777 75.6335Z" fill="#280274" stroke="#280274" stroke-width="5" stroke-linecap="round"/>
    <path d="M227.455 4.70898C228.879 28.6353 209.938 76.3171 122.777 75.6335" stroke="#280274" stroke-width="5" stroke-linecap="round"/>
    <path d="M341.674 80.7606C289.955 80.7607 228.255 141.365 228.255 141.365C228.255 141.365 157.477 80.7606 104.854 80.7606C52.2321 80.7606 -7.65224 136.842 9.58219 223.678C26.8166 310.514 170 467 228.255 467C286.509 467 432.405 305.992 446.927 223.678C461.45 141.365 404.038 80.7606 341.674 80.7606Z" fill="#FF6565" stroke="#FF6565" stroke-width="12" stroke-linecap="round"/>
    <path d="M110.649 261.571C107.916 260.353 46.8349 291.99 29.0491 273.749C11.2634 255.508 4 223.515 4 223.515C4 223.515 86.738 224.656 88.2562 219.328C89.7743 214 95.0877 201.442 97.7445 197.256C100.401 193.07 115.582 189.264 119.378 187.361C123.173 185.458 146.325 166.05 153.915 158.819C161.506 151.588 164.542 166.05 164.922 168.333C165.301 170.616 144.047 191.928 146.325 191.928C148.602 191.928 201.736 171.758 211.604 168.333C221.472 164.908 223.749 174.295 218.436 177.847C213.122 181.399 177.067 193.45 173.271 197.256C169.476 201.061 172.133 205.248 175.169 205.248C178.205 205.248 219.195 184.697 228.683 181.272C238.171 177.847 239.69 189.644 234.376 191.928C229.063 194.211 188.073 213.239 183.519 215.903C178.964 218.567 181.242 224.656 186.555 223.515C191.868 222.373 220.333 206.389 230.96 203.345C241.587 200.3 242.726 210.575 238.171 213.239C233.617 215.903 190.73 235.693 186.555 237.976C182.38 240.259 184.657 247.49 190.73 245.207C196.802 242.923 216.918 234.17 225.647 230.745C234.376 227.32 238.171 239.118 230.96 241.782C223.749 244.446 161.506 272.227 144.047 273.749C126.589 275.271 114.064 263.093 110.649 261.571Z" fill="#FFE5E5"/>
    <path d="M325.894 323.449C327.984 321.308 384.292 330.278 406.226 304.644C428.16 279.011 445.172 248.672 449.201 235.854C453.229 223.037 334.489 280.315 331.111 275.924C327.734 271.533 318.16 261.822 314.145 258.913C310.131 256.003 294.617 258.07 290.387 257.703C286.158 257.335 257.477 247.844 247.753 243.926C238.029 240.008 240.546 254.569 241.036 256.831C241.526 259.093 269.146 271.054 267.03 271.894C264.913 272.735 208.086 273.604 197.651 274.064C187.216 274.523 188.564 284.088 194.814 285.428C201.063 286.767 239.021 284.657 243.953 286.793C248.885 288.929 247.961 293.8 245.139 294.921C242.317 296.042 196.637 292.074 186.555 292.394C176.472 292.713 179.416 304.238 185.197 304.398C190.978 304.559 236.097 307.112 241.313 307.907C246.529 308.701 246.661 315.201 241.301 316.101C235.941 317.001 203.587 312.655 192.586 313.748C181.586 314.841 184.321 324.811 189.537 325.606C194.753 326.4 241.916 328.96 246.639 329.541C251.362 330.122 251.915 337.683 245.429 337.802C238.942 337.922 217.016 337.212 207.639 337.252C198.262 337.291 199.09 349.656 206.775 349.47C214.46 349.284 282.563 352.126 299.35 347.096C316.137 342.066 323.282 326.124 325.894 323.449Z" fill="#FFE5E5"/>
    <path d="M174.902 80.7606C178.296 85.6596 186.638 91.3241 194.556 80.7606" stroke="#280274" stroke-width="4" stroke-linecap="round"/>
    <path d="M262.063 80.7606C265.456 85.6596 273.799 91.3241 281.717 80.7606" stroke="#280274" stroke-width="4" stroke-linecap="round"/>
    <path d="M207.374 103.832C214.308 113.63 231.356 124.959 247.536 103.832" stroke="#280274" stroke-width="4" stroke-linecap="round"/>
    </svg>
    