<svg width="495" height="301" viewBox="0 0 495 301" fill="none" xmlns="http://www.w3.org/2000/svg">
    <path d="M44 190C37.5 194 11.5 222 7 226.5L11.5 237.5C31 235.167 70.7 230.2 73.5 229C77 227.5 77.5 217 80 213C82.5 209 95.5 185 95.5 181.5V170.5C97.1667 163.667 100.5 149 100.5 145C100.5 141 85.1667 140.333 77.5 140.5C76.3333 145.167 73.9 155.3 73.5 158.5C73 162.5 79.5 170.5 77.5 173C75.5 175.5 50.5 186 44 190Z" fill="#FFE5E5"/>
    <path d="M192.5 121C187.5 122 186 130.5 185.5 134L199 130.5L220 153.5L239 148.5L287.5 134C297.833 128.167 316.3 114.1 307.5 104.5C296.5 92.5 268.5 124.5 262.5 124C256.5 123.5 197.5 120 192.5 121Z" fill="#FFE5E5"/>
    <path d="M244 250.082C234 250.082 216.5 257.082 192.5 275.082L78 206.082C91 188.582 117.5 151.982 119.5 145.582C122 137.582 130 139.082 134 138.082C138 137.082 152.681 139.065 155 140C161 142.418 162.5 145.582 167.5 145.582C174 145.582 178.681 139.996 184 134.5C199 119 215 160.748 226.5 169.082L244 179.582C257.333 180.915 284.2 182.782 285 179.582C285.8 176.382 311.667 166.248 324.5 161.582C350.833 163.582 406.7 164.3 415.5 165.5C424.3 166.7 490.167 166.082 520.5 169.082L523.5 300.082C455.333 299.082 317.3 296.782 310.5 295.582C302 294.082 304 292.582 297 287.582C290 282.582 278 265.082 277 259.582C276 254.082 254 250.082 244 250.082Z" fill="#FFE5E5"/>
    <path d="M110.794 95.4C110.794 98.8 109.294 105 113.694 106.5C115.494 107.1 116.594 104.7 115.394 103.5C113.194 101.1 112.794 97.4 111.494 94.5C110.694 92.7 109.594 91 108.494 89.3C107.394 87.6 107.394 87.7 106.794 86.9C106.294 86.3 105.594 85.6 105.294 84.8C104.194 85.3 103.094 85.7 101.994 86.2C103.594 89.9 106.294 93.2 107.294 97.1L110.294 95.4C108.694 93.7 107.194 92 105.694 90.2C104.994 91.1 104.294 92.1 103.494 93C106.194 94.9 108.194 97.6 110.294 100C111.094 100.9 113.094 100.5 113.294 99.2C113.994 94.7 112.594 90 113.594 85.5C112.494 85.6 111.394 85.8 110.294 85.9C111.294 87.8 111.194 90 111.094 92C110.994 94 110.694 96.4 110.594 98.6C110.594 100.4 112.994 101 113.894 99.5C115.894 96.1 117.294 92.2 118.194 88.3C116.994 88.1 115.894 88 114.694 87.8C114.294 91.1 112.894 94.2 112.994 97.6C113.094 101 116.594 99.9 116.594 97.6C116.594 96.8 116.594 95.9 116.594 95.1C116.594 93.4 114.794 92.9 113.594 93.8C111.494 95.4 111.894 98.4 111.894 100.7C111.894 102.7 114.994 103.2 115.394 101.2C115.794 99.2 115.894 96.6 116.194 94.3C116.594 92 117.594 90 119.194 88.4C122.194 85.3 126.394 83.6 130.194 81.5C129.394 80.7 128.594 79.9 127.794 79.1C124.594 85.4 118.094 89.2 114.294 95.1C115.394 95.6 116.494 96 117.594 96.5C118.494 93.7 121.094 91.5 122.994 89.4C122.194 88.6 121.294 87.7 120.494 86.9C118.794 88.9 116.594 90.2 115.094 92.4C116.094 93 117.194 93.6 118.194 94.2C119.994 91.5 121.794 88.7 123.794 86.2C124.694 85.1 125.694 84 126.594 83C127.494 82 128.294 80.9 129.594 80.5C128.894 79.6 128.294 78.8 127.594 77.9C126.394 79.8 123.694 80.6 121.894 81.9C120.494 83 121.994 85.5 123.594 84.9C126.994 83.6 130.694 83.3 134.194 82.5C133.694 81.4 133.294 80.3 132.794 79.2C131.094 80 129.494 80.8 127.894 81.6C126.294 82.4 126.994 85.1 128.794 84.9C130.494 84.7 132.194 84.3 133.894 84C133.394 82.9 132.994 81.8 132.494 80.7C129.294 82.1 125.894 82.6 122.494 83.4L123.394 86.8C128.594 85.4 134.194 84.3 138.794 81.3C139.994 80.5 139.894 78.4 138.394 78C135.194 77.3 131.994 78 128.794 78V81.6C133.094 81.1 137.094 79.9 140.994 78C144.894 76.1 146.594 75.6 147.694 72.9C148.794 70.2 147.294 71 146.494 70.7C145.094 70.2 143.794 70.3 142.394 70.5C140.994 70.7 140.894 71.8 141.194 72.7C141.494 73.6 142.394 74.1 143.394 73.9C144.394 73.7 144.894 73.9 145.594 74.1C145.194 73.4 144.794 72.6 144.394 71.9C144.194 72.4 142.794 73.1 142.194 73.5C141.194 74.1 140.094 74.5 139.094 75C135.894 76.5 132.394 77.6 128.894 78C126.694 78.3 126.494 81.6 128.894 81.6C131.794 81.6 134.694 80.9 137.494 81.6L137.094 78.3C132.794 81.2 127.394 82.1 122.494 83.4C120.294 84 121.194 87.4 123.394 86.8C127.094 85.9 130.694 85.3 134.194 83.7C134.994 83.3 135.194 82.2 134.894 81.5C134.594 80.8 133.694 80.3 132.794 80.5C131.394 80.8 129.994 81.1 128.594 81.3C128.894 82.4 129.194 83.5 129.494 84.6C131.094 83.7 132.794 82.9 134.394 82.2C135.994 81.5 134.894 78.5 132.994 78.9C129.494 79.7 125.794 80 122.394 81.3C122.994 82.3 123.594 83.3 124.094 84.3C126.194 82.6 128.794 81.9 130.294 79.6C131.094 78.3 129.694 76.5 128.294 77C125.294 78 123.094 81 121.194 83.3C118.794 86.2 116.794 89.3 114.694 92.4C113.394 94.3 116.494 96.1 117.794 94.2C119.094 92.3 121.094 91.1 122.594 89.4C124.094 87.7 121.594 85.1 120.094 86.9C117.794 89.5 114.894 92.1 113.794 95.6C112.694 99.1 115.994 98.6 117.094 97C120.894 91.1 127.294 87.3 130.594 81C131.394 79.4 129.794 77.7 128.194 78.6C124.094 80.8 119.594 82.8 116.294 86.3C114.594 88.2 113.294 90.4 112.794 92.9C112.294 95.4 112.394 98 111.794 100.5C112.994 100.7 114.094 100.8 115.294 101C115.294 99.7 114.794 97.5 115.994 96.6L112.994 95.3C112.994 96.1 112.994 97 112.994 97.8H116.594C116.594 94.5 117.894 91.3 118.294 88C118.494 86 115.194 85.6 114.794 87.5C113.994 91.1 112.694 94.6 110.794 97.8C111.894 98.1 112.994 98.4 114.094 98.7C114.194 93.9 115.594 88.7 113.294 84.2C110.994 79.7 110.394 83.2 109.994 84.6C108.994 89.2 110.394 93.7 109.694 98.3C110.694 98 111.694 97.8 112.694 97.5C110.294 94.9 108.094 92 105.194 90C102.294 88 101.794 91.4 102.994 92.8C104.194 94.2 105.994 96.3 107.594 98C109.194 99.7 110.994 98 110.594 96.3C109.394 92 106.594 88.5 104.894 84.5C104.094 82.7 100.894 84 101.594 85.9C102.294 87.8 103.794 89.2 104.894 90.9C106.094 92.7 107.294 94.5 108.094 96.4C109.594 99.7 109.994 103.4 112.594 106.1L114.294 103.1C114.294 103.1 115.294 101.1 115.294 101C115.294 100.9 114.094 102.6 114.094 102.3C113.894 101.6 113.894 100.8 113.894 100C113.894 98.5 114.094 97 114.094 95.5C114.094 93.2 110.594 93.2 110.494 95.5L110.794 95.4Z" fill="#280274"/>
    <path d="M119.194 76.9C121.294 74.4 123.394 72 125.594 69.7C127.794 67.4 127.294 68 128.094 67.3C128.494 67 128.994 66.7 129.394 66.4C132.394 64.8 130.894 64.7 124.794 65.9C122.994 64.9 121.194 63.8 119.394 62.8L119.694 63.1C118.694 61.3 117.594 59.5 116.594 57.7C115.994 55.6 116.094 53.6 116.994 51.8C116.294 52.9 116.294 52.9 117.194 51.8C115.894 53.2 114.594 54.1 112.994 55C108.894 57.2 103.794 59.7 101.594 65.7C101.194 66.5 100.994 67.4 100.794 68.3C102.794 65.3 103.194 64.7 101.894 66.3C100.394 67.6 99.1938 69.5 98.1938 71.3C95.0938 76.7 95.7938 83.8 100.194 88.3C108.494 96.6 119.494 92.3 126.194 84.8C128.194 82.5 129.794 82.3 132.894 81.3C135.994 80.3 141.594 78.4 145.294 75.7C150.194 72.2 152.894 66.4 150.294 60.5C147.694 54.6 141.794 51.6 135.994 53.5C129.794 55.5 120.594 59.6 117.294 65.5C113.994 71.4 115.894 79.2 121.694 82.7C124.994 84.7 128.694 85.1 132.494 85.3C150.994 86.1 161.094 67.7 158.694 51.2C157.694 44.7 149.494 41.1 143.694 42.7C136.794 44.6 134.194 51.1 135.194 57.7C135.194 57.1 134.794 59 134.594 59.6C135.094 58.5 133.694 61.1 133.694 60.9C133.694 61.5 132.994 61.3 134.594 61.1C133.694 61.1 132.794 61.1 131.894 61.1C129.494 60.8 130.194 61.1 134.094 61.9C136.094 65.4 138.094 68.9 140.094 72.4V71.8C139.494 73.8 138.994 75.9 138.394 77.9L138.994 77C137.494 78.5 136.094 79.9 134.594 81.4C136.694 79.9 140.994 77.6 142.494 77.1C139.394 69.7 136.294 62.3 133.094 54.9C128.594 58.2 122.794 58.8 117.394 61.5C111.994 64.2 111.994 64.7 109.894 66.9C107.794 69.1 108.394 68.5 107.794 69.4L106.994 70.2C109.194 68.5 111.894 68.2 115.094 69.3L119.494 73.7L119.094 73C119.694 75 120.194 77.1 120.794 79.1L119.894 82.8C119.194 83.7 119.094 83.8 119.594 83.2C119.894 83.2 123.494 77.8 122.394 79.6C123.094 78.5 123.594 77.3 123.994 76.1C124.294 75.5 124.494 74.8 124.594 74.2C124.694 73.3 124.794 73.3 124.794 74.1C123.294 75.6 121.894 77 120.394 78.5C122.394 77.2 125.694 76.1 128.194 74.3C131.594 72 134.694 69.3 136.994 65.9C140.794 60.4 142.394 53 137.994 47.3C126.894 33 109.594 50.8 102.094 59.8C97.894 64.9 97.194 72 102.094 77C106.994 82 115.094 82.1 119.294 77L119.194 76.9Z" fill="#280274"/>
    <path d="M121.094 55.9L121.394 56.3C125.894 61.3 133.994 60.7 138.594 56.3C143.194 51.9 143.094 50.8 144.594 47.5C145.194 46.2 145.794 44.8 146.494 43.6C147.294 42.4 147.294 42.2 146.594 43.1C148.694 41.2 147.394 41.6 142.794 44.2C140.794 43.6 138.694 43.1 136.694 42.5L137.294 42.9C135.794 41.4 134.394 40 132.894 38.5L131.894 35C131.894 35.4 131.894 35.9 131.894 36.3C131.794 36.7 131.894 37.7 131.894 38.1C131.894 37 132.494 36.4 131.894 37.7C130.794 40.1 133.094 36 133.094 36C134.894 35 136.694 33.9 138.494 32.9C139.094 32.7 147.394 34.5 147.394 35.9C147.394 35.5 146.494 34.3 146.294 33.9C145.894 33.2 145.594 32.3 146.094 33.5C145.794 32.7 145.494 31.9 145.294 31.1C144.894 29.8 144.594 28.2 144.194 27.2C143.794 26.2 144.194 25.9 144.194 25.9C143.994 25.9 142.094 29.3 141.494 29.6C139.494 30.2 137.394 30.7 135.394 31.3C134.794 31.2 134.194 31.1 133.594 31C131.794 30 129.994 28.9 128.194 27.9C126.994 26.7 126.494 25.4 126.694 23.9C126.794 22.2 126.694 22.3 126.294 23.9C126.994 23 125.394 25.2 125.194 25.5C123.794 27.4 126.094 23.6 123.994 26.8C121.894 30 123.494 25.8 126.794 26.2C128.794 26.8 130.894 27.3 132.894 27.9C134.994 32.7 136.094 34.1 136.294 32.1C137.194 25.6 134.694 19 127.794 17.1C121.094 15.3 114.994 19.4 112.794 25.6C113.194 24.4 110.594 27.4 110.194 27.8C108.494 29.3 106.894 30.8 105.394 32.5C101.394 37 98.5938 42.1 96.8938 47.9C95.3938 53.1 94.894 58.7 94.794 64.1C94.794 66.8 94.794 69.4 94.794 72.1C94.794 74.8 94.7938 74.4 94.8938 75.6C95.1938 78.5 93.8939 77 95.6939 74.6L100.094 70.2L99.1939 70.7C101.194 70.1 103.294 69.6 105.294 69C107.094 68.8 109.994 72.8 110.394 72.6C110.194 72.7 110.594 70.6 110.394 71.5C110.994 68 112.294 64.5 113.594 61.1C114.894 57.7 116.294 55.1 117.794 52.2C119.294 49.3 120.494 45.5 122.594 42.8C121.294 44.5 122.594 42.9 122.994 42.6C123.694 42.1 124.394 41.4 125.094 40.8C126.694 39.5 128.294 38.2 129.694 36.7C134.994 31.3 137.494 22.8 131.394 16.7C118.994 4.29999 100.994 22.2 95.294 33C92.294 38.7 90.5939 44.8 88.4939 50.8C87.3939 54 85.9939 57 85.1939 60.3C84.3939 63.6 84.1939 67.1 83.1939 70.6H106.594C106.794 71.8 106.694 69.1 106.794 68.7C106.794 67.9 106.994 67.2 107.094 66.4C107.494 63.9 107.794 61.3 108.294 58.9C109.294 54.2 111.294 49.6 113.894 45.6C116.194 42.1 118.594 37.9 121.694 35.2C124.794 32.5 128.194 31.8 131.794 30.9C146.994 27.2 140.594 3.8 125.294 7.5C118.194 9.2 111.094 12.2 105.494 17.1C100.394 21.5 96.394 27.8 92.794 33.4C88.894 39.4 85.6939 46.9 84.4939 54C83.1939 61.7 81.5939 69.3 82.9939 77.1C85.2939 89.5 103.194 87.8 106.394 77.1C107.794 72.6 107.894 68 109.394 63.6C110.894 59.2 112.394 55.1 113.794 50.9C114.794 48.1 115.994 44.9 117.394 42.8C118.794 40.7 120.294 39.1 121.894 37.9C123.494 36.7 124.394 37.2 121.894 37.2C119.894 36.6 117.794 36.1 115.794 35.5L116.494 35.9C114.594 33.5 112.794 31.1 110.894 28.6V28.9C110.894 26.7 110.894 24.6 110.894 22.4C111.194 21.3 113.794 18.5 112.194 19.5C110.594 20.5 110.394 21.2 109.594 21.9C108.094 23.2 106.394 24.5 104.894 25.9C100.194 30.5 97.6939 37.3 94.6939 43.1C88.2939 55.7 79.394 76.8 92.094 88.5C98.994 94.9 110.894 95.2 116.294 86.7C120.394 80.4 118.594 72 118.694 64.9C118.694 59.7 118.994 53.7 122.194 49.7C123.994 47.3 126.594 45.6 128.694 43.5C132.094 40.1 134.394 36.6 135.894 32.1C128.094 29.9 120.294 27.8 112.494 25.6C110.994 35.8 112.494 48.2 124.794 50.3C133.594 51.8 140.194 45.4 144.894 38.9C149.894 32.1 152.394 22.2 147.994 14.4C143.094 5.80001 131.194 4.3 124.494 11.8C115.194 22.2 119.894 42.9 129.194 52.3C135.994 59.1 147.494 58.5 152.694 50C155.394 45.5 156.294 39.8 155.894 34.6C154.894 22.1 142.594 15.6 132.194 23.4C128.994 25.8 126.594 28.9 124.794 32.4C123.994 33.9 123.394 35.4 122.594 36.9C121.794 38.4 122.094 38 121.694 38.5C120.694 40.1 123.394 36.9 121.094 39.1H138.294L137.994 38.7C133.594 33.8 125.294 34.2 120.794 38.7C115.994 43.5 116.394 51 120.794 55.9H121.094Z" fill="#280274"/>
    <path d="M119.594 11.9L118.894 12.8C120.394 11.3 121.794 9.9 123.294 8.4C125.094 7.2 121.694 8.39999 120.894 8.69999C118.894 9.19999 116.994 10.2 115.094 10.9C112.294 12 109.094 12.7 106.194 14.3C99.994 17.8 97.494 23.8 94.194 29.6C86.694 43.3 107.694 55.6 115.194 41.9C115.894 40.6 118.994 36.3 118.894 34.9C118.894 33.3 117.494 36.8 117.294 35.7C117.294 35.7 121.394 34.4 121.594 34.3C124.694 33.1 126.394 32.4 129.494 31.8C134.394 30.8 137.594 28.2 140.594 24.2C144.594 19 141.394 10.6 136.194 7.6C129.994 4 123.494 6.69999 119.594 12V11.9Z" fill="#280274"/>
    <path d="M124.494 9.00001C108.594 9.70001 94.0937 24.2 90.3937 39.1C88.7937 45.5 92.3937 52.3 98.8937 54.1C105.394 55.9 112.294 52 113.894 45.6C114.294 43.8 114.894 42 115.194 41.4C115.694 40.6 114.994 41.4 116.194 40.2C116.994 39.4 117.794 38.6 118.594 37.8C120.094 36.3 120.594 35.6 121.794 34.9C122.994 34.2 123.394 34.1 124.294 33.7C126.794 32.4 125.194 33.4 124.494 33.4C131.094 33.1 136.694 28 136.694 21.2C136.694 14.4 131.094 8.70001 124.494 9.00001Z" fill="#280274"/>
    <path d="M91.7939 40.3C91.7939 35.7 93.9938 31.6 95.8938 27.5C97.6938 23.7 99.9939 20.3 103.494 17.8C106.694 15.5 110.394 13.9 113.994 12.4C118.294 10.7 122.394 9.8 126.994 9.7C131.594 9.6 129.294 6.10001 126.994 6.10001C119.594 6.10001 112.594 8.6 105.994 12C102.994 13.6 100.094 15.5 97.7939 18C95.1939 20.8 93.4939 24.1 91.9939 27.6C90.4939 31.1 88.3939 35.6 88.2939 40.2C88.2939 42.5 91.7938 42.5 91.8938 40.2L91.7939 40.3Z" fill="#280274"/>
    <path d="M143.794 12.3C148.994 16.9 156.394 13 162.394 13.2C163.894 13.2 165.594 13.6 166.894 14.3C168.194 15 169.294 16.6 170.294 18.1C171.294 19.6 172.694 21.6 173.794 23.5C174.894 25.4 175.594 27.6 176.394 29.6C177.294 31.8 178.294 34 179.094 36.2C179.894 38.4 180.794 40.8 181.994 42.8C183.194 44.8 183.994 44 184.794 43.2C187.194 41 185.494 36.7 184.594 34.2C183.994 32.6 183.494 30.9 182.694 29.4C181.894 27.9 179.994 25.4 178.594 23.6C177.194 21.8 176.694 23 176.094 23.6C175.494 24.2 175.494 25.4 176.094 26.1C177.294 27.6 178.494 29 179.394 30.7C180.094 32 180.494 33.3 180.994 34.7C181.494 36.1 181.894 37.2 182.194 38.4C182.494 39.6 182.394 39.5 182.394 40C182.394 40.5 182.394 40.3 182.394 40.5C182.394 40.9 182.594 40.5 182.394 40.7L185.194 41.1C184.094 39.3 183.294 37.3 182.594 35.3C181.894 33.3 181.094 31.3 180.194 29.3C179.294 27.2 178.594 25 177.594 23C176.594 21 175.294 19.2 174.094 17.4C172.994 15.8 172.094 13.9 170.594 12.6C169.094 11.3 167.694 10.6 165.994 10.2C162.694 9.3 159.394 9.8 156.094 10.3C152.794 10.8 152.394 10.9 150.494 10.9C148.594 10.9 147.394 10.8 146.194 9.8C144.494 8.3 141.994 10.8 143.694 12.3H143.794Z" fill="#280274"/>
    <path d="M157.394 23.4C159.094 25.4 159.194 28.5 159.194 31C159.194 33.5 158.894 36.7 158.894 39.6C158.894 47.2 159.794 55 157.894 62.4C156.994 66 155.394 69.3 152.494 71.7L155.294 73.9C157.094 70.6 159.994 68.1 161.294 64.5C162.094 62.3 162.694 60 163.294 57.7C163.894 55.4 164.494 53.4 164.894 51.2C165.694 46.8 165.794 42.3 165.694 37.9C165.694 35.9 165.294 34.1 164.694 32.2C164.094 30.3 163.994 28.3 163.094 26.5C162.194 24.7 159.794 25.7 159.794 27.4C159.794 30.6 160.494 33.8 160.994 37C161.494 40.1 161.394 43.3 161.994 46.4C162.594 49.5 162.294 51.7 161.494 54.6C160.794 57.1 160.394 59.8 159.094 62C160.194 62.3 161.294 62.6 162.394 62.9C162.394 61.5 162.894 60.1 163.394 58.8C163.894 57.3 164.194 55.8 164.594 54.3C165.494 50.9 166.094 47.5 166.094 44C166.094 41.7 162.494 41.7 162.494 44C162.494 45.7 162.494 47.5 162.094 49.2C161.694 50.9 161.294 52.5 160.894 54.2C160.294 57 158.794 59.9 158.794 62.8C158.794 64.6 161.194 65.2 162.094 63.7C163.494 61.3 163.994 58.6 164.794 55.9C165.594 52.9 166.194 50.1 165.694 47C165.494 45.5 165.094 44 164.994 42.5C164.994 40.8 164.894 39.2 164.594 37.5C164.094 34.1 163.394 30.7 163.294 27.2C162.194 27.5 161.094 27.8 159.994 28.1C160.794 29.7 160.794 31.6 161.394 33.4C161.994 35.2 162.194 36.8 162.194 38.7C162.194 42.8 162.194 47 161.294 51C160.394 55.2 159.294 59.4 157.894 63.4C156.694 66.6 153.894 68.9 152.294 71.9C151.294 73.8 153.594 75.3 155.094 74.1C161.094 69.2 162.494 60.6 162.794 53.3C163.094 46 162.794 44.8 162.694 40.6C162.594 36.4 162.994 34.1 162.994 30.9C162.994 27.3 162.494 23.6 160.194 20.8C159.594 20 158.294 20.2 157.694 20.8C157.094 21.4 157.094 22.6 157.694 23.3L157.394 23.4Z" fill="#280274"/>
    <path d="M160.194 21.1V20.8L159.894 21.3C159.894 21.3 159.894 21.3 160.094 21.3C159.794 21.3 160.294 21.3 160.094 21.3C160.394 21.3 160.394 21.3 160.594 21.3C161.394 21.3 162.594 21.7 163.494 22.1C164.394 22.5 164.194 22.4 164.594 22.6C164.994 22.8 164.894 22.8 165.094 22.9C165.294 23 165.594 23.3 165.194 22.9C166.694 24.2 167.794 25.8 168.794 27.3C169.794 28.8 170.994 30.3 171.894 31.9C172.794 33.5 173.194 35.3 173.494 37.1C174.394 41.3 176.094 45 177.794 48.9C179.494 52.8 179.794 53.4 180.594 55.6C181.494 57.9 181.794 60.4 182.894 62.5C183.994 64.5 187.094 62.7 185.994 60.7C184.894 58.6 184.594 56 183.694 53.8C182.794 51.6 181.794 49.2 180.694 46.9C179.694 44.7 178.594 42.6 177.894 40.3C177.194 38.2 176.894 35.9 176.294 33.7C175.694 31.5 174.694 29.9 173.394 28.1C172.094 26.3 170.994 24.4 169.594 22.6C168.194 20.8 165.494 18.8 162.594 18C159.694 17.2 159.694 17.4 158.394 18C156.694 18.7 156.294 20.4 156.594 22C156.994 24.3 160.494 23.3 159.994 21.1H160.194Z" fill="#1D1D1B"/>
    <path d="M176.094 47.8C177.594 51.4 178.594 55.1 180.294 58.6C181.994 62.1 181.994 59.7 182.694 59.2C183.394 58.7 183.794 57.7 183.294 56.8C182.594 55.3 181.994 53.7 181.394 52C180.794 50.3 180.194 48.6 179.494 46.9C178.794 45.2 178.294 45.3 177.294 45.7C176.294 46.1 175.694 47 176.094 47.9V47.8Z" fill="#1D1D1B"/>
    <path d="M139.594 35C141.494 37.7 140.894 40.1 141.194 43.2C141.494 46.3 142.894 50.4 143.094 53.9C143.594 66.3 161.394 66.2 162.194 53.9C162.994 41.1 164.994 24.3 155.794 14C147.594 4.8 134.094 18.4 142.294 27.5C143.394 28.7 142.794 27.9 142.994 29.9C143.194 32.5 143.494 35 143.494 37.6C143.694 43 143.494 48.5 143.094 53.9H162.194C161.994 49.2 160.294 44.7 160.194 40C160.094 34.8 159.094 29.6 156.094 25.3C153.094 21.1 147.694 19.1 142.994 21.9C138.794 24.3 136.594 30.7 139.594 35Z" fill="#280274"/>
    <path d="M155.894 21.4C156.994 20.9 155.194 21.6 156.294 21.2C157.394 20.8 156.894 21 157.194 20.9C157.394 20.9 157.594 20.9 157.794 20.8C157.294 20.8 157.294 20.8 157.594 20.8C157.894 20.8 158.194 20.8 158.594 20.8C158.994 20.8 159.394 20.8 159.694 20.8C160.494 20.8 159.294 20.7 159.794 20.8C160.294 20.9 161.194 21.1 161.794 21.3C162.394 21.5 162.994 21.9 162.194 21.4C162.494 21.6 162.794 21.7 163.094 21.8C163.694 22.1 164.294 22.5 164.894 22.9C164.394 22.5 164.794 22.9 165.094 23.1C165.394 23.3 165.694 23.6 165.994 23.9C166.594 24.5 167.094 25.1 167.594 25.7C167.194 25.2 167.694 25.9 167.794 26C167.994 26.3 168.194 26.6 168.394 26.9C168.894 27.6 169.294 28.4 169.794 29.1C170.594 30.4 171.294 31.8 171.994 33.2C172.694 34.6 173.394 36 173.994 37.4C174.594 38.8 174.394 38.3 174.194 37.8C174.394 38.2 174.494 38.6 174.694 39C174.994 39.8 175.294 40.6 175.494 41.4C176.094 43.6 178.594 45.2 180.894 44.5C183.194 43.8 184.594 41.5 183.994 39.1C182.894 35.3 181.194 31.7 179.294 28.2C177.494 24.8 175.594 21.4 172.994 18.5C170.494 15.7 167.194 13.6 163.594 12.6C159.994 11.6 155.394 11.9 151.594 13.7C149.494 14.7 148.794 17.8 149.994 19.7C151.194 21.6 153.794 22.3 155.994 21.3L155.894 21.4Z" fill="#280274"/>
    <path d="M165.094 12.2C163.794 12.2 162.594 12.4 161.294 12.4C160.694 12.4 160.094 12.5 159.594 12.8C159.094 13 158.594 13.3 158.194 13.7C157.794 14.1 157.494 14.6 157.294 15.1C156.994 15.6 156.894 16.2 156.894 16.8L157.094 18C157.294 18.7 157.694 19.4 158.194 19.9L159.094 20.6C159.794 21 160.494 21.2 161.294 21.2C162.594 21.2 163.794 20.9 165.094 21C165.694 21 166.294 20.9 166.794 20.6C167.294 20.4 167.794 20.1 168.194 19.7C168.594 19.3 168.894 18.8 169.094 18.3C169.394 17.8 169.494 17.2 169.494 16.6L169.294 15.4C169.094 14.7 168.694 14 168.194 13.5L167.294 12.8C166.594 12.4 165.894 12.2 165.094 12.2Z" fill="#280274"/>
    <path d="M175.694 38C176.094 41.8 176.694 45.7 177.694 49.4C178.694 53.1 180.194 56.5 181.194 60.2C181.694 62.1 181.994 64.1 182.694 65.9C183.594 68.6 185.094 71.9 188.194 72.5C191.294 73.1 192.894 71.8 193.594 69.4C195.394 63.4 192.694 58 190.094 52.7C189.794 52.1 189.594 51.6 189.294 51C188.994 50.4 189.194 50.7 189.294 51C189.194 50.6 188.994 50.2 188.894 49.8C188.394 48.5 187.994 47.1 187.594 45.7C187.194 44.3 186.894 42.8 186.694 41.3C186.494 39.8 186.594 40.3 186.694 40.9C186.694 40.5 186.694 40.2 186.594 39.8C186.594 39 186.494 38.1 186.494 37.3C183.594 37.7 180.794 38.1 177.894 38.5C179.694 43.3 181.594 48.3 183.094 53.2C184.394 57.7 185.094 62.4 187.294 66.6C188.394 68.6 191.394 69.4 193.294 68.2C195.394 66.9 195.994 64.4 194.894 62.2C193.794 60 194.394 61.3 194.194 60.8C194.594 61.7 193.994 60.1 193.894 60C193.594 59 193.294 57.9 192.994 56.8C192.494 54.7 191.994 52.5 191.394 50.5C189.894 45.7 188.094 40.9 186.294 36.2C184.494 31.5 183.794 32.8 181.494 33.1C179.394 33.4 177.694 35.2 177.694 37.4C177.794 43.6 179.294 49.8 181.894 55.4C182.394 56.5 182.894 57.5 183.494 58.6C184.094 59.7 184.094 59.7 184.294 60.3C184.494 60.9 184.594 60.9 184.694 61.2C184.494 60.8 184.594 60.8 184.694 61.2C184.894 61.8 185.094 62.4 185.294 63C185.494 63.6 185.494 63.6 185.494 63.9C185.494 64.2 185.594 65 185.494 64C185.494 64.6 185.494 65.1 185.494 65.7C185.494 66.3 185.694 65.1 185.494 65.9C185.294 66.7 185.294 66.7 185.194 67.1C186.994 66.1 188.794 65.1 190.594 64C189.994 63.9 191.694 64.5 191.094 64.2L191.694 64.7C191.494 64.5 191.494 64.5 191.694 64.9C191.694 64.9 191.494 64.5 191.394 64.3C190.994 63.6 191.694 65.2 191.394 64.3C191.094 63.4 191.194 63.9 191.194 63.6C190.994 63.1 190.894 62.6 190.694 62.1C190.194 60.2 189.794 58.3 189.294 56.5C188.394 53.3 187.094 50.2 186.194 47C185.294 43.8 185.394 43.8 185.094 42.1C184.794 40.4 184.794 40.6 184.694 39.9C184.794 40.7 184.694 39.3 184.694 39.3C184.694 38.9 184.594 38.4 184.594 38C184.394 35.7 182.794 33.5 180.194 33.6C177.994 33.6 175.594 35.5 175.794 38H175.694Z" fill="#280274"/>
    <path d="M178.894 42.5C178.994 44 179.294 45.4 179.894 46.8C180.294 47.7 180.594 48.5 181.094 49.4C181.594 50.3 181.294 49.9 181.494 50.1C181.694 50.3 181.994 51.1 181.794 50.7C181.594 50.3 182.094 51.4 182.094 51.4C182.194 51.7 182.294 52 182.394 52.2C182.594 52.8 182.894 53.5 183.094 54.1C183.294 54.7 183.594 55.4 183.794 56C183.994 56.6 184.194 56.9 184.394 57.3C185.094 59 184.194 56.6 184.694 58C186.694 63.4 187.294 69.1 189.694 74.4C190.494 76.1 192.994 77 194.594 76.4C196.494 75.8 197.694 74.2 197.794 72.2C198.094 68.5 196.994 64.9 195.594 61.5C194.194 58.1 192.994 55.1 192.494 51.6C191.994 48.1 190.694 44.9 189.994 41.4C189.394 38.1 188.494 34.6 186.594 31.7C185.594 30.1 183.594 29.1 181.694 29.7C179.894 30.3 178.394 31.9 178.494 33.9C178.494 38.3 180.494 42.4 181.894 46.4C182.594 48.4 183.394 50.5 183.994 52.6C184.594 54.7 184.594 54.7 184.794 55.7C184.994 56.7 184.994 56.6 185.094 57.1C185.094 57.4 185.194 57.7 185.294 58C185.294 58.5 185.294 58.6 185.294 58.2C185.594 60.5 187.094 62.7 189.694 62.6C191.794 62.6 194.394 60.7 194.094 58.2C193.494 53.6 192.294 49.3 190.694 44.9C189.994 42.9 189.294 41 188.594 39C187.894 37 187.894 37.1 187.694 36.1C187.494 35.1 187.494 35.3 187.394 34.8C187.394 34.2 187.394 34.3 187.394 34.8C187.394 34.5 187.394 34.2 187.394 34C184.694 34.7 181.994 35.5 179.194 36.2C179.594 36.8 179.994 37.5 180.294 38.1C179.894 37.2 180.294 38.4 180.394 38.5C180.494 38.9 180.594 39.3 180.794 39.6C181.194 41 181.494 42.4 181.794 43.9C182.494 47.3 183.794 50.5 184.294 53.9C184.794 57.3 185.994 60.1 187.194 63.2C187.794 64.8 188.394 66.4 188.894 68.1C188.994 68.5 189.094 68.9 189.194 69.3C189.294 69.7 189.394 70.7 189.194 69.8C189.194 70.6 189.194 71.4 189.194 72.2C191.894 71.5 194.594 70.7 197.394 70C197.394 69.8 197.094 69.4 197.394 69.8C197.294 69.5 197.094 69.1 196.994 68.8C196.794 68.2 196.594 67.7 196.494 67.1C196.094 65.8 195.794 64.5 195.494 63.2C194.894 60.7 194.394 58.1 193.394 55.7C192.394 53.3 193.194 55.1 193.094 54.9C192.994 54.7 192.394 53.3 192.794 54.1C192.494 53.5 192.294 52.9 192.094 52.2C191.594 51 191.194 49.8 190.694 48.6C190.194 47.4 189.494 45.8 188.894 44.5C188.294 43.2 188.694 44 188.494 43.7C188.694 44.1 188.494 43.9 188.494 43.6C188.494 43.3 188.294 43 188.194 42.6C188.094 42.2 187.994 41.5 188.194 42.4C187.994 40.1 186.294 37.9 183.794 38C181.294 38.1 179.194 39.9 179.394 42.4L178.894 42.5Z" fill="#280274"/>
    <path d="M187.594 76.5C188.294 76.9 186.994 76 187.394 76.3C188.094 76.9 187.394 76.1 187.394 76.1C187.594 76.1 188.094 77.3 188.194 77.4C188.494 77.9 188.694 78.4 188.894 78.9C188.394 77.9 189.094 79.3 189.194 79.7C190.094 82.1 190.794 84.4 191.294 87C191.794 89.6 191.494 88.3 191.594 88.9C191.694 89.5 191.594 89.6 191.694 89.9C191.594 89 191.694 90.3 191.694 90.5C191.894 92 192.094 93.4 192.294 94.9C192.794 97.8 193.594 100.6 194.994 103.2C196.694 106.4 202.194 105.8 202.994 102.2C204.194 96.7 204.094 91 203.194 85.5C202.794 83 201.894 80.6 201.494 78C201.094 75.4 201.394 77.3 201.294 76.9C201.194 76.1 201.394 78 201.294 76.5C201.194 75 200.994 74.6 200.794 73.6C200.594 72.6 200.494 72.3 200.294 71.7C200.094 71.1 200.094 71 199.994 70.6C199.894 70.2 199.794 69.2 199.894 70C199.694 67.7 197.994 65.5 195.494 65.6C193.294 65.6 190.894 67.5 191.094 70C191.294 72.5 191.594 73.2 191.994 74.8C192.394 76.4 192.294 76.2 192.494 76.9C192.694 77.6 192.394 75.9 192.494 77.3C192.594 78.7 192.594 78.4 192.694 78.9C193.094 81.5 193.894 84 194.394 86.5C194.494 87.1 194.594 87.6 194.694 88.2C194.694 87.6 194.694 88 194.694 88.4C194.694 88.8 194.694 89.1 194.694 89.4C194.794 90.7 194.894 91.9 194.894 93.2C194.894 94.5 194.894 95.7 194.694 96.9C194.494 98.1 194.694 97.5 194.694 97.8C194.694 98.5 194.894 96.8 194.694 97.9C194.494 99 194.494 99 194.394 99.6C197.094 99.3 199.694 98.9 202.394 98.6C202.194 98.3 202.094 97.9 201.894 97.6C202.194 98.2 201.894 97.8 201.894 97.4C201.694 96.7 201.394 96 201.294 95.3C200.994 94 200.694 92.7 200.494 91.3C200.294 89.9 200.294 89.8 200.194 89.1C200.094 88.4 200.194 89.7 200.194 88.9C200.194 88.1 199.994 87.6 199.894 86.9C199.694 85.5 199.494 84.2 199.194 82.8C198.694 80.3 197.794 78.1 196.894 75.8C195.794 73.1 194.494 70.2 191.894 68.7C189.894 67.6 186.994 68.2 185.894 70.3C184.794 72.4 185.394 75.1 187.494 76.3L187.594 76.5Z" fill="#280274"/>
    <path d="M192.594 86.7V103.9C192.594 106.2 194.594 108.4 196.994 108.3C199.394 108.2 201.394 106.4 201.394 103.9V86.7C201.394 84.4 199.394 82.2 196.994 82.3C194.594 82.4 192.594 84.2 192.594 86.7Z" fill="#280274"/>
    <path d="M195.494 104.2C195.494 105 195.494 105.8 195.494 106.5C195.394 107.3 194.994 107.9 194.694 108.6C193.894 110.1 193.194 111.7 192.794 113.3C191.894 116.7 190.394 119.6 187.894 122.1L190.094 123.4C191.094 120.4 193.294 117.9 194.494 114.9C195.694 112 196.894 108.9 196.794 105.7C196.794 104 194.194 104 194.194 105.7C194.194 108.5 194.294 111.4 193.594 114.1H196.094C195.594 112.6 195.994 110.9 195.894 109.4C195.894 108.2 194.094 107.6 193.494 108.7C192.894 109.8 192.694 111.6 192.194 113.1C193.094 113.2 193.894 113.3 194.794 113.4C194.694 110.9 194.794 108.5 194.794 106L192.394 106.7C194.594 109.8 195.194 113.8 195.694 117.5C196.194 121.2 197.394 119.3 198.094 118.2C199.494 116.1 200.094 113.6 200.494 111.2C200.894 108.8 201.094 106.2 201.094 103.7L198.494 104C199.594 107.1 200.094 110.4 200.494 113.6C200.894 116.8 202.694 114.7 202.994 113.6C203.894 110.3 203.694 106.4 202.794 103.1C201.894 99.8 200.194 102 200.194 103.4C200.394 107.3 200.794 111.3 202.394 114.9C202.794 115.9 204.594 115.7 204.794 114.6C205.294 111.2 204.394 108.1 204.194 104.8C203.294 104.9 202.494 105 201.594 105.1C202.294 109.1 203.094 113.2 203.594 117.3C204.094 121.4 206.194 119 206.194 117.3C206.194 108 204.394 98.9 202.194 89.9L199.794 90.9C201.194 93.4 202.594 95.9 203.694 98.5C204.694 101 205.594 103.9 204.594 106.6L206.994 106.3C205.594 103.2 206.094 99.6 204.794 96.5C204.194 95 201.694 95.6 202.294 97.2C204.794 103.6 204.294 110.6 204.294 117.3H206.894C206.894 114.4 206.494 111.4 206.894 108.5L204.494 108.8C205.294 110.2 205.594 111.8 205.594 113.4C205.594 115 205.594 116.7 205.294 118.3L206.594 117.3C205.394 117.3 204.294 117.1 203.194 116.8C201.894 116.5 200.694 116.4 199.394 116.6C196.994 117 194.794 118.1 192.494 118.5L193.994 120.4C194.594 119.7 195.494 119.2 196.294 118.8C197.094 118.4 198.094 117.8 198.794 117.1C199.494 116.4 198.794 114.7 197.494 114.9C196.194 115.1 195.494 115.7 194.494 115.6L195.794 116.9C195.794 115.2 196.994 113.6 197.794 112.2C196.994 112 196.194 111.8 195.394 111.5C195.394 112.8 194.594 113.9 194.094 115C194.894 115.2 195.694 115.4 196.494 115.7C196.694 113.4 197.094 110.9 198.094 108.8C197.294 108.6 196.494 108.4 195.694 108.1C195.694 109 195.594 109.9 195.394 110.8C195.194 112.4 197.494 113.2 197.894 111.5C198.194 110.4 198.394 109.3 198.794 108.2C197.894 108.1 197.094 108 196.194 107.9C196.194 109.9 195.894 111.9 196.094 113.8C196.294 115.7 197.794 115.6 198.494 114.5C198.794 114.1 199.094 113.8 199.494 113.5L197.694 113C198.194 114.1 197.994 115.4 197.994 116.5C197.994 117.8 199.694 118.2 200.394 117.2C201.094 116.2 201.294 115.6 201.794 114.8H199.594C199.994 115.6 200.194 116.6 200.894 117.3C201.794 118.1 203.094 117.9 204.194 117.8C204.094 116.9 203.994 116.1 203.894 115.2C202.694 115.6 201.394 115.2 200.194 115.1L201.094 117.3C201.094 117.3 201.494 117.2 201.694 117.1C203.294 116.7 202.594 114.2 200.994 114.6C199.394 115 199.794 115 199.294 115.4C198.394 116.2 199.194 117.5 200.194 117.6C201.694 117.7 203.094 118.1 204.594 117.6C206.094 117.1 205.794 114.9 204.294 115C202.794 115.1 203.294 115.1 202.794 115C202.294 114.9 202.794 115 202.594 115C202.694 115.1 202.694 115.1 202.594 115C202.594 114.9 202.594 115 202.494 114.7C202.294 114.2 202.094 113.8 201.894 113.3C201.494 112.4 200.094 112.5 199.694 113.3C199.194 114.1 198.794 114.9 198.294 115.7L200.694 116.4C200.694 114.7 200.694 113.2 200.094 111.6C199.794 110.9 198.894 110.8 198.294 111.1C197.494 111.6 196.794 112.2 196.294 113L198.694 113.7C198.494 111.7 198.894 109.8 198.794 107.8C198.694 105.8 196.694 106.1 196.194 107.5C195.694 108.9 195.594 109.7 195.294 110.8C196.094 111 196.994 111.3 197.794 111.5C197.994 110.4 198.094 109.2 198.194 108.1C198.294 107 196.294 106.3 195.794 107.4C194.594 110 193.994 112.8 193.794 115.6C193.594 118.4 195.694 117.4 196.194 116.3C196.694 115.2 197.894 113.3 197.894 111.5C197.894 109.7 196.094 109.7 195.494 110.8C194.494 112.7 193.194 114.6 193.194 116.8C193.194 119 193.794 118.1 194.494 118.1C195.794 118.1 196.894 117.5 198.194 117.3L196.894 115.1C196.094 115.8 195.094 116.3 194.194 116.8C193.294 117.3 192.294 118.1 191.594 119C190.894 119.9 190.226 121.7 191.226 121.5C193.526 121.1 197.394 119.4 199.694 119C201.994 118.6 204.194 119.8 206.594 119.7C208.994 119.6 207.694 119.3 207.894 118.7C208.194 116.8 208.394 114.8 208.194 112.8C207.994 110.8 207.694 108.8 206.694 107.2C205.694 105.6 204.494 106.3 204.294 107.5C203.794 110.6 204.194 113.8 204.194 117C204.194 118.7 206.794 118.7 206.794 117C206.794 110 207.294 102.8 204.694 96.2C203.894 96.4 202.994 96.7 202.194 96.9C203.494 100.3 203.094 104 204.594 107.4C205.094 108.5 206.594 108 206.994 107.1C208.094 104.1 208.994 103.3 207.894 100.5C206.794 97.7 203.494 92.2 201.894 89.4C201.194 88.1 199.194 89 199.494 90.4C201.594 99.2 203.294 108.1 203.394 117.1H205.994C205.494 112.8 204.694 108.5 203.894 104.2C203.094 99.9 201.294 103.1 201.294 104.5C201.494 107.5 202.494 110.6 201.994 113.6L204.394 113.3C202.994 110.2 202.794 106.5 202.594 103.1C201.694 103.2 200.894 103.3 199.994 103.4C200.694 106.2 200.994 109.7 200.194 112.5H202.694C202.194 109.3 201.794 106 200.694 102.9C200.194 101.6 198.094 101.7 198.094 103.2C198.094 105.5 197.994 107.8 197.594 110.1C197.194 112.4 196.694 114.6 195.494 116.5C196.294 116.7 197.094 116.9 197.894 117.2C197.394 113.1 196.694 108.6 194.294 105.1C193.594 104.1 191.794 104.4 191.894 105.8C191.994 108.3 191.894 110.7 191.894 113.2C191.894 115.7 194.094 115 194.494 113.5C194.894 112 194.794 110.8 195.494 109.7L193.094 109C193.094 110.8 192.794 112.7 193.394 114.4C193.994 116.1 195.594 115.7 195.894 114.4C196.594 111.4 196.594 108.4 196.494 105.3H193.894C193.994 108.3 192.894 111.3 191.594 114C190.294 116.7 188.194 119.3 187.194 122.3C186.794 123.6 188.494 124.4 189.394 123.6C192.094 120.9 193.894 117.6 194.894 113.9C195.394 112.1 196.094 110.6 196.894 109C197.794 107.3 197.894 105.7 197.894 103.8C197.894 101.9 195.294 102.1 195.294 103.8L195.494 104.2Z" fill="#280274"/>
    <path d="M82.8938 60.3C82.6938 63.3 81.2939 66.2 80.4939 69C79.6939 71.8 78.8939 75.8 78.2939 79.2C77.0939 86.1 76.8938 93 76.8938 100C76.8938 101.7 79.4939 101.7 79.4939 100C79.4939 93.1 79.6938 86.1 80.8938 79.2C82.0938 72.3 82.1938 72.4 83.1938 69C83.9938 66.1 85.2939 63.3 85.4939 60.2C85.5939 58.5 82.9938 58.5 82.8938 60.2V60.3Z" fill="#280274"/>
    <path d="M82.9939 122.4C87.2939 126.8 92.8939 128.8 97.9939 131.9C102.994 134.9 108.794 130 107.494 124.6C106.494 120.6 103.194 117.8 100.294 115.2C97.3939 112.6 96.8939 112.3 94.9939 111.1C93.3939 110 91.494 109.3 90.594 107.4C87.594 110.4 84.6938 113.3 81.6938 116.3C83.7938 117.3 85.2938 119.7 86.8938 121.5C89.1938 124 91.4938 126.5 94.3938 128.4C99.3938 131.7 105.094 126.3 103.894 121.1C102.694 115.9 98.8938 113.3 95.3938 109.7C93.2938 113.3 91.194 116.9 89.094 120.5C92.294 121.4 94.4939 124.3 96.7939 126.5C97.7939 127.5 99.4938 129.6 100.894 129.9C102.094 130.8 102.094 130.4 100.694 128.6C100.694 129.5 100.894 130.4 101.094 131.3C102.794 139.5 115.294 136 113.594 127.9C111.894 119.8 112.694 123.2 110.794 121.2C108.894 119.2 107.094 118.5 105.494 116.9C101.594 113.2 97.894 109.6 92.594 108C87.294 106.4 81.8939 114.3 86.2939 118.8C87.8939 120.5 90.8938 122.2 91.3938 124.4C94.5938 122 97.7938 119.5 100.894 117.1C95.9938 113.9 93.5938 107.6 88.1938 105.1C82.0938 102.2 76.5939 108 79.2939 114C81.0939 117.9 84.8939 120.1 88.2939 122.4C91.6939 124.7 94.4938 126.7 94.8938 128.2C98.0938 125.8 101.294 123.3 104.394 120.9C100.294 118.4 95.3939 116.9 91.9939 113.4C86.1939 107.4 76.9939 116.6 82.7939 122.6L82.9939 122.4Z" fill="#280274"/>
    <path d="M79.0941 113C79.0941 115.6 79.194 118.1 79.294 120.7C79.394 123.3 79.294 124.5 80.494 126.1C82.494 128.8 85.894 130.3 88.994 131.3C92.094 132.3 91.094 130.3 90.494 129.4C87.794 125.1 83.2939 122.5 79.6939 119C79.2939 119.7 78.8939 120.4 78.3939 121.2C79.9939 121.5 81.3939 122.5 82.6939 123.4C83.9939 124.3 85.294 125.4 86.294 126.8C87.294 128.2 88.8939 127.6 88.6939 126.1C88.2939 123.1 86.194 120.8 84.494 118.4C82.794 116 81.8941 117.9 82.0941 119.4C82.4941 121.7 83.5939 123.9 84.8939 125.8C86.1939 127.8 87.594 129.7 89.294 131.3C89.794 130.6 90.3939 129.9 90.8939 129.3C90.4939 129.1 90.094 128.8 89.794 128.6C89.494 129.4 89.094 130.2 88.794 131C90.994 131.6 92.6939 133 94.6939 134C95.1939 134.2 95.794 134.2 96.294 133.8C96.794 133.4 96.794 132.7 96.494 132.2C94.694 129.8 91.8941 128.5 89.5941 126.7L87.994 128.7C91.494 131.2 95.994 132.1 99.294 135C100.194 135.8 101.394 135.2 101.494 134.1C101.594 133 100.694 132 99.994 131.3C98.994 130.3 97.8939 129.4 96.6939 128.5C94.0939 126.4 91.294 124.4 88.994 122C88.494 122.7 87.8939 123.4 87.3939 124C90.3939 126.2 93.694 127.9 96.994 129.6C100.294 131.3 99.8939 131.1 101.394 131.8C102.894 132.5 104.294 133.2 105.494 134.3C105.894 133.6 106.294 132.9 106.794 132.1C104.694 131.6 102.594 130.8 100.494 130.5C98.394 130.2 98.4941 130.3 97.5941 130.5C96.6941 130.7 96.5939 131 96.1939 131.3C95.7939 131.6 95.494 132 94.994 132.1C93.894 132.3 93.7939 134 94.6939 134.5C96.7939 135.7 99.1939 134.9 101.394 135.5C103.894 136.3 105.994 137.8 108.594 138C111.194 138.2 109.694 137.6 109.894 137C110.594 134.3 110.094 131.6 110.294 128.9C110.494 126.2 110.394 127.8 110.594 127.3C110.794 126.8 110.694 126.9 110.794 126.7C110.894 126.5 110.894 126.5 110.794 126.7C110.594 126.7 110.894 126.5 110.794 126.7C111.094 126.6 110.494 126.7 110.894 126.7C111.294 126.7 111.594 126.5 111.894 126.4C112.794 126.1 113.694 125.7 114.294 124.9C114.894 124.1 114.794 123.1 114.394 122.2C113.494 119.9 111.494 118.4 108.994 118.1C106.494 117.8 107.694 118.8 107.694 119.4C107.694 120 108.294 120.6 108.994 120.7C109.694 120.8 110.694 121.3 111.194 121.9C111.694 122.5 111.794 122.7 111.894 123.1C111.994 123.5 111.894 123.6 111.994 123.5C111.894 123.8 110.894 124.1 110.494 124.2C109.894 124.4 109.294 124.6 108.894 125C107.794 126.1 107.694 128.2 107.594 129.7C107.494 132 107.894 134.4 107.294 136.7L108.594 135.7C106.294 135.5 104.294 133.9 102.094 133.3C99.8941 132.7 99.9939 132.9 98.8939 132.9C97.7939 132.9 96.794 132.9 95.994 132.5C95.894 133.3 95.7939 134.1 95.6939 134.9C96.2939 134.8 96.794 134.5 97.294 134.1C97.794 133.7 97.894 133.4 98.294 133.2C98.894 132.9 99.7939 133.1 100.394 133.2C102.394 133.5 104.194 134.2 106.094 134.7C107.994 135.2 108.294 133.4 107.394 132.5C104.994 130.2 101.594 129.1 98.6939 127.6C95.7939 126.1 91.894 124.1 88.794 121.8C85.694 119.5 86.2939 122.8 87.1939 123.8C89.2939 126.1 91.9939 128 94.3939 130C95.3939 130.8 96.4939 131.6 97.3939 132.5C98.2939 133.4 98.2941 133.3 98.5941 133.8C98.5941 133.8 98.794 134 98.794 134.1C98.694 134 98.794 134.2 98.794 134.1C98.794 133.9 98.894 134.2 98.794 134.1L100.994 133.2C97.494 130.2 92.8941 129.2 89.0941 126.5C87.8941 125.6 86.394 127.6 87.494 128.5C89.594 130.1 92.394 131.3 93.994 133.5L95.794 131.7C93.594 130.7 91.594 129.1 89.294 128.5C86.994 127.9 87.194 130 88.294 130.9C89.394 131.8 88.9939 131.4 89.3939 131.6C90.6939 132.3 92.094 130.6 90.994 129.6C89.494 128.1 88.094 126.4 86.994 124.6C85.894 122.8 84.794 120.9 84.494 118.8C83.694 119.1 82.8941 119.5 82.0941 119.8C82.8941 120.8 83.6939 121.8 84.3939 122.9C85.0939 124 85.794 125 85.994 126.2L88.3939 125.5C87.2939 123.9 85.6941 122.5 84.0941 121.4C82.4941 120.3 80.794 119.2 78.994 118.8C77.194 118.4 76.7939 120 77.6939 121C80.9939 124.3 85.494 126.8 87.994 130.8C88.494 130.2 88.994 129.5 89.494 128.9C86.994 128 83.9939 126.9 82.3939 124.7C80.7939 122.5 81.6939 121.6 81.6939 120.1C81.6939 117.8 81.694 115.4 81.494 113.1C81.494 111.4 78.8939 111.4 78.8939 113.1L79.0941 113Z" fill="#280274"/>
    <path d="M85.294 75.1C85.394 75.5 85.2938 76 85.3938 75.3C85.3938 75.5 85.2938 76.4 85.3938 75.5C85.2938 76.1 85.0938 76.7 84.8938 77.3C84.6938 77.9 85.094 76.9 84.794 77.5C84.494 78.1 84.494 78.2 84.294 78.5C83.994 79.1 83.694 79.7 83.294 80.3C81.694 83.3 81.094 86.4 81.094 89.8C81.094 93.3 80.894 96.9 81.294 100.5C81.694 104.3 82.694 108 83.294 111.8C83.594 113.7 85.894 114.8 87.594 114.6C89.494 114.3 90.9939 112.7 90.9939 110.8C90.9939 108.9 90.9939 108.1 90.9939 106.7C89.3939 108 87.694 109.2 86.094 110.5C86.794 110.6 85.2938 110 85.8938 110.5C84.9938 109.9 85.5938 110.3 85.8938 110.5C86.4938 111 85.5939 110 85.9939 110.6C86.3939 111.2 86.394 111.2 86.594 111.5C87.194 112.5 87.6939 113.4 88.1939 114.4C89.9939 117.7 95.6939 116.3 95.4939 112.4C95.2939 108.5 94.9938 109.8 94.3938 108.5C93.7938 107.2 93.994 107.6 93.794 107.2C93.594 106.8 93.594 106.7 93.794 107C93.794 106.8 93.594 106.5 93.594 106.3C91.694 107.8 89.7938 109.2 87.8938 110.7C88.4938 111.1 87.7938 110.5 88.3938 111C88.9938 111.5 89.0939 111.7 89.4939 112C89.8939 112.3 90.0938 112.6 90.3938 112.9C90.6938 113.2 91.2938 114 90.8938 113.5C92.6938 111.7 94.4939 109.9 96.1939 108.2C95.7939 108 95.8939 108 96.1939 108.2C96.0939 108.1 95.994 108 95.794 107.9C95.694 107.8 94.9938 106.9 95.3938 107.5C94.9938 106.9 94.594 106.3 94.294 105.7C93.994 105.1 93.994 105.1 93.794 104.7C94.094 105.4 93.7939 104.5 93.6939 104.3C93.3939 103.6 93.1939 102.9 92.9939 102.1C92.6939 100.9 92.794 99 92.794 97.3C92.794 95.6 92.794 95.6 92.794 94.7C92.794 93.8 92.7938 93.7 92.8938 93.3C92.9938 92.9 92.8938 92.8 92.8938 92.5C92.8938 91.7 92.6938 93.4 92.8938 92.4C93.0938 91.4 93.294 90.3 93.594 89.3C93.594 89 93.894 88.3 93.594 89.3C93.594 89.1 93.8939 88.8 93.9939 88.6C93.9939 88.6 94.0939 88.4 94.1939 88.3C94.3939 88 94.2939 88.1 93.9939 88.6L94.3938 88.2C94.7938 87.7 93.6939 88.7 94.1939 88.3C94.6939 87.9 95.0939 87.9 93.9939 88.3C94.5939 88 94.0939 88.3 93.6939 88.3C93.0939 88.1 94.6939 88.2 93.6939 88.3C92.7939 86.7 91.8939 85.1 90.9939 83.5C90.9939 83.1 91.2939 82.8 91.4939 82.5L91.294 82.7C90.994 82.9 90.6939 83.2 91.1939 82.9C90.8939 83.1 90.6938 83.2 90.3938 83.4C89.6938 83.9 90.9939 83.3 90.1939 83.4C89.3939 83.5 90.894 83.4 91.094 83.4C91.694 83.7 91.794 83.7 91.594 83.6C91.294 83.5 91.4938 83.6 91.8938 83.9C91.8938 83.9 91.3938 83.5 91.3938 83.4C91.6938 83.8 91.794 83.9 91.594 83.7C91.594 83.6 91.4938 83.5 91.3938 83.4C91.2938 83.2 91.1939 82.9 90.9939 82.7C90.5939 81.9 91.1939 83.5 90.9939 82.6C90.7939 81.7 90.5939 81.5 90.4939 80.9C90.1939 79.9 89.9938 78.8 89.8938 77.8C89.7938 76.8 89.8938 78.8 89.8938 77.5C89.8938 76.2 89.8938 76.6 89.8938 76.1C89.8938 74.9 89.8938 73.8 89.8938 72.6C89.6938 69.5 89.0938 66.5 86.3938 64.6C84.5938 63.3 82.194 64.4 81.094 66C78.694 69.4 79.1938 73.8 78.8938 77.7C78.5938 81.6 78.294 82.2 78.094 84.5C77.894 86.9 78.094 89.3 78.094 91.8C78.194 96.3 78.094 100.9 78.094 105.4C77.994 109.9 78.094 114.6 79.594 118.8C81.094 123 82.2938 122.2 84.3938 121.5C86.2938 120.9 87.894 118.8 87.094 116.7C85.694 112.9 85.7938 109.6 85.8938 105.3C85.9938 100.9 86.0938 96.6 85.8938 92.2C85.8938 89.9 85.594 87.6 85.794 85.4C85.894 83.2 86.294 81 86.594 78.7C86.794 77 86.694 75.2 86.794 73.5C86.894 71.8 86.7938 72.5 86.8938 72.1C86.8938 72.8 86.8938 72 86.8938 71.7C86.8938 71.3 87.094 70.8 87.294 70.4C86.994 71.2 87.5939 70.1 87.6939 69.9C85.8939 70.4 84.0938 70.8 82.3938 71.3C81.8938 70.9 81.794 70.8 82.094 71.1C81.694 70.6 81.594 70.5 81.794 70.8C81.294 69.8 81.694 70.5 81.794 70.8C81.894 71.1 81.9939 71.5 81.9939 71.9C81.8939 71.3 81.9939 71.5 81.9939 72C82.0939 73.4 81.9939 74.7 81.9939 76.1C81.9939 78.5 82.3939 80.9 82.9939 83.2C83.7939 86.3 85.3939 89.7 88.6939 90.8C92.4939 92 96.794 88.9 98.294 85.5C99.094 83.7 97.394 81.1 95.594 80.7C91.994 80 88.6938 81.5 86.8938 84.8C85.0938 88.1 84.994 90.7 84.794 93.7C84.494 97.1 84.3939 100.7 85.1939 104C86.1939 107.9 88.294 112.2 91.794 114.3C95.294 116.4 95.2939 114.9 96.4939 113.7C97.6939 112.5 98.094 110.3 97.094 109C95.494 106.8 93.6938 104.9 91.3938 103.4C88.4938 101.4 84.8939 104.7 85.6939 107.8C86.4939 110.9 86.394 109.8 86.794 110.7C87.194 111.6 87.2939 111.7 87.1939 111.5C87.0939 111.2 87.394 112.8 87.294 111.8L94.594 109.8C93.094 107.1 91.2938 102.9 87.8938 102.3C85.2938 101.8 83.1939 103.4 82.9939 106.1C82.7939 108.8 82.9939 108.8 82.9939 110.2L90.594 109.2C90.294 107.4 89.994 105.6 89.594 103.9C89.194 102.2 88.894 100.6 88.794 99.1C88.494 95.6 88.694 92 88.794 88.5C88.894 85 88.794 87.8 88.794 87.5C88.794 87.2 88.994 86.2 88.794 87C88.894 86.3 89.094 85.6 89.294 84.9C89.294 84.7 89.3939 84.5 89.4939 84.3C89.3939 84.6 89.3939 84.7 89.4939 84.4C89.5939 84.2 89.694 83.9 89.794 83.7C90.094 83.1 90.394 82.5 90.794 81.9C92.194 79.1 93.6939 75.7 92.4939 72.5C91.7939 70.6 89.7939 69.1 87.6939 69.8C85.5939 70.5 84.2939 72.5 84.9939 74.6L85.294 75.1Z" fill="#280274"/>
    <path d="M107.194 136.2C109.694 138.5 112.594 140.7 115.694 142.1C116.494 142.4 117.194 142.7 117.994 142.8C118.794 142.9 119.294 143.2 119.894 143.7C120.994 144.5 122.494 145 123.694 144.2C124.894 143.4 124.994 142.2 125.494 141.2C125.994 140.2 126.994 139.4 126.994 138.4C126.994 137.1 125.394 136.4 124.494 135.7C123.094 134.7 121.694 133.5 120.194 132.4C117.694 130.5 116.494 127.7 114.994 125C114.594 124.3 113.394 124.2 112.994 125C112.294 126.4 112.994 128.3 113.494 129.6C114.094 131.1 114.794 132.7 115.294 134.1L117.294 133C115.694 131.2 114.594 129.2 112.694 127.6C110.794 126 110.594 127.3 110.694 128.4C110.894 131.8 113.694 134 114.894 137.1C115.594 136.7 116.194 136.3 116.894 136C115.694 134.8 114.594 133.5 113.394 132.3C112.194 131.1 111.294 132.1 111.394 133.1C111.494 134.1 112.094 135.4 112.794 136.4C113.494 137.4 114.294 138.1 114.894 139.1L116.194 137.4C113.494 136.8 110.994 135.5 108.594 134.1C107.494 133.5 106.094 135 107.194 135.9C108.694 137.2 110.394 138.5 112.294 139.2C114.194 139.9 114.094 138.3 113.594 137.5C112.294 135.2 110.194 133.5 108.494 131.6C107.994 132.2 107.594 132.8 107.094 133.4C109.394 134.7 111.494 136.4 113.794 137.9L114.994 135.9C113.394 135 112.394 133.3 111.094 132L109.394 133.7C112.794 136.9 116.094 140.4 120.494 142.2C121.294 142.5 122.194 141.6 121.894 140.8C121.294 139 120.094 137.5 118.894 136C117.694 134.5 117.894 135.2 117.294 135.6C116.694 136 116.494 136.7 116.894 137.2C118.594 139.4 120.794 141.5 123.394 142.4C124.394 142.7 125.194 141.5 124.694 140.7C123.594 138.8 121.794 137.6 119.894 136.5C117.994 135.4 117.594 137.4 118.494 138.3C119.394 139.2 120.694 139.5 121.994 140.1C123.094 140.6 123.894 138.9 123.094 138.1C120.894 136 117.894 135.6 115.494 134L114.594 136.1C117.694 136.6 120.394 138.2 123.294 139.2C124.194 139.5 125.194 138.3 124.594 137.5C121.594 133.1 116.794 130.7 112.494 127.9C111.994 127.6 111.194 127.8 110.894 128.3C110.594 128.8 110.894 129.5 111.294 129.9C114.794 132.6 118.394 135.1 122.294 137C122.594 136.3 122.894 135.6 123.194 134.9C120.894 134.1 118.994 132 116.394 132.4C113.794 132.8 115.394 133.5 115.694 134.1C116.894 136.2 118.994 137.5 120.794 139C121.994 140 123.394 138.5 122.494 137.3C121.794 136.5 121.094 135.6 120.294 134.8C119.494 134 119.594 134.1 119.294 133.7C118.994 133.3 118.494 133.1 118.394 132.9L118.194 134.3C117.694 134.3 117.294 134.4 116.794 134.5C116.394 134.2 116.694 134.5 116.794 134.5C116.994 134.7 117.094 134.9 117.294 135.1C117.794 135.7 118.294 136.3 118.694 136.8C119.294 137.5 119.794 138.3 120.294 139.1C120.794 139.9 121.094 140.5 121.294 141.1C121.494 141.7 121.294 141.4 121.394 141.5C121.394 141.2 121.394 141.5 121.394 141.7C121.394 141.5 121.394 141.6 121.394 141.6C121.294 141.6 121.494 142.1 121.394 141.6C121.594 141.6 121.394 141.6 121.294 141.6C121.694 141.6 121.094 141.6 120.994 141.6H120.894C120.994 141.6 121.094 141.6 121.194 141.8V141.7C121.194 141.4 120.994 141 120.894 140.7C120.194 139 118.394 138.8 116.894 138.8C115.094 138.8 113.294 138.4 111.494 137.9C107.094 136.7 103.094 134.7 98.7939 133.1C97.3939 132.6 96.7938 134.8 98.1938 135.4C102.294 137 106.294 138.9 110.594 140.1C112.594 140.7 114.594 141.2 116.694 141.2C118.794 141.2 118.294 141 118.694 141.5C119.094 142 118.894 142 118.894 142.2C118.894 142.5 119.094 142.9 119.294 143.2C119.994 144.2 121.594 144.3 122.594 143.7C123.594 143.1 123.694 142.4 123.594 141.6C123.494 139.7 122.094 137.9 120.994 136.4C119.894 134.9 119.694 134.6 118.994 133.8C118.294 133 118.294 132.9 117.894 132.6C117.494 132.3 116.894 132.5 116.494 132.8C116.094 133.1 116.094 133.8 116.294 134.2C116.494 134.6 116.794 134.8 117.094 135C117.494 135.4 117.894 135.8 118.394 136.3C119.194 137.2 119.994 138.1 120.794 139L122.494 137.3C120.894 135.9 118.794 134.8 117.694 132.9L116.994 134.6C117.694 134.5 118.894 135.3 119.594 135.7C120.594 136.2 121.494 136.8 122.594 137.2C123.694 137.6 124.694 135.7 123.494 135.1C119.594 133.1 115.994 130.6 112.494 128C112.094 128.7 111.694 129.3 111.294 130C115.294 132.6 119.794 134.8 122.594 138.8C122.994 138.2 123.494 137.7 123.894 137.1C120.994 136.1 118.294 134.5 115.194 134C113.894 133.8 113.094 135.4 114.294 136.1C116.594 137.5 119.494 137.9 121.494 139.8C121.894 139.1 122.294 138.5 122.594 137.8C121.794 137.5 120.794 137.3 120.194 136.7L118.794 138.5C120.294 139.3 121.894 140.3 122.694 141.8C123.094 141.2 123.594 140.7 123.994 140.1C121.994 139.5 120.094 137.7 118.894 136C118.194 136.4 117.594 136.8 116.894 137.2C117.894 138.5 119.094 139.8 119.594 141.4L120.994 140C116.994 138.4 113.994 135 110.894 132.1C109.794 131.1 108.194 132.7 109.194 133.8C110.594 135.3 111.794 137.1 113.594 138.1C114.894 138.8 115.994 136.9 114.794 136.1C112.494 134.7 110.494 133 108.094 131.6C105.694 130.2 105.794 132.5 106.694 133.4C108.294 135.2 110.194 136.8 111.394 138.9C111.794 138.3 112.294 137.8 112.694 137.2C111.194 136.6 109.894 135.5 108.694 134.5C108.194 135.1 107.794 135.7 107.294 136.3C109.894 137.8 112.594 139.2 115.494 139.8C118.394 140.4 117.394 139 116.794 138.1C116.294 137.2 115.594 136.4 114.894 135.6C114.194 134.8 113.694 134.1 113.594 133.2C112.894 133.5 112.294 133.8 111.594 134C112.794 135.2 113.894 136.5 115.094 137.7C116.294 138.9 117.494 137.7 117.094 136.6C116.694 135.5 115.694 133.8 114.794 132.5C113.894 131.2 113.094 130 112.994 128.6L110.994 129.4C112.794 130.9 113.994 133 115.594 134.8C116.394 135.6 117.994 134.8 117.594 133.7C117.194 132.6 116.494 131.1 115.994 129.8C115.494 128.5 115.394 128.3 115.194 127.6C114.994 126.9 115.194 127.2 115.094 127.1C114.994 127 115.094 126.7 115.094 126.8C115.094 126.7 115.094 126.6 115.094 126.5H113.094C114.294 128.6 115.294 130.9 116.894 132.7C118.494 134.5 118.794 134.5 119.894 135.3C121.294 136.3 122.494 137.4 123.894 138.4C124.094 138.6 124.394 138.7 124.594 138.9C124.794 139.1 124.594 138.9 124.694 139C124.694 139.1 124.894 139 124.694 139C124.694 138.9 124.594 138.5 124.694 138.5L124.394 139C123.694 139.9 123.194 140.9 122.794 141.9C122.394 142.9 122.594 142.4 122.394 142.5C121.894 142.6 121.494 142.2 121.094 142C120.594 141.6 120.094 141.2 119.494 141C118.894 140.8 117.994 140.7 117.194 140.5C113.994 139.3 111.194 137.1 108.694 134.8C107.594 133.8 105.894 135.4 106.994 136.5L107.194 136.2Z" fill="#280274"/>
    <path d="M126.694 140.1C128.194 140.1 128.194 137.8 126.694 137.8C125.194 137.8 125.194 140.1 126.694 140.1Z" fill="#1D1D1B"/>
    <path d="M204.794 104.4C206.094 107.5 207.294 110.6 208.094 113.8C208.894 117 209.194 119.3 211.594 119.3C212.294 119.3 212.694 118.8 212.794 118.1C212.894 115.7 211.694 113.5 210.594 111.5C209.394 109.3 208.394 106.9 207.794 104.4L205.694 105.3C207.394 109.1 208.894 113 210.794 116.7C212.694 120.4 212.894 117.2 212.994 116.1C213.094 113.4 211.894 111 210.494 108.7C209.194 106.6 207.694 104.4 207.294 101.9C206.594 102.2 205.894 102.5 205.194 102.8C206.694 105.5 207.594 108.3 208.894 111.1C210.194 113.9 210.394 116.2 211.894 118.4C212.394 119.2 213.794 119.2 213.994 118.1C214.594 115.2 212.594 112.6 211.194 110.4C210.494 109.3 209.794 108.2 209.494 106.8C209.194 105.4 209.094 103.6 208.894 102C208.694 100.4 208.394 100.8 207.694 100.8C206.994 100.8 206.494 101.3 206.494 102C206.894 105 206.894 108 208.594 110.7C209.294 111.9 210.094 113 210.794 114.2C211.294 115.2 211.994 116.4 211.794 117.5C212.494 117.5 213.194 117.3 213.894 117.2C212.394 115.1 211.994 112.3 210.894 109.9C209.794 107.5 208.694 104.3 207.194 101.6C206.894 101.1 206.294 100.9 205.694 101.1C205.094 101.3 204.894 101.9 204.994 102.5C205.294 105 206.794 107.2 208.094 109.3C209.394 111.4 210.694 113.6 210.594 116.1L212.794 115.5C210.794 111.8 209.394 107.9 207.694 104.1C207.094 102.9 205.294 103.8 205.594 105C206.194 107.4 207.094 109.8 208.294 112C209.494 114.2 210.694 115.9 210.594 118.1L211.794 116.9C211.494 116.9 211.894 116.9 211.894 116.9C211.894 116.9 211.694 116.7 211.694 116.6C211.494 116.2 211.294 115.8 211.194 115.4C210.794 114.3 210.594 113.2 210.294 112.2C209.494 109.1 208.194 106.1 206.994 103.2C205.794 100.3 205.894 102.5 205.394 102.8C204.894 103.1 204.694 103.8 204.994 104.4H204.794Z" fill="#280274"/>
    <path d="M80.8937 124.7C80.3937 127.2 80.0937 129.8 78.8937 132.1C78.4937 133 77.8938 134.1 78.4938 135C79.0938 135.9 80.2938 136.2 81.1938 136C82.8938 135.7 84.4939 134.3 86.0939 134.1C87.9939 133.9 90.0937 133.8 91.8937 133.2C92.5937 133 92.9939 132.2 92.5939 131.5C92.1939 130.8 91.0938 130.2 90.1938 129.9C89.2938 129.6 87.7939 129.3 86.5939 129.1C84.3939 128.8 81.7938 128.4 79.6938 129.1C77.5938 129.8 78.6937 129.9 78.8937 130.5C79.9937 133.5 83.0937 133.9 85.8937 134C88.6937 134.1 88.5937 134 89.8937 134.4C91.5937 134.8 93.3938 135.5 95.1938 135.4C95.7938 135.4 96.3937 134.9 96.3937 134.2C96.3937 133.5 95.8938 133 95.1938 133C93.6938 133.2 92.0938 132.5 90.6938 132.2C89.3938 131.9 88.0939 131.8 86.7939 131.7C85.4939 131.6 81.8938 131.8 81.1938 129.8L80.3937 131.2C80.4937 131.2 80.6939 131.2 80.7939 131.2C81.0939 131.2 80.4937 131.2 80.8937 131.2C81.2937 131.2 81.0939 131.2 81.0939 131.2C81.5939 131.2 82.0938 131.2 82.4938 131.2C83.5938 131.2 84.7937 131.2 85.8937 131.4C86.9937 131.6 87.9938 131.7 88.9938 132C89.4938 132.1 89.7939 132.3 90.0939 132.4C90.3939 132.5 90.4937 132.6 90.3937 132.6L91.0939 130.9C89.5939 131.4 87.7938 131.5 86.1938 131.7C84.5938 131.9 84.6938 131.8 83.9938 132.1C83.2938 132.4 82.3939 132.9 81.5939 133.3C80.7939 133.7 80.9939 133.6 80.5939 133.7C80.1939 133.8 80.4939 133.7 80.2939 133.7C80.2939 133.7 80.1939 133.7 80.0939 133.7C79.9939 133.7 80.0939 133.7 80.2939 134C80.2939 134 80.2939 134 80.2939 134.1C80.2939 134 80.2939 133.9 80.2939 133.8C80.2939 133.7 80.3938 133.5 80.4938 133.4C80.6938 133 80.8939 132.5 81.0939 132.1C82.0939 129.9 82.2939 127.5 82.7939 125.2C83.0939 123.7 80.7938 123.1 80.4938 124.6L80.8937 124.7Z" fill="#280274"/>
    <path d="M81.2939 134.9C82.7939 134.9 82.7939 132.6 81.2939 132.6C79.7939 132.6 79.7939 134.9 81.2939 134.9Z" fill="#280274"/>
    <path d="M139.794 10.9C142.094 11.3 144.394 11.6 146.594 12.1C148.694 12.6 150.594 13.5 152.794 13.6C154.994 13.7 154.394 11.6 153.094 11.3C148.194 10.1 142.694 11.9 138.394 8.80001L137.494 10.9C143.894 12 150.094 14.5 156.594 14.3C157.794 14.3 158.094 12.8 157.194 12.1C154.494 10.2 151.294 9.10001 148.194 8.10001C145.094 7.10001 145.094 7.2 143.594 6.7C142.094 6.2 140.494 5.40001 138.694 5.10001C136.894 4.80001 137.394 5.90001 137.594 6.60001C138.194 8.80001 140.994 9.7 142.994 10.2C145.294 10.8 147.694 10.9 149.994 11.2C151.894 11.4 153.694 11.9 155.494 12.5C157.294 13.1 159.094 13.5 160.794 14.3C163.994 15.6 166.794 17.6 169.494 19.7C172.194 21.8 175.494 24.6 178.794 26.8C179.794 27.5 180.994 26.2 180.394 25.2C179.194 23.4 177.394 21.8 176.594 19.8C176.094 18.4 173.794 19 174.294 20.4C175.194 22.7 176.994 24.4 178.294 26.4C178.794 25.9 179.394 25.3 179.894 24.8C174.294 21 169.494 16.1 163.494 13C160.394 11.4 156.894 10.4 153.594 9.5C150.994 8.8 148.294 8.90001 145.694 8.40001C144.394 8.20001 143.094 7.90001 141.794 7.40001C140.494 6.90001 140.794 7 140.394 6.7C139.994 6.4 140.094 6.50001 139.894 6.30001L139.794 6C139.394 6.50001 138.994 7.00001 138.694 7.50001C140.194 7.70001 141.594 8.50001 143.094 9.00001C144.594 9.5 146.094 9.90001 147.494 10.4C150.394 11.3 153.394 12.4 155.894 14.1L156.494 11.9C150.094 12.1 144.194 9.60001 137.994 8.60001C131.794 7.60001 135.994 10 137.094 10.7C139.294 12.3 141.894 12.8 144.594 12.9C147.194 13 149.794 12.8 152.394 13.4L152.694 11.1C150.694 11.1 148.794 10 146.894 9.60001C144.694 9.20001 142.494 8.90001 140.394 8.50001C138.294 8.1 138.294 10.5 139.794 10.8V10.9Z" fill="#280274"/>
    <path d="M87.594 50.9C88.794 48.7 88.7939 46.2 89.4939 43.9C90.1939 41.6 91.8939 39.7 92.7939 37.4C93.2939 36.1 91.2938 35.4 90.6938 36.5C89.1938 39.1 88.3939 42 87.9939 45C87.5939 48 87.3938 51 86.6938 53.9C85.9938 56.8 88.5939 56 88.9939 54.5C90.3939 48.9 89.7939 42.7 92.7939 37.6L90.6938 36.7C89.7938 38.9 88.1939 40.7 87.4939 42.9C86.7939 45.1 86.8939 47.5 85.7939 49.6C84.6939 51.7 87.0939 52.1 87.7939 50.8L87.594 50.9Z" fill="#280274"/>
    <path d="M124.594 146.3C124.594 142.1 128.694 138.6 130.994 138" stroke="#280274" stroke-width="3" stroke-miterlimit="10"/>
    <path d="M145.094 148.8C146.194 151.2 143.894 154.3 141.294 154" stroke="#280274" stroke-width="3" stroke-miterlimit="10" stroke-linecap="round"/>
    <path d="M137.294 143.6C138.694 144.2 139.894 145.2 140.894 146.4" stroke="#280274" stroke-width="3" stroke-miterlimit="10" stroke-linecap="round"/>
    <path d="M127.794 171.9C131.694 178.1 130.5 180.5 130.5 184.5" stroke="#280274" stroke-width="3" stroke-miterlimit="10" stroke-linecap="round"/>
    <path d="M111.594 188.5C114.694 190.2 117.694 192 120.794 193.7" stroke="#280274" stroke-width="3" stroke-miterlimit="10" stroke-linecap="round"/>
    <path d="M201.594 248.7C201.594 248.2 193.794 223.9 167.794 233.8C167.594 234.1 167.494 234.4 167.294 234.8C162.594 242.2 151.294 243 144.894 237.3C139.494 232.6 138.394 223.5 142.994 218C148.894 210.9 147.094 207 137.494 208.4C129.294 209.6 121.094 210.3 112.794 210.6C107.594 210.8 98.0937 212.6 93.3937 209.7C89.1937 207.2 92.0937 200.6 90.8937 200.2C88.2937 199.5 72.5939 221.4 75.5939 245.7C78.6939 270.8 100.594 288.4 119.894 295.2C139.194 302 164.594 301 181.794 286.8C198.494 273 203.394 256.3 201.794 248.7H201.594Z" fill="#280274" stroke="#280274" stroke-width="3" stroke-miterlimit="10" stroke-linecap="round"/>
    <path d="M226.294 170.2C230.094 171.4 233.894 172.7 237.094 175.1C238.494 176.2 239.794 177.5 241.394 178.2C243.294 179.1 245.594 179.1 247.694 179.1C254.494 179.1 280.994 181.1 282.594 179.3C284.194 177.5 310.994 161.3 326.594 161.3C351.594 161.3 517.094 170.3 517.094 170.3L515.494 299.3L310.194 296.3C310.194 296.3 289.294 296.3 289.294 269.3C289.294 242.3 311.094 240.6 318.994 240.3C345.694 239.3 479.594 253.3 479.594 253.3" stroke="#280274" stroke-width="3" stroke-miterlimit="10" stroke-linecap="round"/>
    <path d="M234.694 147.4C237.894 148.5 250.694 154.7 260.194 154.7C315.794 154.7 323.594 130.5 322.094 122.9C320.594 115.1 312.994 109.6 307.994 103.9" fill="#FFE5E5"/>
    <path d="M234.694 147.4C237.894 148.5 250.694 154.7 260.194 154.7C315.794 154.7 323.594 130.5 322.094 122.9C320.594 115.1 312.994 109.6 307.994 103.9" stroke="#280274" stroke-width="3" stroke-miterlimit="10"/>
    <path d="M79.3938 219.2C75.7938 221.1 74.1939 226.8 72.4939 230.3C67.9939 239.1 63.2939 248.1 55.9939 254.8C48.6939 261.5 38.1939 265.5 28.7939 262.5C13.9939 257.7 13.294 239 7.09399 227.1" fill="#FFE5E5"/>
    <path d="M79.3938 219.2C75.7938 221.1 74.1939 226.8 72.4939 230.3C67.9939 239.1 63.2939 248.1 55.9939 254.8C48.6939 261.5 38.1939 265.5 28.7939 262.5C13.9939 257.7 13.294 239 7.09399 227.1" stroke="#280274" stroke-width="3" stroke-miterlimit="10"/>
    <path d="M97.9939 109.9C93.9939 106.4 91.494 101.2 91.594 95.9C91.594 92.7 92.9938 90.9 96.1938 90.7C104.694 90.1 108.594 100.3 112.494 106.2L116.594 105C114.094 98.1 119.794 90.8 126.294 87.6C132.794 84.4 140.394 83.6 146.894 80.5C156.894 75.7 163.894 65.6 166.094 54.7C168.294 43.8 166.194 32.3 161.694 22.2C166.094 21.9 171.094 28.9 174.394 42.2C180.094 65.1 206.894 102.2 182.594 129C183.294 133.4 179.794 137.1 176.994 139.7C172.994 143.4 167.294 146.1 163.794 144.6C156.694 141.4 157.194 138.4 150.294 138.5C140.594 138.7 121.094 143.5 112.994 120.6C113.394 120.8 102.994 114.7 97.9939 110.2V109.9Z" fill="#FFE5E5" stroke="#280274" stroke-width="3" stroke-miterlimit="10" stroke-linecap="round"/>
    <path d="M162 127C162 132 162 131.4 166.5 137.5C169 139.4 168.6 140.6 174 138.5C181 135.9 179.894 129.2 177.094 124.2C174.694 119.9 172.994 106.4 174.594 104.2C175.694 102.7 184.294 98.2 186.694 96.6" stroke="#280274" stroke-width="3" stroke-miterlimit="10" stroke-linecap="round"/>
    <path d="M137.594 121.4C140.994 123.3 145.094 123.9 148.894 122.8C149.694 122.6 150.494 122.3 151.194 121.9C153.594 120.7 155.494 118.8 156.794 116.5" stroke="#280274" stroke-width="3" stroke-miterlimit="10" stroke-linecap="round"/>
    <path d="M177.194 108.3C180.994 110.4 185.294 106.8 186.694 102.5" stroke="#280274" stroke-width="3" stroke-miterlimit="10" stroke-linecap="round"/>
    <path d="M132.094 115.6C145.594 115.6 149.494 115.6 156.694 113.3" stroke="#280274" stroke-width="3" stroke-miterlimit="10" stroke-linecap="round"/>
    <path d="M95.5941 136C87.6941 133.8 80.3941 130.1 78.5941 122.8C76.7941 91.7 78.5939 58.8 91.3939 29.5C98.6939 14.9 113.394 5.7 127.994 5.7C142.594 5.7 151.794 7.5 164.594 11.2C173.694 14.9 179.194 20.3 184.694 31.3C195.694 58.7 204.794 88 208.894 118.1" stroke="#280274" stroke-width="3" stroke-miterlimit="10"/>
    <path d="M74.2939 165C73.1939 159.5 73.2939 154.1 74.7939 148.7C75.0939 147.8 75.3938 147 75.8938 146.3C75.9938 145.9 76.1939 145.5 76.2939 145.1C76.5939 143.4 77.3939 141.8 78.4939 140.6L79.3938 74.7C63.9938 73.7 28.1938 90.4 19.6938 100.8C6.79381 116.5 -2.40619 223.5 4.19381 227C5.99381 228 7.99381 226 9.19381 224.3C37.1938 186.1 63.7939 180.1 78.0939 171.2V170.5C76.1939 169.5 74.7939 167.7 74.2939 165.1V165Z" fill="#3652AD" stroke="#280274" stroke-width="3" stroke-miterlimit="10"/>
    <path d="M186.694 34.3C200.994 22.7 225.094 20 240.794 30.6C252.894 38.7 253.194 38.4 263.694 48.4C280.994 64.9 308.994 103.9 308.994 103.9C295.994 102.5 288.594 104 267.894 120.7C258.194 128.5 255.594 120 213.794 120" fill="#3652AD"/>
    <path d="M186.694 34.3C200.994 22.7 225.094 20 240.794 30.6C252.894 38.7 253.194 38.4 263.694 48.4C280.994 64.9 308.994 103.9 308.994 103.9C295.994 102.5 288.594 104 267.894 120.7C258.194 128.5 255.594 120 213.794 120" stroke="#280274" stroke-width="3" stroke-miterlimit="10"/>
    <path d="M237.094 120C243.894 103.3 248.194 78.1 240.094 61.2" stroke="#280274" stroke-width="3" stroke-miterlimit="10" stroke-linecap="round"/>
    <path d="M95.9939 147.3C100.694 148.8 137.894 156.9 135.194 165.5C132.694 173.7 98.3938 159.2 93.8938 157.7" fill="#FFE5E5"/>
    <path d="M95.9939 147.3C100.694 148.8 137.894 156.9 135.194 165.5C132.694 173.7 98.3938 159.2 93.8938 157.7" stroke="#280274" stroke-width="3" stroke-miterlimit="10" stroke-linecap="round"/>
    <path d="M94.6938 158.2C99.2938 159.7 126.794 165.5 124.894 173.5C122.994 181.8 96.4939 170 92.4939 168.7" fill="#FFE5E5"/>
    <path d="M94.6938 158.2C99.2938 159.7 126.794 165.5 124.894 173.5C122.994 181.8 96.4939 170 92.4939 168.7" stroke="#280274" stroke-width="3" stroke-miterlimit="10" stroke-linecap="round"/>
    <path d="M77.6938 140.4C78.5938 139.3 80.4939 135.6 82.2939 135.6C100.594 131.9 117.094 144.7 133.494 150.2C135.294 152 137.194 155.7 133.494 155.7C120.694 157.5 107.894 152 95.6938 147.3" fill="#FFE5E5"/>
    <path d="M77.6938 140.4C78.5938 139.3 80.4939 135.6 82.2939 135.6C100.594 131.9 117.094 144.7 133.494 150.2C135.294 152 137.194 155.7 133.494 155.7C120.694 157.5 107.894 152 95.6938 147.3" stroke="#280274" stroke-width="3" stroke-miterlimit="10" stroke-linecap="round"/>
    <path d="M91.094 168.8C93.994 170.4 115.194 178.1 111.394 183.7C106.594 190.9 82.594 175.7 78.594 171.5" fill="#FFE5E5"/>
    <path d="M91.094 168.8C93.994 170.4 115.194 178.1 111.394 183.7C106.594 190.9 82.594 175.7 78.594 171.5" stroke="#280274" stroke-width="3" stroke-miterlimit="10" stroke-linecap="round"/>
    <path d="M209.194 134.8C193.594 154.5 179.794 169.3 185.094 173.7C189.694 177.5 201.894 161 217.494 141.3" fill="#FFE5E5"/>
    <path d="M209.194 134.8C193.594 154.5 179.794 169.3 185.094 173.7C189.694 177.5 201.894 161 217.494 141.3" stroke="#280274" stroke-width="3" stroke-miterlimit="10" stroke-linecap="round"/>
    <path d="M217.094 142.1C204.294 158.2 193.394 170.7 198.094 174.6C203.194 178.8 212.594 164.8 225.394 148.7" fill="#FFE5E5"/>
    <path d="M217.094 142.1C204.294 158.2 193.394 170.7 198.094 174.6C203.194 178.8 212.594 164.8 225.394 148.7" stroke="#280274" stroke-width="3" stroke-miterlimit="10" stroke-linecap="round"/>
    <path d="M203.894 124.9C199.994 128.6 173.094 158.7 179.394 164.3C185.894 170.1 207.294 137.3 210.194 133.6" fill="#FFE5E5"/>
    <path d="M203.894 124.9C199.994 128.6 173.094 158.7 179.394 164.3C185.894 170.1 207.294 137.3 210.194 133.6" stroke="#280274" stroke-width="3" stroke-miterlimit="10" stroke-linecap="round"/>
    <path d="M225.294 148.7C223.494 152.6 207.394 176.9 216.594 174.5C225.794 172.1 228.794 160.4 231.394 155.8C239.694 141.1 235.494 122.6 214.494 120" fill="#FFE5E5"/>
    <path d="M225.294 148.7C223.494 152.6 207.394 176.9 216.594 174.5C225.794 172.1 228.794 160.4 231.394 155.8C239.694 141.1 235.494 122.6 214.494 120" stroke="#280274" stroke-width="3" stroke-miterlimit="10" stroke-linecap="round"/>
    <path d="M201.694 127.2C192.794 130.3 182.294 139.1 183.994 132.1C185.194 127.1 194.294 115.6 213.794 120" stroke="#280274" stroke-width="3" stroke-miterlimit="10" stroke-linecap="round"/>
    <path d="M90.6938 200.3C90.6938 200.3 89.7938 194.4 93.9938 188.6C98.1938 182.8 101 184.5 101 184.5" stroke="#280274" stroke-width="3" stroke-miterlimit="10"/>
    <path d="M353.494 197.3C355.151 197.3 356.494 195.957 356.494 194.3C356.494 192.643 355.151 191.3 353.494 191.3C351.837 191.3 350.494 192.643 350.494 194.3C350.494 195.957 351.837 197.3 353.494 197.3Z" fill="#280274" stroke="#280274" stroke-width="3" stroke-miterlimit="10" stroke-linecap="round"/>
    <path d="M409.494 131.3V67.3" stroke="#FE7A36" stroke-width="3" stroke-miterlimit="10" stroke-linecap="round"/>
    <path d="M407.594 54.8L399.894 74.2C399.494 75.2 400.194 76.3 401.294 76.3H416.794C417.894 76.3 418.594 75.2 418.194 74.2L410.494 54.8C409.994 53.5 408.194 53.5 407.694 54.8H407.594Z" fill="#FE7A36" stroke="#FE7A36" stroke-width="3" stroke-miterlimit="10" stroke-linecap="round"/>
    <path d="M28.1001 0V49.8H21.1001V7.60001L14 12V4.8L21.1001 0.100006H28.1001V0Z" fill="#280274"/>
    <path d="M52.3 50.3C49.1 50.3 46.3 49.8 43.7 48.9C41.1 48 38.8 46.6 36.8 44.7L40.8999 39.6C42.7999 41.1 44.8001 42.2 46.6001 42.9C48.5001 43.6 50.4 44 52.2 44C55 44 56.9999 43.6 58.3999 42.7C59.7999 41.8 60.5 40.6 60.5 38.8C60.5 37 60.0001 36.5 59.1001 36C58.2001 35.5 57 35.1 55.5 34.9C54 34.7 52.4 34.6 50.7 34.5C49.3 34.4 47.7999 34.2 46.3999 34C44.9999 33.8 43.7 33.3 42.5 32.7C41.3 32.1 40.4 31.1 39.7 29.9C39 28.7 38.7 27 38.7 24.9C38.7 21.1 39.9 18.3 42.2 16.4C44.5 14.5 47.9 13.6 52.5 13.6C57.1 13.6 57.9 14 60.3 14.7C62.7 15.5 64.9001 16.6 67.1001 18.2L62.8999 23.3C61.0999 22.2 59.4001 21.3 57.6001 20.7C55.9001 20.1 54.2 19.8 52.5 19.8C50.1 19.8 48.3 20.2 47.2 21C46 21.8 45.3999 23 45.3999 24.7C45.3999 26.4 45.8001 26.5 46.6001 27C47.4001 27.5 48.4999 27.8 49.8999 27.9C51.1999 28 52.7 28.2 54.3 28.3C55.8 28.3 57.3 28.6 58.8 28.8C60.3 29 61.7 29.5 63 30.2C64.3 30.9 65.3001 31.9 66.1001 33.3C66.9001 34.6 67.3 36.5 67.3 38.8C67.3 42.6 66.1001 45.5 63.6001 47.4C61.1001 49.3 57.3999 50.2 52.3999 50.2L52.3 50.3Z" fill="#280274"/>
    </svg>
    