<svg width="512" height="252" viewBox="0 0 512 252" fill="none" xmlns="http://www.w3.org/2000/svg">
    <g clip-path="url(#clip0_151_2109)">
    <path d="M64.9799 129.33C55.7799 127.73 45.4799 120.996 41.4799 117.83C38.9798 113.33 37.4799 124.33 41.4799 94.8296C45.4798 65.3296 71.9799 70.3296 71.9799 70.3296C71.9799 70.3296 84.4798 35.8296 110.98 54.8296C137.48 73.8296 132.98 72.8296 132.98 72.8296C132.98 72.8296 138.48 107.83 134.98 104.33C131.48 100.83 115.48 105.33 110.98 107.83C106.48 110.33 104.98 120.83 97.98 127.83C93.48 132.33 76.4799 131.33 64.9799 129.33Z" fill="#FFE5E5"/>
    <path d="M122.48 103.83C117.28 103.83 112.313 107.163 110.48 108.83C116.147 121.83 127.68 148.43 128.48 150.83C129.48 153.83 133.98 154.33 139.98 158.83C145.98 163.33 135.48 164.83 149.98 164.83C164.48 164.83 192.98 100.33 190.48 100.83C187.98 101.33 177.48 99.8296 170.98 96.8296C164.48 93.8296 157.98 85.3296 156.48 86.3296C155.28 87.1296 144.98 103.996 139.98 112.33C138.647 109.496 135.58 103.83 133.98 103.83H122.48Z" fill="#FFE5E5"/>
    <path d="M35.4799 163.83C25.0799 163.83 23.1466 165.83 23.4799 166.83C23.4799 168.83 40.8362 171.543 42.98 172.83C45.48 174.33 46.98 178.33 42.98 178.83C38.98 179.33 15.48 175.33 10.48 175.33C5.48001 175.33 7.48 177.83 7.48 179.83C7.48 181.83 7.48 182.83 3.98 184.33C0.48 185.83 7.48 184.83 7.48 187.83V192.83L15.48 195.83C13.98 197.163 11.88 200.43 15.48 202.83C19.98 205.83 47.98 202.83 54.48 202.83C60.98 202.83 70.98 193.83 74.98 192.83C78.98 191.83 151.48 190.83 158.48 187.83C165.48 184.83 197.48 146.83 197.48 144.33C197.48 142.33 185.48 135.163 179.48 131.83C172.147 141.496 156.28 161.43 151.48 163.83C145.48 166.83 144.48 163.83 141.48 160.83C138.48 157.83 132.98 153.33 130.48 152.83C127.98 152.33 128.2 157.83 122.98 157.83C111.48 157.83 74.48 166.83 67.98 166.83C61.48 166.83 48.4799 163.83 35.4799 163.83Z" fill="#FFE5E5"/>
    <path d="M338.98 94.8296C334.58 104.83 337.147 132.663 338.98 145.33C343.147 159.663 353.78 192.53 362.98 209.33C374.48 230.33 453.48 238.33 462.48 239.83C471.48 241.33 524.48 242.83 529.48 244.33C534.48 245.83 532.862 170.83 524.48 170.83C511.48 170.83 506.48 168.33 435.98 170.83C432.48 170.954 420.313 150.663 418.48 140.83C433.647 141.996 466.18 144.53 474.98 145.33C485.98 146.33 523.48 145.33 529.48 145.33C535.48 145.33 533.98 102.83 535.48 94.8296C536.68 88.4296 521.313 86.4962 513.48 86.3296C500.313 86.3296 466.68 83.3296 461.48 83.3296C454.98 83.3296 424.48 72.3296 418.48 69.3296C412.48 66.3296 412.98 51.8296 407.48 45.8296C401.98 39.8296 368.98 34.3296 367.48 34.3296C365.98 34.3296 344.48 82.3296 338.98 94.8296Z" fill="#280274"/>
    <path d="M43.98 82.3296C35.48 99.8296 40.98 113.83 41.98 117.83C37.3133 113.83 27.28 104.63 24.48 99.8296C20.98 93.8296 14.98 82.3296 30.48 58.3296C44.6818 36.3396 67.48 26.3296 85.48 30.3296C93.6892 32.1538 108.313 46.4962 114.48 54.3296C112.98 53.3296 106.68 51.2296 93.48 50.8296C76.98 50.3296 70.98 70.3296 70.98 70.3296C70.98 70.3296 52.4801 64.8296 43.98 82.3296Z" fill="#280274"/>
    <path d="M132.248 69.2238C128.249 71.0939 134.914 92.1844 135.747 103.158C137.08 105.86 139.946 111.262 140.745 111.262C141.745 111.262 153.742 83.9118 156.741 84.4183C159.74 84.9248 166.16 92.5607 172.736 96.0675C182.234 101.132 190.231 99.1064 190.231 101.132C190.231 103.158 179.734 127.47 179.734 130.508C179.734 133.547 194.73 141.145 197.229 143.677C199.729 146.21 261.211 154.313 272.208 153.807C283.205 153.3 340.189 148.742 338.189 143.677C336.19 138.612 335.69 109.743 340.189 91.0026C344.687 72.2627 375.679 33.7699 366.181 31.2374C356.684 28.705 317.48 47.4449 278.206 47.4449C238.933 47.4449 209.709 17.8295 197.229 13.5C184.749 9.17044 162.274 17.6131 156.741 22.5C147.356 30.7882 152.572 38.2207 151 43C148.501 50.5973 136.247 67.3537 132.248 69.2238Z" fill="#3652AD"/>
    <path d="M108.459 94.6699C110.048 115.899 103.884 123.744 100.679 126.679C81.5312 144.375 23.7578 120.541 20.5801 86.8248C17.7585 56.4626 59.6436 23.0163 85.7498 29.9931C108.843 36.1314 117.855 73.4702 134.155 69.8471C139.003 68.7692 138.074 65.7139 148 52C150.687 48.2882 148 22.4115 165.246 16.2792C213.5 -0.878443 208.98 43.3296 285.971 48.2882C300.188 48.2882 313.967 44.0363 327.472 39.6347C340.977 35.2331 352.893 30.8015 367.193 32.9275C377.603 34.4845 387.656 38.2274 397.545 42.12C401.38 43.6171 405.298 45.2041 408.284 48.2583C412.941 52.9893 414.392 60.2953 415.516 67.1223C418.392 84.5192 420.693 102.186 419.898 119.882C419.186 135.811 416.42 153.388 428.966 164.886C439.485 174.528 452.689 170.935 465.153 170.156C480.165 169.228 495.231 169.378 510.27 169.557C522.707 169.707 535.144 169.827 547.608 169.976C557.388 170.096 578.152 165.754 583.713 177.822C585.028 180.636 585.357 183.87 585.631 187.044C586.836 201.147 587.137 215.49 584.59 229.413C584.069 232.168 583.412 235.013 581.85 237.258C577.139 244.025 566.592 239.474 560.374 238.785C549.06 237.528 537.281 239.923 525.995 240.792C514.051 241.72 502.052 242.049 490.081 241.84C466.139 241.39 442.224 238.696 418.693 233.755C400.723 229.982 379.685 224.772 365.495 211.328C359.358 205.519 355.523 196.266 353.222 187.912C349.688 175.127 344.621 162.88 340.785 150.184C336.95 137.488 334.321 124.014 335.909 110.779C338.402 89.849 350.264 72.4222 359.441 54.5163" stroke="#280274" stroke-width="3" stroke-miterlimit="10" stroke-linecap="round"/>
    <path d="M156.906 85.4167C162.122 89.6321 167.11 94.1743 173.012 97.344C177.283 99.6641 182.141 101.233 187.031 101.167C189.053 101.135 192.085 101.396 193.617 99.7948C197.98 91.7804 200.627 82.8296 201.98 72.8296C203.536 61.3296 205.746 49.8311 200.627 44.1126" stroke="#280274" stroke-width="3" stroke-miterlimit="10" stroke-linecap="round"/>
    <path d="M110.48 110.83C109.795 107.596 111.034 106.617 113.911 105.539C120.841 102.934 128.347 102.275 135.579 103.623C137.031 106.887 137.843 109.492 139.98 112.306" stroke="#280274" stroke-width="3" stroke-miterlimit="10" stroke-linecap="round"/>
    <path d="M109.857 111.228L111.555 114.821C114.021 120.061 116.431 125.361 119.335 130.362C122.239 135.362 123.937 140.483 126.649 145.513C127.471 147.07 128.32 148.597 129.416 149.945C130.375 151.112 131.498 152.13 132.648 153.089C135.47 155.454 139.031 157.221 141.496 159.975C143.469 162.161 143.989 164.197 147.057 164.886C153.687 166.353 158.152 159.526 161.795 154.705C166.617 148.268 171.63 141.98 175.958 135.123C182.477 124.763 187.98 111.228 190.98 101.33" stroke="#280274" stroke-width="3" stroke-miterlimit="10" stroke-linecap="round"/>
    <path d="M156.98 84.8296C153.98 90.3296 149.487 96.8951 147.98 99.8296C143.049 109.471 141.66 110.12 136.729 119.762" stroke="#280274" stroke-width="3" stroke-miterlimit="10" stroke-linecap="round"/>
    <path d="M179.135 130.332C183.846 132.727 187.627 136.979 192.092 139.914C197.324 143.387 203.351 144.944 209.295 146.262C252.057 155.783 296.407 155.574 339.087 145.633" stroke="#280274" stroke-width="3" stroke-miterlimit="10" stroke-linecap="round"/>
    <path d="M85.153 68.73C84.3807 66.1764 86.3247 63.3164 88.4552 62.9078C90.5856 62.4993 92.6627 63.759 94.5535 65.0869C96.7372 66.619 98.9475 68.4236 100.172 71.1814C101.397 73.9393 101.318 77.9229 99.3203 79.8295" stroke="#280274" stroke-width="3" stroke-miterlimit="10" stroke-linecap="round"/>
    <path d="M109.352 52.6748C101.56 49.9184 92.8327 49.4303 85.3335 52.9045C77.8343 56.3786 71.8296 64.3318 71.6695 73.1464C71.8029 71.8831 70.4952 71.0504 69.3477 70.6484C62.8359 68.4376 55.3634 69.9306 49.9992 74.4958C43.1138 80.3531 40.3116 90.2874 39.7245 99.7336C39.3508 105.648 39.7778 111.821 42.4199 117.018" stroke="#280274" stroke-width="3" stroke-miterlimit="10" stroke-linecap="round"/>
    <path d="M40.48 194.83C37.5114 195.095 18.4472 195.564 15.4514 195.83C14.48 195.916 11.98 196.33 11.98 199.33C11.98 202.33 16.1085 202.212 16.98 202.33C28.2823 203.921 48.8041 204.662 59.48 200.33C63.2383 198.797 68.2489 195.421 71.98 193.83C78.48 192.55 81.9851 192.314 93.0695 192.55C111.643 192.962 130.217 191.99 148.682 189.632C151.651 189.249 154.619 188.837 157.37 187.599C160.175 186.332 162.599 184.298 164.996 182.265C177.306 171.892 190.051 160.9 196.533 145.547" stroke="#280274" stroke-width="3" stroke-miterlimit="10" stroke-linecap="round"/>
    <path d="M416.07 67.8861C434.479 75.4617 450.059 82.9921 469.7 84.5491C478.466 85.2378 487.26 84.6988 496.026 85.3576C510.188 86.4056 523.995 90.5677 538.048 92.6637C550.32 94.4902 562.757 94.7597 575.057 96.3167C582.371 97.2449 589.603 98.6223 596.835 99.9698C619.763 104.311 642.692 108.653 665.62 112.965" stroke="#280274" stroke-width="3" stroke-miterlimit="10" stroke-linecap="round"/>
    <path d="M421.618 140.792C492.814 154.087 564.318 130.063 633.816 151.591C643.103 154.466 652.307 158.149 661.949 158.568" stroke="#280274" stroke-width="3" stroke-miterlimit="10" stroke-linecap="round"/>
    <path d="M129.959 151.886C128.93 154.183 126.927 155.724 124.791 156.54C122.655 157.356 120.388 157.567 118.173 157.779C105.043 159.048 91.9923 161.405 79.1523 164.789C75.382 165.786 71.6118 166.874 67.7624 167.086C63.3066 167.327 58.8772 166.391 54.4742 165.635C45.9845 164.185 37.3893 163.369 28.7942 163.218C26.764 163.188 21.7294 163.582 22.4802 167.086C22.4802 170.33 32.3008 169.866 37.0993 171.225C39.894 172.011 44.7994 172.703 44.6398 175.516C44.4802 178.33 40.5895 177.964 38.4803 177.783C34.0509 177.662 6.48028 173.33 6.48028 177.33C5.48032 181.83 19.3164 181.648 22.4802 181.83C28.6234 182.162 35.3371 182.739 41.4802 182.83" stroke="#280274" stroke-width="3" stroke-miterlimit="10" stroke-linecap="round"/>
    <path d="M15.9802 181.83C15.0055 181.257 3.97998 180.33 3.97998 186.33C3.97998 188.33 8.9255 187.83 15.9802 187.83C29.98 187.83 33.98 187.83 41.48 187.83" stroke="#280274" stroke-width="3" stroke-miterlimit="10" stroke-linecap="round"/>
    <path d="M8.47998 188.33C5.97998 191.33 7.99514 194.65 11.4801 194.83C20.2734 194.83 26.5518 195.009 35.3452 195.009" stroke="#280274" stroke-width="3" stroke-miterlimit="10" stroke-linecap="round"/>
    <path d="M57.48 109.33C59.48 109.83 66.48 111.83 68.48 113.33C70.48 114.83 73.48 117.33 74.98 117.33C75.98 117.33 77.98 115.83 76.48 113.33" stroke="#280274" stroke-width="3" stroke-linecap="round"/>
    <path d="M55.48 97.8296C55.98 96.8296 60.48 87.3296 63.98 85.8296" stroke="#280274" stroke-width="3" stroke-linecap="round"/>
    <path d="M415.98 52.3296C416.813 57.8296 418.98 87.3296 418.98 97.3296C418.98 107.33 415.98 131.33 421.98 149.83" stroke="white" stroke-width="3" stroke-linecap="round"/>
    <path d="M63.48 100.83C66.48 100.33 67.73 99.3296 68.98 96.8296C69.98 94.8296 70.48 90.3296 68.98 89.3296" stroke="#280274" stroke-width="3" stroke-linecap="round"/>
    <path d="M59.48 115.83C59.48 118.33 58.48 121.33 56.48 122.33" stroke="#280274" stroke-width="3" stroke-linecap="round"/>
    <path d="M49.48 119.33C49.48 117.83 50.98 112.33 51.48 110.83" stroke="#280274" stroke-width="3" stroke-linecap="round"/>
    <path d="M83.98 124.33C84.98 122.33 86.48 114.83 88.48 112.83" stroke="#280274" stroke-width="3" stroke-linecap="round"/>
    </g>
    <defs>
    <clipPath id="clip0_151_2109">
    <rect width="745" height="252" fill="white"/>
    </clipPath>
    </defs>
    </svg>
    