<svg width="494" height="463" viewBox="0 0 494 463" fill="none" xmlns="http://www.w3.org/2000/svg">
    <path d="M223.102 30.2945L73.3594 288.585C63.8465 305.063 75.6528 325.702 94.7634 325.702H394.248C413.274 325.702 425.165 305.063 415.652 288.585L265.909 30.2945C256.397 13.9018 232.699 13.9018 223.187 30.2945H223.102Z" stroke="#FE7A36" stroke-width="17.7" stroke-miterlimit="10"/>
    <path d="M228.452 99.3475H261.747C269.646 99.3475 275.847 106.227 274.997 114.041L261.323 246.032C260.643 252.827 254.867 258.008 248.072 258.008H244.42C237.71 258.008 232.02 252.997 231.17 246.287L215.202 114.296C214.268 106.312 220.468 99.3475 228.452 99.3475Z" fill="#FE7A36"/>
    <path d="M232.784 272.447V299.117H260.049V272.447H232.784Z" fill="#FE7A36"/>
    <path d="M143.859 262.566C143.859 262.566 147.242 261.471 146.645 258.486C145.948 255.599 144.655 246.144 144.655 246.144L139.977 239.575" fill="#FFE5E5"/>
    <path d="M143.859 262.566C143.859 262.566 147.242 261.471 146.645 258.486C145.948 255.599 144.655 246.144 144.655 246.144L139.977 239.575" stroke="#280274" stroke-width="1.5" stroke-miterlimit="10" stroke-linecap="round"/>
    <path d="M66.0264 144.127C74.2167 144.127 80.8566 136.685 80.8566 127.506C80.8566 118.326 74.2167 110.884 66.0264 110.884C57.8362 110.884 51.1968 118.326 51.1968 127.506C51.1968 136.685 57.8362 144.127 66.0264 144.127Z" fill="#FFE5E5"/>
    <path d="M75.9748 105.025C75.9748 114.196 78.258 129.947 70.4873 121.673C67.6516 118.682 65 114.196 65 105.025C65 95.8537 72.5129 81 75.5328 81C78.5527 81 75.9748 95.8537 75.9748 105.025Z" fill="#FFE5E5"/>
    <path d="M106.137 397.328L103.847 433.357C103.847 433.357 111.014 441.618 129.028 445.4C129.426 445.4 144.256 447.59 140.574 438.334L124.947 422.509C122.26 420.518 120.767 417.234 121.066 413.85L122.459 397.925L106.037 397.427L106.137 397.328Z" fill="#E9F6FF" stroke="#280274" stroke-width="1.7" stroke-miterlimit="10" stroke-linecap="round"/>
    <path d="M38.656 394.74L34.9738 423.902C34.9738 423.902 40.7463 444.007 38.8553 446.097C33.7793 451.67 14.0728 446.097 14.0728 438.533C14.0728 436.442 18.4519 419.821 18.4519 419.821L18.8499 394.84H38.656V394.74Z" fill="#E9F6FF" stroke="#280274" stroke-width="1.7" stroke-miterlimit="10" stroke-linecap="round"/>
    <path d="M68.5154 263.86L87.625 310.24C87.625 310.24 80.459 391.257 87.625 399.617C95.7864 409.072 129.925 409.47 137.589 399.617C141.172 394.939 116.787 288.842 116.787 288.842L104.843 231.215L103.052 203.247L70.5059 208.721L33.5812 204.242L18.353 312.131C18.353 312.131 -1.65234 392.949 2.32881 398.124C9.5944 407.878 44.4296 416.736 50.3018 405.688C54.3825 397.925 53.9846 315.217 53.9846 315.217L76.1793 236.788" fill="#280274"/>
    <path d="M68.5154 263.86L87.625 310.24C87.625 310.24 80.459 391.257 87.625 399.617C95.7864 409.072 129.925 409.47 137.589 399.617C141.172 394.939 116.787 288.842 116.787 288.842L104.843 231.215L103.052 203.247L70.5059 208.721L33.5812 204.242L18.353 312.131C18.353 312.131 -1.65234 392.949 2.32881 398.124C9.5944 407.878 44.4296 416.736 50.3018 405.688C54.3825 397.925 53.9846 315.217 53.9846 315.217L76.1793 236.788" stroke="#FFE5E5" stroke-width="1.7" stroke-miterlimit="10" stroke-linecap="round"/>
    <path d="M107.132 202.749C107.132 202.749 113.601 220.963 117.583 226.835C121.464 232.707 122.459 236.29 122.459 236.29C122.459 236.29 120.867 241.466 122.459 245.447C124.052 249.428 123.256 251.817 124.848 252.812C126.44 253.808 127.933 252.016 127.933 252.016C127.933 252.016 127.933 242.262 129.227 242.561C130.521 242.859 134.801 242.859 135.1 244.85C135.398 246.841 136.393 254.007 138.682 258.485C140.972 262.964 140.673 267.642 142.564 267.642C144.455 267.642 143.56 258.485 142.564 253.608C141.569 248.732 141.071 242.859 141.071 242.859C141.071 242.859 136.692 234.101 136.095 232.11C135.498 230.12 128.929 212.603 128.63 209.02C128.332 205.437 125.346 169.606 124.848 166.023C124.35 162.44 122.659 153.483 122.659 153.483L113.104 150.298L97.1792 161.744L107.232 202.849L107.132 202.749Z" fill="#FFE5E5" stroke="#280274" stroke-width="1.5" stroke-miterlimit="10" stroke-linecap="round"/>
    <path d="M77.8709 116.756L102.056 118.846C105.639 119.145 108.924 121.235 110.616 124.52L122.858 147.511C124.052 149.8 123.555 152.587 121.664 154.378C119.175 156.667 115.592 159.653 113.004 161.146C108.426 163.734 104.544 165.028 104.544 165.028L106.734 217.778C99.9663 234.897 46.7184 216.982 33.5807 204.143V167.615L30.5948 165.127L23.1301 168.312L8.0016 163.933C4.91621 163.037 3.22403 159.653 4.31885 156.667L13.1773 133.079C14.8693 128.7 18.5518 125.415 23.1301 124.321L54.1828 116.955C54.1828 116.955 54.9791 143.231 67.2211 143.032C77.4726 142.833 77.6717 116.955 77.6717 116.955L77.8709 116.756Z" fill="#3652AD" stroke="#280274" stroke-width="1.5" stroke-miterlimit="10" stroke-linecap="round"/>
    <path d="M6.01085 163.237C6.01085 163.237 0.0392237 192.199 1.13404 193.991C2.22885 195.782 6.80727 199.067 11.1865 199.067C15.5658 199.067 66.4245 165.625 70.5052 165.327C74.5859 165.028 85.7335 163.037 90.8094 162.042C95.8854 161.047 110.417 155.374 109.222 154.179C107.033 151.99 99.8664 156.369 97.5772 156.07C95.288 155.772 96.3827 154.179 96.3827 154.179C96.3827 154.179 106.933 150.795 110.118 149.103C113.303 147.411 113.502 146.615 112.407 145.421C111.312 144.227 95.3876 150.995 95.5866 150.298C95.7857 149.601 111.013 145.421 112.905 143.629C114.796 141.838 115.691 141.639 113.8 140.743C111.909 139.847 95.0892 146.317 94.7906 145.819C94.492 145.321 103.151 141.241 107.032 138.354C109.123 136.861 106.435 134.771 104.246 135.568C102.056 136.364 99.3687 139.051 94.0937 140.245C88.8187 141.44 85.8329 142.236 85.2357 142.236C84.6386 142.236 93.1977 140.046 93.8944 137.658C94.5911 135.269 92.0035 136.364 88.0223 136.861C84.0412 137.359 79.3635 138.752 77.6715 140.245C75.9795 141.738 76.3775 142.833 74.0883 145.421C71.7992 148.009 24.5232 168.014 22.4331 168.014C20.343 168.014 6.01085 163.237 6.01085 163.237Z" fill="#FFE5E5" stroke="#280274" stroke-width="1.5" stroke-miterlimit="10" stroke-linecap="round"/>
    <path d="M54.3825 116.756V102.026C54.3825 102.026 40.2494 97.4479 39.3536 78.1394C39.1545 74.2578 38.6567 52.2619 44.1308 46.1907C59.7568 28.6736 72.9945 41.0152 75.8808 50.0723C78.6676 59.2289 81.5537 74.3573 81.5537 79.4332C81.5537 87.8932 79.3639 92.6705 77.4729 93.9644C75.5818 95.2583 77.8714 116.756 77.8714 116.756" fill="#FFE5E5"/>
    <path d="M54.3825 116.756V102.026C54.3825 102.026 40.2494 97.4479 39.3536 78.1394C39.1545 74.2578 38.6567 52.2619 44.1308 46.1907C59.7568 28.6736 72.9945 41.0152 75.8808 50.0723C78.6676 59.2289 81.5537 74.3573 81.5537 79.4332C81.5537 87.8932 79.3639 92.6705 77.4729 93.9644C75.5818 95.2583 77.8714 116.756 77.8714 116.756" stroke="#280274" stroke-width="1.5" stroke-miterlimit="10" stroke-linecap="round"/>
    <path d="M76.7758 95.8557C76.7758 95.8557 106.734 86.7986 106.634 85.6042C106.336 78.2391 97.9755 45.0961 93.7953 41.0154C84.9372 32.655 57.1685 38.1291 57.1685 38.1291C57.1685 38.1291 68.3159 40.1196 71.3017 46.589C74.2876 53.0584 80.4581 66.8928 80.9557 72.765C81.4533 78.6372 79.5626 94.6613 76.7758 95.8557Z" fill="#280274" stroke="#280274" stroke-width="1.5" stroke-miterlimit="10" stroke-linecap="round"/>
    <path d="M52.5902 67.689C54.3817 69.9781 55.2776 73.5611 55.2776 73.5611C55.2776 73.5611 50.8985 83.6136 51.8937 84.8079C52.889 86.0022 57.0689 85.1065 58.5619 84.8079" stroke="#280274" stroke-width="1.5" stroke-miterlimit="10" stroke-linecap="round"/>
    <path d="M61.6473 96.2537C63.0407 96.6518 63.4391 91.1777 61.9462 90.0829C60.4533 88.9881 55.9743 89.7843 55.2776 90.3815C54.5809 90.9786 54.5808 93.9645 61.6473 96.2537Z" stroke="#280274" stroke-width="1.4" stroke-miterlimit="10" stroke-linecap="round"/>
    <path d="M47.8127 73.2625C48.5823 73.2625 49.206 72.0594 49.206 70.5752C49.206 69.0911 48.5823 67.8879 47.8127 67.8879C47.0432 67.8879 46.4194 69.0911 46.4194 70.5752C46.4194 72.0594 47.0432 73.2625 47.8127 73.2625Z" fill="#280274" stroke="#280274" stroke-miterlimit="10" stroke-linecap="round"/>
    <path d="M64.633 73.2625C65.4026 73.2625 66.0264 72.0594 66.0264 70.5752C66.0264 69.0911 65.4026 67.8879 64.633 67.8879C63.8635 67.8879 63.2397 69.0911 63.2397 70.5752C63.2397 72.0594 63.8635 73.2625 64.633 73.2625Z" fill="#280274" stroke="#280274" stroke-miterlimit="10" stroke-linecap="round"/>
    <path d="M62.2446 58.8309C63.9366 59.229 68.316 60.8215 69.8089 62.2149L62.2446 58.8309Z" fill="#280274"/>
    <path d="M62.2446 58.8309C63.9366 59.229 68.316 60.8215 69.8089 62.2149" stroke="#280274" stroke-width="1.3" stroke-miterlimit="10" stroke-linecap="round"/>
    <path d="M47.3152 58.9304C44.9266 60.1248 43.0353 61.2196 42.6372 62.0158L47.3152 58.9304Z" fill="#280274"/>
    <path d="M47.3152 58.9304C44.9266 60.1248 43.0353 61.2196 42.6372 62.0158" stroke="#280274" stroke-width="1.3" stroke-miterlimit="10" stroke-linecap="round"/>
    <path d="M81.6527 82.2201C84.3461 82.2201 86.5295 78.7444 86.5295 74.4568C86.5295 70.1693 84.3461 66.6936 81.6527 66.6936C78.9592 66.6936 76.7759 70.1693 76.7759 74.4568C76.7759 78.7444 78.9592 82.2201 81.6527 82.2201Z" fill="#FFE5E5"/>
    <path d="M29.5991 17.626C33.1822 14.3415 51.7937 2 76.5764 2C101.359 2 116.786 10.1613 123.554 15.6354" stroke="#FE7A36" stroke-width="3.2" stroke-miterlimit="10" stroke-linecap="round"/>
    <path d="M18.9499 25.5884H34.8744C36.2678 25.5884 37.1637 24.0954 36.467 22.9011L28.5047 9.16614C27.808 7.9718 26.0163 7.9718 25.3196 9.16614L17.3573 22.9011C16.6606 24.0954 17.5565 25.5884 18.9499 25.5884Z" fill="#FE7A36" stroke="#FE7A36" stroke-miterlimit="10"/>
    <path d="M118.678 23.9958H134.602C135.996 23.9958 136.891 22.5029 136.195 21.3086L128.232 7.57361C127.536 6.37927 125.744 6.37927 125.048 7.57361L117.085 21.3086C116.389 22.5029 117.284 23.9958 118.678 23.9958Z" fill="#FE7A36" stroke="#FE7A36" stroke-miterlimit="10"/>
    <path d="M271 396.5H255.5L250.5 412.5L264 419L276.5 409L271 396.5Z" fill="#FFE5E5"/>
    <path d="M265.084 424.897C265.084 424.897 242.491 423.802 242.491 424.897C241.993 439.13 193.921 456.746 184.267 422.608C173.319 384.19 207.855 378.318 216.315 378.318C224.775 378.318 227.462 380.408 230.249 382.1C233.036 383.792 231.145 383.792 230.448 384.389C229.353 385.285 228.955 388.967 229.95 390.958C231.742 394.441 234.827 397.328 238.908 395.934C242.989 394.541 243.387 390.261 245.278 388.768C247.169 387.275 255.23 390.958 255.23 390.958L253.439 401.807" fill="#FFE5E5"/>
    <path d="M265.084 424.897C265.084 424.897 242.491 423.802 242.491 424.897C241.993 439.13 193.921 456.746 184.267 422.608C173.319 384.19 207.855 378.318 216.315 378.318C224.775 378.318 227.462 380.408 230.249 382.1C233.036 383.792 231.145 383.792 230.448 384.389C229.353 385.285 228.955 388.967 229.95 390.958C231.742 394.441 234.827 397.328 238.908 395.934C242.989 394.541 243.387 390.261 245.278 388.768C247.169 387.275 255.23 390.958 255.23 390.958L253.439 401.807" stroke="#280274" stroke-width="1.6" stroke-miterlimit="10" stroke-linecap="round"/>
    <path d="M211.04 382.399C212.135 382.399 215.917 380.906 217.609 379.91C219.301 378.915 221.69 376.526 223.481 374.834C225.273 373.142 225.372 374.337 225.87 375.133L231.045 383.195" fill="#FFE5E5"/>
    <path d="M211.04 382.399C212.135 382.399 215.917 380.906 217.609 379.91C219.301 378.915 221.69 376.526 223.481 374.834C225.273 373.142 225.372 374.337 225.87 375.133L231.045 383.195" stroke="#280274" stroke-width="1.6" stroke-miterlimit="10" stroke-linecap="round"/>
    <path d="M208.452 390.759C210.045 390.759 211.438 392.053 212.035 394.043C212.832 396.333 212.433 399.318 211.04 401.11" stroke="#280274" stroke-width="1.4" stroke-miterlimit="10" stroke-linecap="round"/>
    <path d="M220.993 415.343C221.889 419.821 225.87 422.409 229.353 421.215C232.439 420.12 234.529 416.139 233.733 412.058" stroke="#280274" stroke-width="1.4" stroke-miterlimit="10" stroke-linecap="round"/>
    <path d="M190.537 388.669C190.537 388.669 190.039 410.366 213.727 410.366C237.415 410.366 211.04 417.433 218.704 423.305C231.045 432.76 236.619 420.518 237.315 418.627C237.315 418.627 241.396 422.509 241.595 423.603C242.192 426.888 236.221 441.22 213.827 441.121C191.433 441.021 187.551 429.874 185.561 423.106C183.669 416.338 177.797 402.205 190.437 388.669H190.537Z" fill="#280274" stroke="#280274" stroke-width="1.6" stroke-miterlimit="10" stroke-linecap="round"/>
    <path d="M202.58 392.053L206.163 399.418" stroke="#280274" stroke-width="1.4" stroke-miterlimit="10" stroke-linecap="round"/>
    <path d="M486.237 386.081L430.998 384.887L418.756 429.575L409.998 454.358C409.998 454.358 444.634 460.827 451.302 461.325C457.97 461.922 494 461.325 494 461.325V384.887L486.237 386.081Z" fill="#280274" stroke="#280274" stroke-width="1.3" stroke-miterlimit="10" stroke-linecap="round"/>
    <path d="M271.852 395.735H254.833" stroke="#280274" stroke-width="1.7" stroke-miterlimit="10" stroke-linecap="round"/>
    <path d="M399.448 455.055C386.012 454.856 317.437 453.86 306.19 453.064C300.716 452.666 295.54 452.168 290.663 451.571C272.25 449.381 259.013 446.097 254.136 441.718C250.852 438.732 246.174 431.665 250.055 426.689C250.653 425.992 251.349 420.817 258.217 419.125C258.814 418.826 273.146 414.646 273.146 406.684C273.146 398.721 271.056 397.228 269.265 396.432C267.473 395.636 267.871 394.84 268.966 394.044C274.54 389.863 284.293 385.285 306.488 383.095C342.916 379.413 366.006 388.968 376.656 389.764C387.405 390.56 398.652 386.28 406.315 386.479C413.88 386.678 423.832 384.19 430.899 384.29C437.866 384.489 443.937 455.851 399.249 455.055H399.448Z" fill="#3652AD" stroke="#280274" stroke-width="1.3" stroke-miterlimit="10" stroke-linecap="round"/>
    <path d="M257.321 419.622C258.714 419.224 260.506 419.025 262.496 419.025C272.449 419.025 308.28 420.319 309.374 420.518" fill="#E9F6FF"/>
    <path d="M257.321 419.622C258.714 419.224 260.506 419.025 262.496 419.025C272.449 419.025 308.28 420.319 309.374 420.518" stroke="#280274" stroke-width="1.3" stroke-miterlimit="10" stroke-linecap="round"/>
    <path d="M261.6 423.305C297.829 423.305 355.655 434.552 359.536 434.85C366.404 435.248 409.102 440.523 415.273 440.921C421.543 441.32 426.121 438.632 430.401 438.931C437.368 439.428 450.207 438.732 449.71 440.324C449.013 442.514 444.733 442.912 435.975 443.609C433.287 443.808 460.956 441.817 461.354 445.201C461.752 448.585 452.496 447.192 436.87 446.794C426.718 446.495 465.634 446.495 465.634 449.381C465.634 452.765 435.875 450.675 435.278 450.576C431.894 449.68 460.359 451.073 460.459 453.562C460.459 457.344 435.576 453.263 435.178 454.059C434.382 455.552 456.378 454.557 456.378 457.344C456.378 460.13 440.155 458.438 434.183 458.637C428.112 458.837 420.647 453.86 414.178 454.258C407.709 454.656 371.38 456.05 355.058 455.453C271.354 452.467 258.316 442.414 258.316 442.414L261.6 423.504V423.305Z" fill="#FFE5E5" stroke="#280274" stroke-width="1.3" stroke-miterlimit="10" stroke-linecap="round"/>
    <path d="M306.886 453.163C306.886 453.163 265.581 449.083 259.013 444.803C241.993 433.755 249.259 425.096 254.434 421.215C256.325 419.821 258.614 419.025 261.003 419.025C272.748 419.025 311.265 419.025 311.962 420.618C313.256 423.703 306.886 453.064 306.886 453.064V453.163Z" fill="#3652AD" stroke="#280274" stroke-width="1.3" stroke-miterlimit="10" stroke-linecap="round"/>
    </svg>
    