<svg width="70" height="56" viewBox="0 0 70 56" fill="none" xmlns="http://www.w3.org/2000/svg">
    <path d="M11.2951 55.4476H26.7731L26.3603 38.2155L5 36C5 36 11.2951 42.5 11.2951 45.5C11.2951 48.5 11.2951 55.4476 11.2951 55.4476Z" fill="#280274"/>
    <path d="M40.5659 14.2478C40.5659 14.2478 41.8183 16.8895 43.6313 19.4722C45.4444 22.0549 48.764 21.8313 48.3146 24.4707C47.7996 27.4962 40.7335 26.2848 40.7335 26.2848L40.5659 14.2478Z" fill="#280274"/>
    <path d="M33.742 36.7708C33.742 36.7708 26.8285 32.8498 26.519 30.9924C26.2094 29.4446 26.8285 28.7223 28.2731 28.5159C29.7177 28.3095 39.2109 31.302 39.2109 31.302L39.4173 31.5084C41.0683 28.5159 41.8938 25.1108 41.8938 21.4992C41.8938 9.94234 32.5038 0.552368 20.9469 0.552368C9.38999 0.552368 0 9.94234 0 21.4992C0 33.0561 5.77845 38.3186 13.827 41.2079C16.0971 42.0333 18.4704 42.4461 20.9469 42.4461C23.4234 42.4461 26.9317 41.827 29.5114 40.5888C31.3687 39.7633 33.1229 38.6282 34.6707 37.2868L33.742 36.7708Z" fill="#280274"/>
    <path d="M20.5342 15.6176C21.3597 17.9908 23.3202 19.745 25.6935 20.0546C28.6859 20.4673 31.7815 18.7132 32.9166 15.6176" fill="#280274"/>
    <path d="M20.5342 15.6176C21.3597 17.9908 23.3202 19.745 25.6935 20.0546C28.6859 20.4673 31.7815 18.7132 32.9166 15.6176" stroke="white" stroke-width="1.9" stroke-miterlimit="10" stroke-linecap="round"/>
    <path d="M43 33.4063C43 33.4063 52.5978 33.4063 63.0953 33.6062C73.5929 33.8062 67.5943 26.208 63.0953 26.008C58.5964 25.8081 59.4962 29.4072 59.4962 29.4072" stroke="#280274" stroke-width="2" stroke-miterlimit="10" stroke-linecap="round"/>
    <path d="M44 38.0444C44 38.0444 47.0966 37.9445 57.6941 38.0444C63.6927 38.0444 62.0931 45.4427 57.6941 45.6426C53.1952 45.7426 54.095 42.2434 54.095 42.2434" stroke="#280274" stroke-width="2" stroke-miterlimit="10" stroke-linecap="round"/>
    </svg>
    