<?xml version="1.0" encoding="UTF-8" standalone="no"?>
<svg
   width="76"
   height="76"
   viewBox="0 0 76 76"
   fill="none"
   version="1.1"
   id="svg2"
   xmlns="http://www.w3.org/2000/svg"
   xmlns:svg="http://www.w3.org/2000/svg">
  <defs
     id="defs2" />
  <path
     id="path1"
     style="color:#000000;fill:#000000;stroke-linecap:round;stroke-miterlimit:10;-inkscape-stroke:none;fill-opacity:1"
     d="m 4,0 a 4,4 0 0 0 -2.828125,1.171875 4,4 0 0 0 0,5.65625 L 32.34375,38 1.171875,69.171875 a 4,4 0 0 0 0,5.65625 4,4 0 0 0 5.65625,0 L 38,43.65625 69.171875,74.828125 a 4,4 0 0 0 5.65625,0 4,4 0 0 0 0,-5.65625 L 43.65625,38 74.828125,6.828125 a 4,4 0 0 0 0,-5.65625 A 4,4 0 0 0 72,0 4,4 0 0 0 69.171875,1.171875 L 38,32.34375 6.828125,1.171875 A 4,4 0 0 0 4,0 Z" />
</svg>
